<?xml version="1.0" encoding="utf-8"?>
<!-- Generator: Adobe Illustrator 19.0.0, SVG Export Plug-In . SVG Version: 6.00 Build 0)  -->
<svg version="1.2" baseProfile="tiny" id="Layer_1" xmlns="http://www.w3.org/2000/svg" xmlns:xlink="http://www.w3.org/1999/xlink"
	 x="0px" y="0px" viewBox="0 0 63.6069984 62.3499756" xml:space="preserve">
<g id="XMLID_474_">
	<path id="XMLID_476_" fill="#FFFFFF" d="M48.3460922,62.349968c0.9035225,0,1.6359673-0.7324486,1.6359673-1.6359673
		c0-0.9035225-0.7324448-1.6359673-1.6359673-1.6359673H3.2719302v-3.8412476
		c0.0100274-3.432621,2.1326513-6.5047073,5.3397956-7.7283096l12.0996103-4.5807076
		c1.9584904,3.1679115,5.4373913,5.0738525,9.1614151,5.0191422l0,0c3.7243481,0.0560188,7.2038555-1.8502502,9.161417-5.0191422
		l6.6027603,2.4997559c0.8456917,0.3198433,1.7905502-0.1064415,2.1103935-0.9521332
		c0.3198471-0.8456917-0.1064415-1.790554-0.9521332-2.1103973l-6.8383408-2.6175461
		c0-0.0392647-0.0392647-0.0719833-0.0588951-0.104702v-3.3897209c1.6775475-2.3794708,2.7612953-5.1258526,3.1606865-8.0096931
		c2.0226936-1.7537842,3.1853027-4.2986355,3.1868706-6.9757652c0.0051804-1.2255363-0.4774895-2.4027653-1.3414917-3.2719345
		c-0.4722252-0.4692936-1.0387878-0.8328743-1.6621437-1.0666504v-2.4801264
		c0.0215454-1.8892212-0.5582542-3.7363501-1.6555977-5.2743568c-1.8041115-2.5690908-4.4539948-4.4221554-7.4861832-5.2350945
		v-2.303441c0.0000076-0.9009705-0.7284622-1.6323637-1.629425-1.6359669h-2.8727589
		c-5.7978668,0-10.3000469,4.5807076-12.0407162,8.8538523c-0.5936947,1.5021019-0.8978786,3.1029558-0.8965092,4.7181292
		l-0.0392647,3.2719345c-0.6478777,0.2206898-1.2397194,0.5802612-1.7341242,1.0535622
		c-0.9110498,0.8820152-1.41572,2.1022243-1.3938446,3.3700924c0.0057411,2.7466946,1.236618,5.3476086,3.3570051,7.0935516
		c0.3921223,2.7866192,1.4320621,5.4425049,3.0363541,7.7544861v3.5729485c0,0.0392647-0.0458069,0.0719833-0.0588951,0.111248
		L7.4600053,44.4459457c-4.4790726,1.7079353-7.4443698,5.9972076-7.4600091,10.7908401v5.4772186
		c0,0.9035225,0.7324473,1.6359673,1.635967,1.6359673l0,0L48.3460922,62.349968z M19.2847748,26.1165714
		c-1.5764542-1.112133-2.5156345-2.9197464-2.5193901-4.8490047c-0.0050011-0.375412,0.1467838-0.7359009,0.418808-0.994669
		c0.2725754-0.2644958,0.6412792-0.4063053,1.0208435-0.3926315c0.9027939,0.0361977,1.6639977-0.6663189,1.7001953-1.5691128
		c0.0006294-0.0157337,0.0010338-0.031477,0.0012093-0.0472221l0.0588951-4.6461468
		c-0.0055504-1.2042742,0.2164707-2.3987551,0.6543865-3.5206003c1.3087749-3.271934,4.7246742-6.8121662,9.004364-6.8121662
		h1.2106152v2.002423c-0.001194,0.838542,0.6318321,1.5422158,1.4658279,1.6294231
		c2.7034531,0.3979831,5.1144142,1.9158177,6.642025,4.1815314c0.6899986,0.981636,1.0498123,2.1573353,1.0273857,3.3570042
		v3.7823572c0,0.9035187,0.7324486,1.6359653,1.6359673,1.6359653l0,0c0.3685608,0.0035419,0.7210159,0.1515732,0.9815788,0.4122639
		c0.2566795,0.2611713,0.3960571,0.6155262,0.3860931,0.9815807c-0.0075798,1.8984089-0.9188843,3.6797047-2.4539528,4.7966557
		c-0.3675842,0.271492-0.6048584,0.6843529-0.6543846,1.1386337c-0.2662582,2.5920506-1.1971703,5.0714664-2.7026215,7.1982555
		c-0.3662224,0.4819984-0.5660133,1.0698929-0.569313,1.6752319v4.4956322
		c-1.2718658,2.5507126-3.8901596,4.1496544-6.7401867,4.1160927l0,0c-2.8453255,0.0285187-5.4572983-1.569664-6.7270947-4.1160927
		v-4.6330605c-0.000452-0.5915451-0.1908474-1.1673088-0.5431423-1.6425095
		c-1.4445477-2.0879745-2.3443279-4.5038891-2.617548-7.0281143C19.9129868,26.8049374,19.6653996,26.3859444,19.2847748,26.1165714
		z"/>
	<path id="XMLID_475_" fill="#FFFFFF" d="M57.4617004,29.5913658h-0.0588913
		c-3.6907425-0.8441582-3.6907425-2.4343185-3.6907425-2.9512844c0-2.0024223,1.727581-2.9120197,3.3242874-2.9120197
		c1.3412247-0.0008831,2.5515938,0.8043137,3.0690727,2.0416889c0.3234863,0.8436241,1.2696152,1.2652874,2.1132431,0.941803
		c0.8436279-0.3234825,1.2652855-1.2696114,0.9417992-2.1132412c-0.0118408-0.0308895-0.0246239-0.0614128-0.0383186-0.0915279
		c-0.7978554-1.9221172-2.4576073-3.3537731-4.4760132-3.8608837v-1.3807564c0-0.9035187-0.7324448-1.6359673-1.6359634-1.6359673
		c-0.9035225,0-1.6359673,0.7324486-1.6359673,1.6359673v1.3611259c-2.8796997,0.5498943-4.9620132,3.0689945-4.9602547,6.0007248
		c0,1.7537575,0.8048973,4.8817253,6.1708679,6.1316071h0.0588913c3.6907425,0.8441582,3.6907425,2.4343185,3.6907425,2.9512863
		c0,2.0024185-1.721035,2.9120178-3.3242874,2.9120178c-1.3412247,0.000885-2.5515938-0.8043137-3.0690765-2.041687
		c-0.449192-0.7839508-1.4488487-1.0553207-2.2327957-0.6061287c-0.6551819,0.3754082-0.9682999,1.1504707-0.7577438,1.8756371
		c0.790493,1.9046707,2.4278297,3.3288574,4.4236565,3.8477936v1.3873024c0,0.9035225,0.7324448,1.6359673,1.6359673,1.6359673
		c0.9035187,0,1.6359634-0.7324448,1.6359634-1.6359673v-1.3611259c2.8796997-0.5498924,4.9620132-3.0689964,4.9602547-6.0007248
		C63.6325684,33.9692154,62.8276711,30.8412476,57.4617004,29.5913658z"/>
</g>
</svg>
