<?xml version="1.0" encoding="utf-8"?>
<!-- Generator: Adobe Illustrator 19.0.0, SVG Export Plug-In . SVG Version: 6.00 Build 0)  -->
<svg version="1.2" baseProfile="tiny" id="Layer_1" xmlns="http://www.w3.org/2000/svg" xmlns:xlink="http://www.w3.org/1999/xlink"
	 x="0px" y="0px" viewBox="0 0 108.6452637 120" xml:space="preserve">
<g id="XMLID_487_">
	<path id="XMLID_488_" fill="#FFFFFF" d="M62.5581017-169.3012543h-0.1608582h-0.1608543
		c-32.975872,0-59.8391418,27.0241241-59.8391418,59.9999924c0,33.1367264,26.8632717,60,59.9999962,60
		s60.0000038-26.863266,60.0000038-59.9999924C122.3972473-142.2771301,95.5339737-169.3012543,62.5581017-169.3012543z
		 M43.2551537-159.328064c-4.9865952,5.7908783-9.0080414,13.8337708-11.5817719,23.4852448
		c-4.3431644-1.6085815-8.3646126-3.6997223-11.7426243-5.9517365
		C25.8824997-149.67659,33.925396-155.7891998,43.2551537-159.328064z M16.2310257-136.4862518
		c4.0214481,2.7345886,8.686327,4.9865875,13.8337803,6.9168854c-1.1260071,5.3083115-1.7694378,11.099205-1.9302959,17.0509415
		H8.831562C9.4749966-121.2047501,12.0487232-129.4085083,16.2310257-136.4862518z M8.8315649-106.0841064h19.302948
		c0.1608582,5.7908859,0.8042889,11.4209061,1.7694378,16.568367c-5.1474552,1.9302902-9.9731884,4.1823044-13.9946365,6.9168854
		C11.8878651-89.5157394,9.3141375-97.5586395,8.8315649-106.0841064z M19.6090431-77.1296844
		c3.3780155-2.4128647,7.3994637-4.3431549,11.9034843-6.1126022c2.5737228,9.8123245,6.756031,18.0160751,11.7426262,23.9678268
		C33.7645416-62.8133278,25.5607872-69.0867844,19.6090431-77.1296844z M59.180088-56.0573006
		c-9.3297577-2.091156-17.372654-13.5120659-21.5549622-29.1152763c6.5951729-1.7694321,13.9946404-2.8954391,21.5549622-3.2171631
		V-56.0573006z M59.180088-94.8240509c-8.0428963,0.3217163-15.9249344,1.4477234-23.0026779,3.3780136
		c-0.9651451-4.6648865-1.4477234-9.651474-1.6085815-14.6380692H59.180088V-94.8240509z M59.180088-112.518425H34.5688286
		c0.1608582-5.3083038,0.8042908-10.2949066,1.7694359-15.1206436c7.0777512,1.9302979,14.7989273,3.0563049,22.8418236,3.2171631
		V-112.518425z M59.180088-130.8562317c-7.5603218-0.1608429-14.7989273-1.28685-21.3941002-3.0562897
		c4.1823044-15.2815094,12.2251968-26.5415649,21.3941002-28.6327057V-130.8562317z M65.6144028-162.5452271
		c9.1688995,2.091156,17.2117996,13.3512115,21.394104,28.6327057c-6.5951691,1.7694244-13.8337784,2.8954315-21.3940964,3.0562897
		L65.6144028-162.5452271z M65.6144028-124.4219055c8.0428925-0.3217239,15.7640762-1.4477234,22.8418198-3.3780136
		c0.9651413,4.825737,1.6085739,9.9731903,1.7694321,15.1206436H65.6144028V-124.4219055z M65.6144028-106.0841064h24.6112671
		c-0.1608582,5.1474533-0.6434402,9.9731903-1.6085815,14.6380692c-7.0777512-1.9302902-14.9597931-3.0562973-23.0026855-3.3780136
		V-106.0841064z M65.6144028-56.0573006V-88.38974c7.5603256,0.3217239,14.9597855,1.2868652,21.5549622,3.2171631
		C82.9870529-69.5693665,74.9441605-58.3093147,65.6144028-56.0573006z M81.5393372-59.2744598
		c5.1474457-5.9517365,9.1688995-14.1555023,11.74263-23.9678268c4.5040283,1.6085739,8.3646088,3.6997375,11.9034882,6.1126022
		C99.2337036-69.0867844,91.029953-62.8133278,81.5393372-59.2744598z M108.7243271-82.4379959
		c-4.0214462-2.734581-8.6863327-5.1474533-13.9946365-6.916893c0.9651489-5.3083115,1.6085815-10.7774811,1.7694397-16.5683594
		h19.302948C115.4803543-97.5586395,112.9066315-89.5157394,108.7243271-82.4379959z M115.9629288-112.518425h-19.302948
		c-0.1608505-5.9517365-0.8042908-11.7426224-1.9302902-17.2117996c5.1474533-1.9302826,9.8123322-4.1822968,13.8337784-6.9168854
		C112.7457733-129.4085083,115.3194962-121.2047501,115.9629288-112.518425z M93.2819595-136.0036774
		c-2.5737228-9.4906158-6.5951767-17.5335083-11.5817719-23.4852448c9.3297577,3.5388641,17.3726501,9.651474,23.3244019,17.5335083
		C101.6465759-139.5425415,97.6251297-137.6122589,93.2819595-136.0036774z"/>
</g>
<path id="XMLID_498_" fill="#FFFFFF" d="M102.4426804,97.7907562h-4.2017517V50.1709061h3.0012512
	c2.6010895,0,4.802002-1.600666,5.6023407-4.001667s0.2000809-5.0020828-1.8007507-6.6027489L58.0241737,1.3505684
	c-2.2009125-1.8007495-5.4022522-1.8007495-7.4030838,0L3.4014122,39.7665787
	c-2.0008335,1.6006622-2.6010823,4.2017479-1.8007494,6.6027489s3.0012507,4.001667,5.6023331,4.001667h3.0012507v47.6198425
	H6.0024948c-3.201335,0-6.0025015,2.6010895-6.0025015,6.0025024v10.0041656c0,3.2013321,2.6010823,6.0025024,6.0025015,6.0025024
	h96.6402664c3.2013245,0,6.0024948-2.6010895,6.0024948-6.0025024v-10.4043274
	C108.4451752,100.3918304,105.844101,97.7907562,102.4426804,97.7907562z M54.2225876,8.5535669l41.2171707,33.614006H75.4314194
	h-9.6039963H42.8178329h-9.6040001H13.2054968L54.2225876,8.5535669z M90.4376755,50.1709061V97.790741h-7.0029221V50.1709061
	H90.4376755z M75.4314194,50.1709061V97.790741h-9.6039963V50.1709061H75.4314194z M57.6240082,50.1709061V97.790741h-7.0029182
	V50.1709061H57.6240082z M42.8178329,50.1709061V97.790741h-9.6040001V50.1709061H42.8178329z M25.0104179,50.1709061V97.790741
	h-7.0029163V50.1709061H25.0104179z M100.4418411,111.9966736H8.0033283v-6.2025833h2.0008335H33.013752h9.6040001h23.0095901
	h9.6039963h23.0095901h2.0008316v6.2025833H100.4418411z M46.0191727,28.7619915
	c0-4.6019154,3.6014977-8.2034187,8.2034149-8.2034187s8.2034149,3.6015034,8.2034149,8.2034187
	s-3.6014977,8.2034168-8.2034149,8.2034168S46.0191727,33.1638184,46.0191727,28.7619915z"/>
<g id="XMLID_508_">
	<path id="XMLID_511_" fill="#FFFFFF" d="M-70.1261597-137.3818359c1.1532135,0.95401,1.314476,2.6628265,0.359108,3.814682
		l-43.578186,52.6331482c-0.5352783,0.6477509-1.3090591,0.9824677-2.0882568,0.9824677
		c-0.6084518,0-1.2209702-0.20327-1.7264252-0.6233597c-1.1532135-0.95401-1.314476-2.6628189-0.359108-3.814682
		l43.578186-52.6331558C-72.9895401-138.1745911-71.2793655-138.337204-70.1261597-137.3818359z M-110.3422775-138.6136475
		c5.7484512,0,10.5821838,4.1236572,11.492836,9.8070526c1.0177002,6.3447113-3.3146439,12.3330231-9.6593475,13.3507233
		c-0.6138763,0.0989227-1.2372284,0.1477051-1.8551712,0.1477051c-5.7484512,0-10.5835419-4.125-11.494194-9.8084106
		c-0.4932632-3.0720673,0.2398605-6.1536255,2.0638657-8.6741638c1.8239975-2.5205383,4.5220566-4.1819305,7.5941315-4.6738434
		C-111.5849304-138.5648651-110.9602127-138.6136475-110.3422775-138.6136475z M-110.3422775-133.1931458
		c-0.3320084,0-0.6680756,0.0271149-0.9987259,0.0799561c-1.6424179,0.2628937-3.0842743,1.1518555-4.059967,2.5002136
		c-0.9770432,1.3483429-1.3686752,2.9961853-1.1044235,4.6399536c0.5393372,3.3674927,3.736084,5.7118607,7.1415253,5.1657486
		c3.3918762-0.5434113,5.7091522-3.7482834,5.165741-7.1415253
		C-104.6873322-130.9869995-107.2702026-133.1931458-110.3422775-133.1931458z M-76.1862869-102.6363678
		c5.7498016,0,10.5835419,4.1236496,11.494194,9.8070526c1.0177002,6.3420029-3.3146362,12.331665-9.6593475,13.3507156
		c-0.6138687,0.0989227-1.2385864,0.1477127-1.8565216,0.1477127c-5.7484512,0-10.5821915-4.1250076-11.492836-9.8084106
		c-0.4932632-3.0734329,0.2398529-6.1536331,2.063858-8.6741714s4.5207062-4.1819229,7.5941315-4.6738434
		C-77.4275818-102.5875854-76.8028717-102.6363678-76.1862869-102.6363678z M-76.1862869-97.2158585
		c-0.3306503,0-0.6667252,0.0270996-0.9973755,0.0799484c-1.6437683,0.2628937-3.0856247,1.1518555-4.0613174,2.5002136
		s-1.3673248,2.9961853-1.1030731,4.6399612c0.4878464,3.0395584,3.0707169,5.2457047,6.1414413,5.2457047
		c0.3306503,0,0.6667252-0.0270996,0.9973755-0.0799561c3.3918762-0.5447617,5.7105026-3.7482758,5.165741-7.1415176
		C-70.5299911-95.0097122-73.1128616-97.2158585-76.1862869-97.2158585z M-93.2744446-168.6459808
		c-1.4960632,0-2.7102585,1.2141876-2.7102585,2.7102509s1.2141953,2.7102509,2.7102585,2.7102509
		c29.9144363,0,54.252533,24.338089,54.252533,54.252533S-63.3600082-54.719059-93.2744446-54.719059
		s-54.252533-24.3380852-54.252533-54.2538872c0-20.7713928,11.9888153-39.6767731,30.3494339-48.7086945l-2.0069427,5.8568573
		c-0.4851303,1.4161072,0.2683182,2.9582367,1.6844254,3.4420166c0.2913513,0.1002808,0.5881271,0.1477051,0.8781204,0.1477051
		c1.1261139,0,2.1776886-0.7073669,2.5639038-1.8334808l3.9922028-11.6486816
		c0.4851379-1.4161072-0.2683182-2.9582367-1.6844254-3.4420166l-11.648674-3.9922028
		c-1.4201736-0.4919128-2.9582443,0.2683105-3.4420242,1.6844177c-0.4851379,1.4161072,0.2683105,2.9582367,1.6844177,3.4420166
		l5.0559845,1.7332153c-19.8973389,10.0360718-32.8482971,30.6719513-32.8482971,53.3174973
		c0,32.9038544,26.7691956,59.6730385,59.6730423,59.6730385s59.6730461-26.7691841,59.6730461-59.6730385
		S-60.3705978-168.6459808-93.2744446-168.6459808z"/>
</g>
<path id="XMLID_523_" fill="#FFFFFF" d="M246.6311188-102.8219376c-1.7897644,0-3.239975,1.4502182-3.239975,3.2399902v39.293251
	c0,2.4844208-2.0230408,4.5074615-4.5087585,4.5074615h-69.4951172c-2.4857178,0-4.5087585-2.0217476-4.5087585-4.5074615
	v-50.8742599c0-2.4844208,2.0230408-4.5074692,4.5087585-4.5074692h69.4951172c2.4857178,0,4.5087585,2.0217514,4.5087585,4.5074692
	c0,1.7897644,1.4502258,3.2399826,3.2399902,3.2399826s3.2399902-1.4502182,3.2399902-3.2399826
	c0-6.0574799-4.9299622-10.987442-10.988739-10.987442h-7.7448578v-20.1449356
	c0-14.890976-12.1136627-27.0059204-27.0033417-27.0059204s-27.0033417,12.1149445-27.0033417,27.0059204v20.1462326h-7.7448578
	c-6.0587769,0-10.988739,4.9286652-10.988739,10.987442v50.872963c0,6.0574722,4.9299622,10.9874344,10.988739,10.9874344
	h69.4951019c6.0587769,0,10.9887543-4.928669,10.9887543-10.9874344v-39.293251
	C249.871109-101.3717194,248.4208832-102.8219376,246.6311188-102.8219376z M183.6121063-142.2953339
	c0-11.3179169,9.2067413-20.5259552,20.5233612-20.5259552s20.5233612,9.2080383,20.5233612,20.5259552v20.1462326h-41.0467224
	V-142.2953339z M204.1354675-68.0465164c1.7897644,0,3.2399902-1.4502258,3.2399902-3.2399902v-11.2077637
	c4.1458893-1.4722519,7.1279602-5.4237289,7.1279602-10.0685806c0-5.8954773-4.796463-10.6919556-10.6919403-10.6919556
	s-10.6919556,4.7964783-10.6919556,10.6919556c0,4.8833084,3.2957153,9.0032806,7.7759552,10.2772293v10.9978104
	C200.8954773-69.4967422,202.3457031-68.0465164,204.1354675-68.0465164z M199.5994873-92.5615463
	c0-2.3224258,1.8895569-4.2119827,4.2119904-4.2119827c2.3224182,0,4.2119751,1.8895569,4.2119751,4.2119827
	c0,2.3224182-1.8895569,4.2119751-4.2119751,4.2119751C201.4890442-88.3495712,199.5994873-90.2391281,199.5994873-92.5615463z"/>
<g id="XMLID_526_">
	<path id="XMLID_532_" fill="#FFFFFF" d="M-95.6716843,0.6553586c-1.4960327,0-2.7102661,1.2141113-2.7102661,2.7102051
		s1.2142334,2.7102053,2.7102661,2.7102053c29.9144287,0,54.2525635,24.3381348,54.2525635,54.2524414
		c0,29.9145508-24.3381348,54.2539063-54.2525635,54.2539063s-54.2524948-24.3378906-54.2524948-54.2539063
		c0-20.7712402,11.9887695-39.6767578,30.3494186-48.7084961l-2.006958,5.8566904
		c-0.4851074,1.4162598,0.2683105,2.958252,1.6844482,3.4421387c0.2913208,0.1000977,0.5880737,0.1477051,0.8781128,0.1477051
		c1.1260986,0,2.1776733-0.7072754,2.5639038-1.8334961l3.9921875-11.6486816
		c0.4851074-1.4160156-0.2683105-2.958252-1.6844482-3.4421387l-11.6486816-3.9921877
		c-1.420166-0.4919434-2.9581833,0.2683105-3.442009,1.6845703c-0.4851074,1.4160156,0.2683105,2.9582522,1.6844406,3.4418948
		l5.0559692,1.7331543c-19.8973312,10.0361328-32.848259,30.6721172-32.848259,53.317627
		c0,32.9038086,26.769165,59.6730957,59.673027,59.6730957c32.9038086,0,59.6730347-26.7692871,59.6730347-59.6730957
		S-62.7678146,0.6553586-95.6716843,0.6553586z"/>
	<path id="XMLID_542_" fill="#FFFFFF" d="M-121.4890671,62.5694199c4.026062-2.6694336,7.8873901-5.0522461,7.8873901-10.4753418
		c0-5.217041-3.6970825-8.626709-9.2838745-8.626709c-5.9157639,0-9.6539841,3.9440918-9.6539841,10.1054688v0.739502h4.5599899
		c0.0819092-3.3684082,0.7394409-6.8186035,4.970459-6.8186035c2.8757324,0,4.642395,1.8486328,4.642395,4.8474121
		c0,3.984375-3.4509277,5.791748-6.3266602,7.7226563c-4.8885422,3.286377-8.3801804,5.8742676-8.5856247,12.4475098h19.6361008
		v-4.1491699h-14.0081177C-126.6649704,65.9790878-123.5842209,63.925621-121.4890671,62.5694199z"/>
	<path id="XMLID_545_" fill="#FFFFFF" d="M-96.0607224,72.5113144h4.5187988v-6.8195801h3.6563721v-3.9431152h-3.6563721V43.5083847
		h-4.4364624l-12.3238525,17.5419922v4.6413574h12.2007446L-96.0607224,72.5113144z M-96.0195847,49.3011093v12.4475098h-8.4213257
		L-96.0195847,49.3011093z"/>
	<path id="XMLID_546_" fill="#FFFFFF" d="M-81.9290695,43.262291v29.2490234h4.6419678V61.1319199
		c0-3.5737305,1.3557129-6.4499512,5.1758423-6.4499512c3.4921265,0,4.1084595,2.1369629,4.1084595,4.9709473v12.8583984h4.7238159
		v-14.378418c0-4.8884277-2.793396-7.3530273-7.3122559-7.3530273c-2.9164429,0-5.1759033,1.1916504-6.6958618,3.4511719v-10.96875
		H-81.9290695z"/>
</g>
<g id="XMLID_527_">
	<path id="XMLID_533_" fill="#FFFFFF" d="M378.8255005-134.1333466c-0.1272583-5.8022461-0.2595825-11.8027344-0.2595825-18.4841309
		c0-1.3896484-0.9023438-2.6188965-2.2271729-3.0351563l-42.9353638-13.501709
		c-0.6210327-0.1958008-1.2879028-0.1958008-1.9089355,0l-42.9290161,13.501709
		c-1.3261108,0.4162598-2.2271729,1.6455078-2.2271729,3.0351563c0,6.6813965-0.1310425,12.6818848-0.2595825,18.4853516
		c-0.4492798,20.4426193-0.7738037,35.2101974,5.854187,48.6354904
		c10.7857056,21.8666992,29.2696533,31.9194336,39.3286743,35.9650879c0.3804932,0.1525879,0.7852173,0.2302246,1.1873779,0.2302246
		s0.805603-0.0776367,1.1873779-0.2302246c10.059021-4.0432129,28.546814-14.0908203,39.3325195-35.9638672
		C379.5993042-98.9219284,379.2747803-113.6909714,378.8255005-134.1333466z M367.2647705-88.3091354
		c-9.4417725,19.1445313-25.390625,28.3876953-34.8145752,32.3837891
		c-9.4227295-3.9973145-25.3690186-13.2456055-34.8095093-32.3852539
		c-5.9394531-12.0302734-5.6289673-26.144043-5.1987915-45.6804123c0.1081543-4.9187012,0.2290649-10.4191895,0.2557983-16.2897949
		l39.7512207-12.5024414l39.7600708,12.5024414c0.0267334,5.8706055,0.147644,11.369873,0.2557983,16.2885742
		C372.8949585-114.4556198,373.2042236-100.3394089,367.2647705-88.3091354z"/>
	<path id="XMLID_534_" fill="#FFFFFF" d="M350.2559204-126.768364l-23.6109619,26.9838867l-12.1677246-12.1677246
		c-1.4663086-1.4663086-3.8364258-1.4663086-5.3026123,0s-1.4661865,3.8361816,0,5.3024902l15,15
		c0.0296631,0.0297852,0.0650635,0.0495605,0.095459,0.078125c0.0318604,0.0297852,0.0551758,0.0654297,0.0882568,0.0942383
		c0.0754395,0.065918,0.1594238,0.1137695,0.2385254,0.1723633c0.0811768,0.0605469,0.15979,0.1240234,0.2446289,0.177002
		c0.123291,0.0773926,0.2514648,0.1391602,0.3806152,0.2004395c0.083252,0.0397949,0.1638184,0.0852051,0.2492676,0.1184082
		c0.1472168,0.0568848,0.2979736,0.0957031,0.4494629,0.1333008c0.0732422,0.0183105,0.1442871,0.045166,0.2185059,0.0588379
		c0.227417,0.0422363,0.4570313,0.065918,0.6865234,0.065918c0.2498779,0,0.4992676-0.0273438,0.7451172-0.0771484
		c0.0931396-0.0187988,0.1817627-0.0554199,0.2734375-0.0812988c0.1488037-0.0419922,0.2976074-0.0812988,0.4412842-0.1420898
		c0.1134033-0.0476074,0.2188721-0.1135254,0.3280029-0.1728516c0.112915-0.0615234,0.2265625-0.1186523,0.3339844-0.192627
		c0.1171875-0.0803223,0.2237549-0.1772461,0.3330078-0.2722168c0.064209-0.0559082,0.135376-0.0993652,0.1965332-0.1604004
		c0.0233154-0.0234375,0.0386963-0.0512695,0.0612793-0.0749512c0.036377-0.0380859,0.0797119-0.0651855,0.1148682-0.1049805
		l26.25-30c1.3612061-1.5600586,1.2037354-3.9262695-0.3563232-5.2912598
		C353.9909058-128.4858856,351.6246948-128.3323212,350.2559204-126.768364z"/>
</g>
<g id="XMLID_554_">
	<g id="XMLID_555_">
		<path id="XMLID_559_" fill="#FFFFFF" d="M639.3779297-65.3168869h-74.6430664
			c-0.6610718,0-1.1889648,0.5508804-1.1889648,1.2210693v13.5827751c0,0.6702232,0.5278931,1.2117805,1.1889648,1.2117805
			h74.6430664c0.6747437,0,1.2026367-0.5415573,1.2026367-1.2117805v-13.5827751
			C640.5805664-64.7660065,640.0526733-65.3168869,639.3779297-65.3168869z"/>
		<path id="XMLID_556_" fill="#FFFFFF" d="M567.1172485-93.680336c0.6610107,0.2570267,11.7282715,4.5443726,12.3799438,4.8013916
			c0.6519165,0.2616806,1.3082886-0.1331177,1.5194702-0.7160416c0.206543-0.5738754,4.8381958-13.2705536,5.3339233-14.6844635
			h31.4528809c0.5140991,1.4139099,5.0906982,14.0830612,5.3201904,14.6844635
			c0.2203369,0.6105499,0.9042358,0.9501953,1.5147705,0.7160416c0.6105957-0.2294922,11.6364136-4.5168304,12.3893433-4.8013916
			c0.7481689-0.2891998,0.862915-1.087883,0.6930542-1.5745544c-0.6380615-1.7443314-21.8590698-59.8576431-22.7633667-62.3409958
			c-2.152771-5.8481293-4.7188721-11.705368-12.8850098-11.705368c-8.1845703,0-10.8377686,5.9444275-12.9124756,11.705368
			c-1.0651245,2.9835968-21.9647217,60.1652603-22.7451172,62.3409958
			C566.194458-94.6488876,566.4837036-93.9283371,567.1172485-93.680336z M601.9990234-150.3248444h0.1376953l10.6679688,31.9255676
			h-21.4368896L601.9990234-150.3248444z"/>
	</g>
</g>
<g id="XMLID_549_">
	<path id="XMLID_553_" fill="#FFFFFF" d="M496.2606812-127.1212082c-1.5561523-1.3649826-3.9223633-1.2114182-5.2911377,0.3525391
		l-23.6109619,26.9838867l-12.1677246-12.1677246c-1.4663086-1.4663086-3.8364258-1.4663086-5.3026123,0
		s-1.4661865,3.8361816,0,5.3024902l15,15c0.0296631,0.0297852,0.0650635,0.0495605,0.095459,0.078125
		c0.0318604,0.0297852,0.0551758,0.0654297,0.0882568,0.0942383c0.0754395,0.065918,0.1594238,0.1137695,0.2385254,0.1723633
		c0.0811768,0.0605469,0.15979,0.1240234,0.2446289,0.177002c0.123291,0.0773926,0.2514648,0.1391602,0.3806152,0.2004395
		c0.083252,0.0397949,0.1638184,0.0852051,0.2492676,0.1184082c0.1472168,0.0568848,0.2979736,0.0957031,0.4494629,0.1333008
		c0.0732422,0.0183105,0.1442871,0.045166,0.2185059,0.0588379c0.227417,0.0422363,0.4570313,0.065918,0.6865234,0.065918
		c0.2498779,0,0.4992676-0.0273438,0.7451172-0.0771484c0.0931396-0.0187988,0.1817627-0.0554199,0.2734375-0.0812988
		c0.1488037-0.0419922,0.2976074-0.0812988,0.4412842-0.1420898c0.1134033-0.0476074,0.2188721-0.1135254,0.3280029-0.1728516
		c0.112915-0.0615234,0.2265625-0.1186523,0.3339844-0.192627c0.1171875-0.0803223,0.2237549-0.1772461,0.3330078-0.2722168
		c0.064209-0.0559082,0.135376-0.0993652,0.1965332-0.1604004c0.0233154-0.0234375,0.0386963-0.0512695,0.0612793-0.0749512
		c0.036377-0.0380859,0.0797119-0.0651855,0.1148682-0.1049805l26.25-30
		C497.9782104-123.390007,497.8207397-125.756218,496.2606812-127.1212082z"/>
	<path id="XMLID_550_" fill="#FFFFFF" d="M471.2895203-49.3012619c-4.9612732,0-9.4575195-2.7149963-11.8912659-7.1249962
		c-0.1237488-0.1687508-0.2324829-0.3525009-0.3299866-0.5437546c-0.7425232-1.4999962-1.9012451-3.378746-3.1950073-3.7987518
		c-1.0125122-0.3337517-2.5687561,0.0562477-4.6312561,1.1362495c-0.2024841,0.1049995-0.4087524,0.1912537-0.6187439,0.2550011
		c-4.5262451,2.0962524-9.7237549,1.5787506-13.7287598-1.4174995c-3.9674988-2.9625015-6.0299988-7.8262482-5.4787292-12.8212509
		c-0.0037537-0.2062531,0.0074768-0.4125061,0.0412292-0.6262512c0.7537537-4.8937531-0.2062378-6.2737503-4.8862305-7.03125
		c-0.2250061-0.0374985-0.4462585-0.09375-0.65625-0.1687469c-4.8300171-1.03125-8.7075195-4.5599976-10.2225037-9.3525009
		c-1.5037537-4.7587433-0.3900146-9.9149933,2.8987427-13.6275024c0.1199951-0.1800003,0.2587585-0.3525009,0.4125061-0.5100021
		c3.3787537-3.472496,3.3787537-5.2724991,0-8.7449951c-0.1575012-0.1612549-0.3000183-0.3337479-0.4200134-0.5175018
		c-3.28125-3.7124939-4.394989-8.8649979-2.8912354-13.6199951c1.5149841-4.7925034,5.3999939-8.3212509,10.2337341-9.3487473
		c0.2062683-0.0750122,0.4200134-0.1312561,0.6412659-0.1650085c4.6799927-0.7649994,5.6362305-2.144989,4.8862305-7.0387421
		c-0.0262451-0.2100067-0.0412292-0.4199982-0.0374756-0.6337585c-0.5475159-4.9874878,1.5149841-9.8474884,5.4824829-12.8099976
		c4.0125122-3,9.2250061-3.5137482,13.7512512-1.40625c0.2025146,0.0637512,0.4012451,0.1500092,0.5962524,0.2474976
		c2.0625,1.0800018,3.6187439,1.4700012,4.6312561,1.136261c1.2937317-0.4200134,2.4524841-2.2950134,3.1950073-3.7987518
		c0.0974731-0.1950073,0.2099915-0.3787537,0.3337402-0.5512543c2.4337463-4.40625,6.926239-7.1174927,11.8837585-7.1174927
		c4.9649963,0,9.46875,2.7224884,11.9024963,7.1474915c0.1162415,0.1612549,0.2249756,0.3375092,0.3150024,0.5212555
		c0.7462463,1.5,1.9049988,3.3787537,3.2024841,3.7987518c1.0012512,0.3300018,2.5650024-0.0525055,4.6312561-1.136261
		c0.1950073-0.1012421,0.3974915-0.1875,0.6037598-0.2512512c4.5262451-2.1074982,9.7237244-1.5862427,13.7399902,1.40625
		c3.9637451,2.9625092,6.0224915,7.8187561,5.4824829,12.8100128c0.0037537,0.2099915-0.0112305,0.4237366-0.0449829,0.6374969
		c-0.7537537,4.8937531,0.2062378,6.2737427,4.8862305,7.0350037c0.2250366,0.0374908,0.4387817,0.0899963,0.6525269,0.1649933
		c4.8300171,1.03125,8.7112427,4.5562439,10.2262573,9.3487473c1.5,4.7625046,0.3899536,9.9225006-2.9025269,13.6350021
		c-0.1199951,0.1762466-0.2550049,0.3450012-0.4087524,0.5025024c-3.375,3.472496-3.375,5.2724915,0,8.7449951
		c0.1537476,0.1612473,0.2924805,0.3300018,0.4162598,0.5100021c3.2849731,3.7124939,4.3987427,8.8687439,2.8950195,13.6275024
		c-1.5112915,4.7924957-5.3962402,8.3249969-10.2337646,9.3524933c-0.2062378,0.0787506-0.4199829,0.1312561-0.6450195,0.1687546
		c-4.6799927,0.7574997-5.6362305,2.1374969-4.8825073,7.03125c0.0337524,0.2174988,0.0487671,0.4349976,0.0450134,0.6524963
		c0.5437622,4.9875031-1.5187683,9.840004-5.4825134,12.7950058c-4.0050049,3.0037498-9.2024841,3.517498-13.7399902,1.4137497
		c-0.2062378-0.0674973-0.4087524-0.1500015-0.6037292-0.2512474c-2.0700073-1.0837479-3.6412659-1.4662514-4.6312561-1.1362457
		c-1.2975159,0.4162483-2.4525146,2.2949982-3.2025146,3.7987518c-0.0899963,0.1874962-0.1987305,0.3637505-0.3187561,0.5325012
		C480.7507629-52.0200119,476.2507629-49.3012619,471.2895203-49.3012619z M465.5032654-60.8662605
		c0.1162415,0.1650047,0.2212524,0.3375015,0.3112488,0.5212517c1.0724792,2.1862488,3.1724854,3.5437469,5.4750061,3.5437469
		c2.3024902,0,4.4024963-1.3574982,5.4787292-3.5437469c0.0862732-0.1800041,0.1912537-0.3487511,0.303772-0.5099983
		c1.9837341-3.7875023,4.383728-6.0937538,7.3162231-7.0462532c2.9100037-0.9449997,6.1275024-0.5099945,9.8475037,1.3274994
		c0.1950073,0.0637512,0.3900146,0.1462555,0.573761,0.2437592c2.0849915,1.0987473,4.5262451,0.9112473,6.3825073-0.4725037
		c1.9124756-1.4287491,2.8574829-3.847496,2.4674988-6.3225021c-0.0337524-0.2099991-0.0487671-0.4162521-0.0450134-0.6224976
		c-1.0724792-8.3062515,2.4674988-13.2862473,10.5375366-14.8199997c0.1949463-0.0674973,0.3974609-0.1162491,0.6074829-0.1500015
		c2.3399658-0.3750076,4.2412109-2.0362473,4.9649658-4.3350067c0.7387695-2.3399963,0.1312866-4.8862457-1.5862427-6.6412506
		c-0.1462402-0.1500015-0.28125-0.3112488-0.3974609-0.4837418c-5.5987549-6.0599976-5.5950317-12.1987534,0.0074463-18.2587509
		c0.1125488-0.1687546,0.2437744-0.3262482,0.3900146-0.4762497c1.7175293-1.7550049,2.3250122-4.3012543,1.5862427-6.6450043
		c-0.7237549-2.2987442-2.625-3.9599915-4.9612427-4.3312531c-0.2174683-0.0337372-0.4237671-0.0862427-0.6224976-0.1537476
		c-8.0587463-1.5374908-11.5987549-6.5212555-10.5262451-14.8312531c0-0.2024994,0.0150146-0.4049988,0.0450134-0.6074982
		c0.3899841-2.4749908-0.5550232-4.8974915-2.4674988-6.3262482c-1.8600159-1.3874969-4.3012695-1.5712433-6.3825073-0.46875
		c-0.1875,0.0975037-0.3787537,0.1800079-0.573761,0.2437592c-3.7237549,1.8299866-6.9524841,2.2687378-9.8475037,1.3274994
		c-2.9362488-0.9450073-5.3362427-3.2587585-7.3237305-7.0500031c-0.1087646-0.1575012-0.2099915-0.3225098-0.2962646-0.4987488
		c-1.0762329-2.1900024-3.176239-3.5475006-5.4787292-3.5475006c-2.3025208,0-4.4025269,1.3574982-5.4750061,3.5437469
		c-0.0899963,0.1837463-0.198761,0.3600006-0.3150024,0.5287476c-1.9837646,3.7762451-4.3800049,6.0787506-7.3087463,7.03125
		c-2.8912659,0.9375-6.1237488,0.5062561-9.855011-1.3350067c-0.1912537-0.0637512-0.3825073-0.1462402-0.5662537-0.2399902
		c-2.0812378-1.0987549-4.5262451-0.9150085-6.3825073,0.46875c-1.9124756,1.4287415-2.8612366,3.8549957-2.4712219,6.3262482
		c0.0299988,0.1987457,0.0449829,0.4012451,0.0449829,0.6037445c1.0725098,8.3099976-2.4674988,13.2975006-10.5337524,14.8350067
		c-0.1987305,0.0674896-0.4012451,0.1199951-0.6149902,0.1537476c-2.3362427,0.375-4.2375183,2.0325012-4.9649963,4.3349991
		c-0.7387695,2.340004-0.1312561,4.8862534,1.5899963,6.6412506c0.1499939,0.1537552,0.2850037,0.3150024,0.4049988,0.4912491
		c5.5874939,6.0562515,5.5874939,12.1875-0.0075073,18.2437515c-0.1162415,0.172493-0.2474976,0.3337479-0.3974915,0.4837494
		c-1.7174988,1.7587509-2.3287659,4.3012466-1.5899963,6.6412506c0.727478,2.3024979,2.6287537,3.9674988,4.96875,4.3387451
		c0.2137451,0.0337524,0.4199829,0.0824966,0.6187439,0.1537552c8.0625,1.5337448,11.6025085,6.5212479,10.5224915,14.8387527
		c0,0.1987457-0.0112305,0.3974991-0.0449829,0.5999985c-0.3900146,2.4674911,0.5587463,4.8937454,2.4712524,6.3225021
		c1.8599854,1.3875046,4.301239,1.5749969,6.3862305,0.46875c0.1875-0.097496,0.386261-0.1800003,0.585022-0.2437515
		c3.7200012-1.8337555,6.9412231-2.2687531,9.8362427-1.3274994
		C461.1195068-66.9525146,463.5157471-64.6462555,465.5032654-60.8662605z"/>
</g>
</svg>
