<?xml version="1.0" encoding="utf-8"?>
<!-- Generator: Adobe Illustrator 19.0.0, SVG Export Plug-In . SVG Version: 6.00 Build 0)  -->
<svg version="1.2" baseProfile="tiny" id="Layer_1" xmlns="http://www.w3.org/2000/svg" xmlns:xlink="http://www.w3.org/1999/xlink"
	 x="0px" y="0px" viewBox="0 0 120 120" xml:space="preserve">
<g id="XMLID_487_">
	<path id="XMLID_488_" fill="#FFFFFF" d="M60.1608467,0.0000063h-0.1608543h-0.1608582
		c-32.975872,0-59.8391418,27.024128-59.8391418,59.9999962c0,33.1367226,26.8632717,60.0000038,60,60.0000038
		s60-26.863266,60-59.9999962C119.9999924,27.0241337,93.1367188,0.0000063,60.1608467,0.0000063z M40.8578987,9.973196
		c-4.9865913,5.790885-9.0080395,13.8337803-11.5817699,23.4852543c-4.3431644-1.6085796-8.3646126-3.6997299-11.7426262-5.9517441
		C23.4852467,19.62467,31.528141,13.5120707,40.8578987,9.973196z M13.8337717,32.8150177
		c4.0214472,2.7345848,8.686326,4.9865913,13.8337812,6.9168854c-1.1260071,5.3083115-1.7694378,11.0991974-1.9302959,17.0509415
		H6.4343081C7.0777421,48.0965157,9.6514692,39.892765,13.8337717,32.8150177z M6.4343109,63.2171631h19.302948
		c0.1608582,5.7908783,0.8042908,11.4209061,1.7694378,16.5683594c-5.1474533,1.9302979-9.9731884,4.182312-13.9946356,6.916893
		C9.4906111,79.7855225,6.9168835,71.74263,6.4343109,63.2171631z M17.2117882,92.1715851
		c3.3780174-2.4128723,7.3994656-4.3431625,11.9034843-6.1126022c2.5737247,9.8123245,6.7560349,18.0160751,11.7426262,23.9678268
		C31.3672867,106.4879379,23.1635323,100.2144775,17.2117882,92.1715851z M56.7828331,113.2439651
		c-9.3297577-2.091156-17.372654-13.5120621-21.5549622-29.1152725c6.5951729-1.7694397,13.9946404-2.8954468,21.5549622-3.2171631
		V113.2439651z M56.7828331,74.4772186c-8.0428963,0.3217163-15.9249344,1.4477234-23.0026779,3.3780136
		c-0.9651451-4.6648865-1.4477234-9.651474-1.6085815-14.6380692h24.6112595V74.4772186z M56.7828331,56.7828445H32.1715736
		c0.1608582-5.3083076,0.8042908-10.2949066,1.7694359-15.1206436c7.0777512,1.930294,14.7989273,3.0563011,22.8418236,3.2171593
		V56.7828445z M56.7828331,38.4450417c-7.5603218-0.1608543-14.7989273-1.2868614-21.3941002-3.0563011
		C39.5710373,20.1072388,47.6139297,8.8471861,56.7828331,6.7560349V38.4450417z M63.2171478,6.7560377
		c9.1688995,2.0911512,17.2117996,13.3512087,21.394104,28.6327019c-6.5951691,1.7694359-13.8337708,2.8954391-21.3940964,3.0563011
		L63.2171478,6.7560377z M63.2171478,44.8793602c8.0429001-0.3217201,15.7640762-1.4477234,22.8418198-3.3780136
		c0.9651413,4.825737,1.6085815,9.9731903,1.7694321,15.1206436H63.2171478V44.8793602z M63.2171478,63.2171631h24.6112671
		c-0.1608582,5.1474533-0.6434326,9.9731903-1.6085815,14.6380692c-7.0777512-1.9302902-14.9597855-3.0562973-23.0026855-3.3780136
		V63.2171631z M63.2171478,113.2439651V80.9115295c7.5603256,0.3217163,14.9597855,1.2868652,21.5549622,3.2171631
		C80.589798,99.7319031,72.5469055,110.991951,63.2171478,113.2439651z M79.1420822,110.0268097
		c5.1474533-5.9517365,9.1688995-14.1555023,11.74263-23.9678268c4.5040283,1.6085739,8.3646088,3.6997299,11.9034882,6.1126022
		C96.8364563,100.2144775,88.6327057,106.4879379,79.1420822,110.0268097z M106.3270721,86.863266
		c-4.0214462-2.7345734-8.6863327-5.1474533-13.9946365-6.9168854c0.9651489-5.3083115,1.6085815-10.7774811,1.7694397-16.5683632
		h19.302948C113.0830994,71.74263,110.5093765,79.7855225,106.3270721,86.863266z M113.5656738,56.7828445h-19.302948
		c-0.1608505-5.9517441-0.8042831-11.7426224-1.9302902-17.2117958c5.1474533-1.930294,9.8123322-4.1823044,13.8337784-6.9168892
		C110.3485184,39.892765,112.9222412,48.0965157,113.5656738,56.7828445z M90.8847046,33.297596
		c-2.5737228-9.4906178-6.5951691-17.5335121-11.5817719-23.4852562c9.3297577,3.5388746,17.3726501,9.651473,23.3244019,17.5335121
		C99.249321,29.7587204,95.2278748,31.6890163,90.8847046,33.297596z"/>
</g>
<path id="XMLID_498_" fill="#FFFFFF" d="M100.0454254,267.0920105h-4.2017517V219.472168h3.0012512
	c2.6010895,0,4.802002-1.6006622,5.6023407-4.0016632s0.2000809-5.0020752-1.8007507-6.6027527l-47.0195923-38.2159119
	c-2.2009163-1.8007507-5.4022522-1.8007507-7.4030876,0l-47.219677,38.4160004
	c-2.0008337,1.6006622-2.6010823,4.2017517-1.8007495,6.6027527s3.0012505,4.0016632,5.6023331,4.0016632h3.0012503v47.6198578
	H3.6052406c-3.2013347,0-6.002501,2.6010742-6.002501,6.0025024v10.0041504c0,3.2013245,2.6010823,6.0025024,6.002501,6.0025024
	h96.6402664c3.2013321,0,6.0025024-2.6010742,6.0025024-6.0025024v-10.4043274
	C106.0479279,269.6930847,103.4468536,267.0920105,100.0454254,267.0920105z M51.8253326,177.8548279l41.2171707,33.6140137
	H73.0341721h-9.6040039H40.4205818h-9.604002h-20.008337L51.8253326,177.8548279z M88.0404205,219.472168v47.6198425h-7.0029144
	V219.472168H88.0404205z M73.0341721,219.472168v47.6198425h-9.6040039V219.472168H73.0341721z M55.2267532,219.472168v47.6198425
	H48.223835V219.472168H55.2267532z M40.4205818,219.472168v47.6198425h-9.604002V219.472168H40.4205818z M22.6131649,219.472168
	v47.6198425h-7.0029182V219.472168H22.6131649z M98.0445862,281.2979431H5.6060743v-6.2025757h2.000834h23.0095901h9.604002
	h23.0095863h9.6040039h23.0095825h2.0008392v6.2025757H98.0445862z M43.6219177,198.0632629
	c0-4.6019135,3.6015015-8.2034302,8.2034149-8.2034302s8.2034149,3.6015167,8.2034149,8.2034302
	s-3.6014977,8.2034149-8.2034149,8.2034149S43.6219177,202.4650879,43.6219177,198.0632629z"/>
<g id="XMLID_508_">
	<path id="XMLID_511_" fill="#FFFFFF" d="M-72.523407,31.9194298c1.1532059,0.95401,1.314476,2.6628265,0.359108,3.814682
		l-43.5781937,52.633152c-0.5352783,0.6477509-1.3090515,0.9824677-2.0882568,0.9824677
		c-0.6084518,0-1.2209702-0.20327-1.7264252-0.6233597c-1.1532135-0.95401-1.314476-2.6628189-0.359108-3.814682
		l43.578186-52.6331558C-75.386795,31.1266785-73.6766205,30.9640656-72.523407,31.9194298z M-112.7395325,30.6876183
		c5.7484512,0,10.5821915,4.1236534,11.492836,9.8070564c1.0177002,6.3447075-3.3146439,12.3330193-9.6593475,13.3507195
		c-0.6138687,0.0989265-1.2372284,0.1477089-1.8551712,0.1477089c-5.7484512,0-10.5835419-4.1250038-11.4941864-9.8084106
		c-0.4932709-3.0720711,0.2398529-6.1536331,2.063858-8.6741714c1.8239975-2.5205383,4.5220566-4.1819248,7.5941315-4.6738358
		C-113.9821854,30.7364025-113.3574677,30.6876183-112.7395325,30.6876183z M-112.7395325,36.1081276
		c-0.3320084,0-0.6680756,0.0271034-0.9987259,0.0799522c-1.6424179,0.2628937-3.0842743,1.1518555-4.0599594,2.5002098
		c-0.9770508,1.3483505-1.3686829,2.9961853-1.1044312,4.6399574c0.5393372,3.3674927,3.736084,5.7118607,7.1415253,5.1657448
		c3.3918839-0.5434074,5.7091522-3.7482796,5.1657486-7.1415215
		C-107.0845871,38.3142738-109.6674576,36.1081276-112.7395325,36.1081276z M-78.5835419,66.6649017
		c5.7498016,0,10.5835419,4.1236496,11.494194,9.8070526c1.0177002,6.3419952-3.3146362,12.3316574-9.6593475,13.3507156
		c-0.6138687,0.0989227-1.2385864,0.1477127-1.8565216,0.1477127c-5.7484512,0-10.5821915-4.1250076-11.492836-9.8084183
		c-0.4932632-3.0734253,0.2398605-6.1536331,2.063858-8.6741714c1.8240051-2.5205383,4.5207062-4.1819229,7.5941391-4.6738358
		C-79.8248367,66.7136841-79.2001266,66.6649017-78.5835419,66.6649017z M-78.5835419,72.0854111
		c-0.3306503,0-0.6667252,0.0270996-0.9973755,0.0799484c-1.6437683,0.2628937-3.0856247,1.1518555-4.0613174,2.5002136
		c-0.9756927,1.3483505-1.3673248,2.9961853-1.1030731,4.6399612c0.4878464,3.0395508,3.0707169,5.245697,6.1414413,5.245697
		c0.3306503,0,0.6667252-0.027092,0.9973755-0.0799484c3.3918839-0.5447617,5.7105026-3.7482834,5.165741-7.1415253
		C-72.9272461,74.2915573-75.5101166,72.0854111-78.5835419,72.0854111z M-95.6716995,0.6552814
		c-1.4960632,0-2.7102585,1.2141942-2.7102585,2.7102542s1.2141953,2.7102551,2.7102585,2.7102551
		c29.9144363,0,54.2525368,24.338089,54.2525368,54.2525291s-24.3381004,54.2538872-54.2525368,54.2538872
		s-54.2525253-24.338089-54.2525253-54.2538834c0-20.7713928,11.9888153-39.6767769,30.3494339-48.7087021l-2.0069427,5.856863
		c-0.4851379,1.4161072,0.2683105,2.9582424,1.6844177,3.4420223c0.2913589,0.1002789,0.5881271,0.147707,0.8781204,0.147707
		c1.1261139,0,2.1776886-0.7073746,2.5639038-1.8334885l3.9922028-11.6486759
		c0.4851379-1.4161086-0.2683182-2.9582429-1.6844254-3.4420238l-11.648674-3.9922061
		c-1.4201736-0.4919112-2.958252,0.2683152-3.4420319,1.6844237c-0.4851227,1.4161084,0.2683258,2.9582427,1.684433,3.442024
		l5.0559769,1.7332082c-19.8973312,10.0360737-32.8482895,30.671957-32.8482895,53.3174973
		c0,32.9038582,26.7691803,59.6730385,59.6730347,59.6730385s59.6730461-26.7691803,59.6730461-59.6730385
		S-62.767849,0.6552814-95.6716995,0.6552814z"/>
</g>
<path id="XMLID_523_" fill="#FFFFFF" d="M244.2338715,66.479332c-1.7897644,0-3.2399902,1.4502182-3.2399902,3.2399826v39.2932587
	c0,2.4844208-2.0230408,4.5074615-4.5087585,4.5074615h-69.4951019c-2.4857178,0-4.5087738-2.0217514-4.5087738-4.5074615
	V58.1383095c0-2.4844208,2.023056-4.5074692,4.5087738-4.5074692h69.4951019c2.4857178,0,4.5087738,2.0217552,4.5087738,4.5074692
	c0,1.7897682,1.4502258,3.2399864,3.2399902,3.2399864s3.239975-1.4502182,3.239975-3.2399864
	c0-6.057476-4.9299622-10.9874382-10.988739-10.9874382h-7.7448578V27.0059357
	c0-14.890975-12.1136627-27.0059299-27.0033417-27.0059299c-14.8896637,0-27.0033264,12.1149549-27.0033264,27.0059299v20.1462288
	h-7.744873C160.9299622,47.1521645,156,52.0808334,156,58.1396065v50.8729668
	c0,6.0574722,4.9299622,10.9874344,10.9887238,10.9874344h69.4951172c6.0587769,0,10.988739-4.9286728,10.988739-10.9874344
	V69.7193146C247.4738617,67.9295502,246.0236359,66.479332,244.2338715,66.479332z M181.2148438,27.0059357
	c0-11.3179188,9.2067566-20.525959,20.5233765-20.525959s20.5233612,9.2080402,20.5233612,20.525959v20.1462288h-41.0467377
	V27.0059357z M201.7382202,101.2547455c1.7897644,0,3.239975-1.4502182,3.239975-3.2399826V86.8069992
	c4.1458893-1.4722519,7.1279755-5.4237366,7.1279755-10.0685806c0-5.8954773-4.7964783-10.6919556-10.6919556-10.6919556
	s-10.6919556,4.7964783-10.6919556,10.6919556c0,4.8833084,3.2957153,9.003273,7.7759705,10.2772293v10.9978104
	C198.49823,99.8045273,199.9484406,101.2547455,201.7382202,101.2547455z M197.20224,76.7397156
	c0-2.3224182,1.8895569-4.2119827,4.2119751-4.2119827s4.2119904,1.8895645,4.2119904,4.2119827
	c0,2.3224258-1.8895721,4.2119827-4.2119904,4.2119827S197.20224,79.0621414,197.20224,76.7397156z"/>
<g id="XMLID_526_">
	<path id="XMLID_532_" fill="#FFFFFF" d="M-98.0689392,169.9566193c-1.4960327,0-2.7102661,1.2141113-2.7102661,2.7102051
		s1.2142334,2.7102051,2.7102661,2.7102051c29.9144287,0,54.2525635,24.3381348,54.2525635,54.2524414
		c0,29.914566-24.3381348,54.2539215-54.2525635,54.2539215s-54.2525024-24.3378906-54.2525024-54.2539215
		c0-20.7712402,11.9887695-39.6767578,30.3494263-48.7084961l-2.006958,5.8566895
		c-0.4851074,1.4162598,0.2683105,2.958252,1.6844482,3.4421387c0.2913208,0.1000977,0.5880737,0.1477051,0.8781128,0.1477051
		c1.1260986,0,2.1776733-0.7072754,2.5639038-1.8334961l3.9921875-11.6486816
		c0.4851074-1.4160156-0.2683105-2.958252-1.6844482-3.4421387l-11.6486816-3.9921875
		c-1.420166-0.4919434-2.9581909,0.2683105-3.4420166,1.6845703c-0.4851074,1.4160156,0.2683105,2.958252,1.6844482,3.4418945
		l5.0559692,1.7331543c-19.8973389,10.0361328-32.8482666,30.6721191-32.8482666,53.317627
		c0,32.9038239,26.769165,59.673111,59.6730347,59.673111c32.9038086,0,59.6730347-26.7692871,59.6730347-59.673111
		S-65.1650696,169.9566193-98.0689392,169.9566193z"/>
	<path id="XMLID_542_" fill="#FFFFFF" d="M-123.886322,231.8706818c4.026062-2.6694336,7.8873901-5.0522461,7.8873901-10.4753418
		c0-5.217041-3.6970825-8.626709-9.2838745-8.626709c-5.9157715,0-9.6539917,3.9440918-9.6539917,10.1054688v0.739502h4.5599976
		c0.0819092-3.3684082,0.7394409-6.8186035,4.970459-6.8186035c2.8757324,0,4.642395,1.8486328,4.642395,4.8474121
		c0,3.984375-3.4509277,5.791748-6.3266602,7.7226563c-4.8885498,3.286377-8.380188,5.8742676-8.5856323,12.4475098h19.6361084
		v-4.1491699h-14.0081177C-129.0622253,235.2803497-125.9814758,233.2268829-123.886322,231.8706818z"/>
	<path id="XMLID_545_" fill="#FFFFFF" d="M-98.4579773,241.8125763h4.5187988v-6.8195801h3.6563721v-3.9431152h-3.6563721
		v-18.2402344h-4.4364624l-12.3238525,17.5419922v4.6413574h12.2007446L-98.4579773,241.8125763z M-98.4168396,218.6023712
		v12.4475098h-8.4213257L-98.4168396,218.6023712z"/>
	<path id="XMLID_546_" fill="#FFFFFF" d="M-84.3263245,212.5635529v29.2490234h4.6419678v-11.3793945
		c0-3.5737305,1.3557129-6.4499512,5.1758423-6.4499512c3.4921265,0,4.1084595,2.1369629,4.1084595,4.9709473v12.8583984h4.7238159
		v-14.378418c0-4.8884277-2.793396-7.3530273-7.3122559-7.3530273c-2.9164429,0-5.1759033,1.1916504-6.6958618,3.4511719v-10.96875
		H-84.3263245z"/>
</g>
<g id="XMLID_527_">
	<path id="XMLID_533_" fill="#FFFFFF" d="M376.4282227,35.1679153c-0.1272583-5.802248-0.2595825-11.8027363-0.2595825-18.4841328
		c0-1.3896475-0.9023438-2.6188955-2.2271729-3.0351553l-42.9353638-13.501709
		c-0.6210327-0.1958008-1.2879028-0.1958008-1.9089355,0l-42.9290161,13.501709
		c-1.3261108,0.4162598-2.2271729,1.6455078-2.2271729,3.0351553c0,6.6813965-0.1310425,12.6818848-0.2595825,18.4853535
		c-0.4492798,20.442627-0.7738037,35.2102051,5.854187,48.635498
		c10.7857056,21.8666992,29.2696533,31.9194336,39.3286743,35.9650879c0.3804932,0.1525879,0.7852173,0.2302246,1.1873779,0.2302246
		s0.805603-0.0776367,1.1873779-0.2302246c10.059021-4.0432129,28.546814-14.0908203,39.3325195-35.9638672
		C377.2020264,70.3793411,376.8775024,55.6102982,376.4282227,35.1679153z M364.8674927,80.9921341
		c-9.4417725,19.1445313-25.390625,28.3876953-34.8145752,32.3837891
		c-9.4227295-3.9973145-25.3690186-13.2456055-34.8095093-32.3852539
		c-5.9394531-12.0302734-5.6289673-26.144043-5.1987915-45.6804199c0.1081543-4.9187031,0.2290649-10.4191914,0.2557983-16.2897968
		l39.7512207-12.5024414l39.7600708,12.5024414c0.0267334,5.8706055,0.147644,11.369873,0.2557983,16.2885761
		C370.4976807,54.8456497,370.8069458,68.9618607,364.8674927,80.9921341z"/>
	<path id="XMLID_534_" fill="#FFFFFF" d="M347.8586426,42.5329056l-23.6109619,26.9838867l-12.1677246-12.1677246
		c-1.4663086-1.4663086-3.8364258-1.4663086-5.3026123,0s-1.4661865,3.8361816,0,5.3024902l15,15
		c0.0296631,0.0297852,0.0650635,0.0495605,0.095459,0.078125c0.0318604,0.0297852,0.0551758,0.0654297,0.0882568,0.0942383
		c0.0754395,0.065918,0.1594238,0.1137695,0.2385254,0.1723633c0.0811768,0.0605469,0.15979,0.1240234,0.2446289,0.177002
		c0.123291,0.0773926,0.2514648,0.1391602,0.3806152,0.2004395c0.083252,0.0397949,0.1638184,0.0852051,0.2492676,0.1184082
		c0.1472168,0.0568848,0.2979736,0.0957031,0.4494629,0.1333008c0.0732422,0.0183105,0.1442871,0.045166,0.2185059,0.0588379
		c0.227417,0.0422363,0.4570313,0.065918,0.6865234,0.065918c0.2498779,0,0.4992676-0.0273438,0.7451172-0.0771484
		c0.0931396-0.0187988,0.1817627-0.0554199,0.2734375-0.0812988c0.1488037-0.0419922,0.2976074-0.0812988,0.4412842-0.1420898
		c0.1134033-0.0476074,0.2188721-0.1135254,0.3280029-0.1728516c0.112915-0.0615234,0.2265625-0.1186523,0.3339844-0.192627
		c0.1171875-0.0803223,0.2237549-0.1772461,0.3330078-0.2722168c0.064209-0.0559082,0.135376-0.0993652,0.1965332-0.1604004
		c0.0233154-0.0234375,0.0386963-0.0512695,0.0612793-0.0749512c0.036377-0.0380859,0.0797119-0.0651855,0.1148682-0.1049805
		l26.25-30c1.3612061-1.5600586,1.2037354-3.9262695-0.3563232-5.2912598
		C351.5936279,40.8153763,349.227417,40.9689407,347.8586426,42.5329056z"/>
</g>
<g id="XMLID_554_">
	<g id="XMLID_555_">
		<path id="XMLID_559_" fill="#FFFFFF" d="M636.9806519,103.9843826h-74.6430664
			c-0.6610107,0-1.1889038,0.5508804-1.1889038,1.2210693v13.5827713c0,0.6702271,0.5278931,1.2117844,1.1889038,1.2117844
			h74.6430664c0.6747437,0,1.2026367-0.5415573,1.2026367-1.2117844V105.205452
			C638.1832886,104.5352631,637.6553955,103.9843826,636.9806519,103.9843826z"/>
		<path id="XMLID_556_" fill="#FFFFFF" d="M564.7199707,75.6209335c0.6610718,0.2570267,11.7282715,4.5443726,12.3800049,4.801384
			c0.6518555,0.2616882,1.3082275-0.13311,1.5194092-0.7160416c0.206543-0.5738678,4.8382568-13.270546,5.3339233-14.6844559
			h31.4528809c0.5141602,1.4139099,5.0906982,14.0830612,5.3201904,14.6844559
			c0.2203369,0.6105576,0.9042969,0.9502029,1.5147705,0.7160416c0.6105957-0.2294846,11.6364746-4.5168304,12.3893433-4.801384
			c0.74823-0.2891998,0.862915-1.087883,0.6931152-1.5745544c-0.6381226-1.744339-21.8590698-59.8576508-22.7633667-62.3409996
			c-2.152832-5.8481259-4.7188721-11.7053728-12.8850098-11.7053728c-8.1846313,0-10.8378296,5.9444404-12.9124756,11.7053728
			c-1.0651245,2.983592-21.9647827,60.1652641-22.7451782,62.3409996
			C563.7972412,74.6523819,564.0864258,75.3729324,564.7199707,75.6209335z M599.6017456,18.9764309h0.1376953
			l10.6679688,31.9255581h-21.4368286L599.6017456,18.9764309z"/>
	</g>
</g>
<g id="XMLID_549_">
	<path id="XMLID_553_" fill="#FFFFFF" d="M493.8634033,42.1800613c-1.5561523-1.3649902-3.9223633-1.2114258-5.2911377,0.3525391
		l-23.6109619,26.9838867l-12.1677246-12.1677246c-1.4663086-1.4663086-3.8364258-1.4663086-5.3026123,0
		s-1.4661865,3.8361816,0,5.3024902l15,15c0.0296631,0.0297852,0.0650635,0.0495605,0.095459,0.078125
		c0.0318604,0.0297852,0.0551758,0.0654297,0.0882568,0.0942383c0.0754395,0.065918,0.1594238,0.1137695,0.2385254,0.1723633
		c0.0811768,0.0605469,0.15979,0.1240234,0.2446289,0.177002c0.123291,0.0773926,0.2514648,0.1391602,0.3806152,0.2004395
		c0.083252,0.0397949,0.1638184,0.0852051,0.2492676,0.1184082c0.1472168,0.0568848,0.2979736,0.0957031,0.4494629,0.1333008
		c0.0732422,0.0183105,0.1442871,0.045166,0.2185059,0.0588379c0.227417,0.0422363,0.4570313,0.065918,0.6865234,0.065918
		c0.2498779,0,0.4992676-0.0273438,0.7451172-0.0771484c0.0931396-0.0187988,0.1817627-0.0554199,0.2734375-0.0812988
		c0.1488037-0.0419922,0.2976074-0.0812988,0.4412842-0.1420898c0.1134033-0.0476074,0.2188721-0.1135254,0.3280029-0.1728516
		c0.112915-0.0615234,0.2265625-0.1186523,0.3339844-0.192627c0.1171875-0.0803223,0.2237549-0.1772461,0.3330078-0.2722168
		c0.064209-0.0559082,0.135376-0.0993652,0.1965332-0.1604004c0.0233154-0.0234375,0.0386963-0.0512695,0.0612793-0.0749512
		c0.036377-0.0380859,0.0797119-0.0651855,0.1148682-0.1049805l26.25-30
		C495.5809326,45.9112625,495.4234619,43.5450516,493.8634033,42.1800613z"/>
	<path id="XMLID_550_" fill="#FFFFFF" d="M468.8922424,120.0000076c-4.9612427,0-9.457489-2.7149963-11.8912354-7.125
		c-0.1237488-0.1687469-0.2325134-0.3525009-0.3300171-0.5437546c-0.7424927-1.4999924-1.9012451-3.378746-3.1949768-3.7987518
		c-1.0125122-0.3337479-2.5687561,0.0562515-4.6312561,1.1362534c-0.2025146,0.1049957-0.4087524,0.1912537-0.6187439,0.2549973
		c-4.5262451,2.0962524-9.7237549,1.5787506-13.7287598-1.4174957c-3.9674988-2.9625015-6.0299988-7.8262482-5.4787598-12.8212509
		c-0.0037537-0.2062531,0.0075073-0.4125061,0.0412598-0.6262512c0.7537537-4.8937531-0.2062378-6.2737503-4.886261-7.03125
		c-0.2249756-0.0374985-0.446228-0.09375-0.65625-0.1687546c-4.8299866-1.0312424-8.707489-4.5599976-10.2224731-9.3524933
		c-1.5037537-4.7587509-0.3900146-9.9150009,2.8987427-13.6275024c0.1199951-0.1800003,0.258728-0.3525009,0.4125061-0.5100021
		c3.3787231-3.4724998,3.3787231-5.2724991,0-8.7449989c-0.1575012-0.1612511-0.3000183-0.3337479-0.4200134-0.517498
		c-3.28125-3.7124977-4.394989-8.8650017-2.8912659-13.6199989c1.5150146-4.7924995,5.4000244-8.3212509,10.2337646-9.3487511
		c0.2062378-0.0750008,0.4200134-0.1312485,0.6412659-0.164999c4.6799927-0.7649975,5.6362305-2.1449986,4.8862305-7.0387478
		c-0.0262451-0.210001-0.0412598-0.4200001-0.0375061-0.6337509c-0.5474854-4.9875011,1.5150146-9.8474998,5.4825134-12.8100014
		c4.0124817-2.999999,9.2250061-3.5137496,13.7512512-1.40625c0.2024841,0.0637503,0.4012451,0.1500006,0.5962524,0.2475004
		c2.0625,1.079999,3.6187439,1.4699993,4.6312561,1.1362495c1.2937317-0.4200001,2.4524841-2.2950001,3.1949768-3.7987499
		c0.0975037-0.1950002,0.210022-0.3787498,0.3337708-0.5512495c2.4337463-4.40625,6.926239-7.1174998,11.883728-7.1174998
		c4.9649963,0,9.46875,2.7225001,11.9024963,7.1475c0.116272,0.1612501,0.2250061,0.3375001,0.3150024,0.5212502
		c0.7462463,1.5,1.9049988,3.3787498,3.2025146,3.7987499c1.0012512,0.3299999,2.5650024-0.0524998,4.6312561-1.1362495
		c0.1949768-0.1012497,0.3974915-0.1875,0.6037292-0.2512503c4.5262756-2.1074996,9.7237549-1.5862503,13.7400208,1.40625
		c3.9637451,2.9625006,6.0224915,7.8187513,5.4824829,12.8100004c0.0037537,0.210001-0.011261,0.4237499-0.0449829,0.6375008
		c-0.7537537,4.8937492,0.2062378,6.2737503,4.886261,7.0349998c0.2249756,0.0375023,0.4387207,0.0900002,0.6524658,0.1650009
		c4.8300171,1.0312462,8.7112427,4.5562477,10.2262573,9.3487473c1.5,4.7625046,0.3900146,9.9225006-2.9025269,13.6350021
		c-0.1199951,0.1762466-0.2550049,0.3449974-0.4086914,0.5024986c-3.375,3.472496-3.375,5.2724953,0,8.7449989
		c0.1537476,0.1612473,0.2924805,0.3299942,0.4161987,0.5099945c3.2850342,3.7125015,4.3988037,8.8687515,2.8950195,13.6275101
		c-1.5112305,4.7924957-5.3962402,8.3249969-10.2337646,9.3524933c-0.2062378,0.0787506-0.4199829,0.1312485-0.6449585,0.1687546
		c-4.6800232,0.7574921-5.6362915,2.1374969-4.8825378,7.03125c0.0337524,0.2174988,0.0487671,0.4349976,0.0450134,0.6524963
		c0.5437317,4.9875031-1.5187683,9.840004-5.4825134,12.7950058c-4.0050049,3.003746-9.2024841,3.5174942-13.7399902,1.4137497
		c-0.2062683-0.0674973-0.4087524-0.1500015-0.6037598-0.2512512c-2.0699768-1.0837479-3.6412354-1.4662476-4.6312561-1.1362457
		c-1.2974854,0.4162521-2.4524841,2.2949982-3.2024841,3.7987518c-0.0899963,0.1875-0.198761,0.3637543-0.3187561,0.5325012
		C478.3535156,117.2812576,473.8535156,120.0000076,468.8922424,120.0000076z M463.1059875,108.4350052
		c0.116272,0.1650085,0.2212524,0.3375015,0.3112793,0.5212555c1.0724792,2.1862488,3.1724854,3.5437469,5.4749756,3.5437469
		c2.3025208,0,4.4024963-1.3574982,5.4787598-3.5437469c0.0862427-0.1800079,0.1912537-0.3487549,0.3037415-0.5100021
		c1.9837646-3.7874985,4.3837585-6.09375,7.3162537-7.0462494c2.9100037-0.9449997,6.1275024-0.5099945,9.8475037,1.3274994
		c0.1950073,0.0637512,0.3900146,0.1462479,0.573761,0.2437515c2.0849915,1.0987473,4.5262451,0.9112549,6.3824768-0.472496
		c1.9125061-1.4287491,2.8575134-3.847496,2.4675293-6.3225021c-0.033783-0.2099991-0.0487671-0.4162521-0.0450134-0.6225052
		c-1.0725098-8.3062439,2.4674988-13.2862473,10.5375061-14.8199921c0.1950073-0.0675049,0.397522-0.1162567,0.6074829-0.1500092
		c2.3400269-0.375,4.241272-2.0362473,4.9650269-4.3349991c0.7387085-2.340004,0.1312256-4.8862457-1.5862427-6.6412506
		c-0.1463013-0.1500015-0.28125-0.3112488-0.397522-0.4837494c-5.5987549-6.0599937-5.5950012-12.1987495,0.0075073-18.2587471
		c0.1124878-0.1687508,0.2437134-0.3262482,0.3900146-0.4762497c1.7174683-1.7550011,2.3249512-4.3012505,1.5862427-6.6450005
		c-0.7237549-2.298748-2.625-3.9599991-4.9612427-4.3312492c-0.2175293-0.0337486-0.4237671-0.0862465-0.6225281-0.1537514
		c-8.0587463-1.5374985-11.5987549-6.5212517-10.5262451-14.8312492c0-0.2024994,0.0150146-0.4049988,0.0450134-0.6075001
		c0.3899841-2.4750004-0.5550232-4.897501-2.4675293-6.3262501c-1.8599854-1.3874989-4.301239-1.57125-6.3824768-0.46875
		c-0.1875,0.0974998-0.3787537,0.1800003-0.573761,0.2437515c-3.7237549,1.829998-6.9525146,2.2687492-9.8475037,1.3274994
		c-2.9362488-0.9450054-5.3362427-3.2587528-7.3237305-7.050004c-0.1087646-0.1575003-0.210022-0.3224993-0.2962646-0.4987497
		c-1.0762634-2.1900005-3.176239-3.5475001-5.4787598-3.5475001c-2.3024902,0-4.4024963,1.3574996-5.4749756,3.5437493
		c-0.0900269,0.1837502-0.198761,0.3600006-0.3150024,0.5287504c-1.9837646,3.7762499-4.3800049,6.0787487-7.3087463,7.03125
		c-2.8912659,0.9375-6.1237793,0.5062504-9.855011-1.3349991c-0.1912537-0.0637512-0.3825073-0.1462498-0.5662537-0.2400017
		c-2.0812378-1.0987482-4.5262451-0.914999-6.3825073,0.46875c-1.9125061,1.428751-2.8612366,3.8549995-2.4712524,6.3262501
		c0.0299988,0.1987514,0.0450134,0.4012508,0.0450134,0.6037502c1.0725098,8.3099976-2.4674988,13.2975006-10.5337524,14.8350029
		c-0.198761,0.0674973-0.4012451,0.1199989-0.6149902,0.1537514c-2.3362732,0.375-4.2375183,2.0324974-4.9649963,4.3349991
		c-0.7387695,2.3400002-0.1312561,4.8862534,1.5899963,6.6412506c0.1499939,0.1537514,0.2850037,0.3149986,0.4049988,0.4912491
		c5.5874939,6.0562477,5.5874939,12.1875-0.0075073,18.2437515c-0.1162415,0.172493-0.2474976,0.3337479-0.3974915,0.4837418
		c-1.7174988,1.7587509-2.3287659,4.3012543-1.5899963,6.6412506c0.727478,2.3025055,2.6287231,3.9675064,4.96875,4.3387527
		c0.2137451,0.0337524,0.4199829,0.0824966,0.6187439,0.1537476c8.0625,1.5337524,11.602478,6.5212555,10.5224915,14.8387527
		c0,0.1987534-0.011261,0.3975067-0.0450134,0.5999985c-0.3899841,2.4674988,0.5587769,4.8937531,2.4712524,6.3225098
		c1.8600159,1.3874969,4.3012695,1.5749969,6.386261,0.46875c0.1875-0.0975037,0.386261-0.1800079,0.5849915-0.2437592
		c3.7200012-1.8337479,6.9412537-2.2687454,9.8362732-1.3274994
		C458.7222595,102.3487549,461.1184998,104.6550064,463.1059875,108.4350052z"/>
</g>
</svg>
