<?xml version="1.0" encoding="utf-8"?>
<!-- Generator: Adobe Illustrator 19.0.0, SVG Export Plug-In . SVG Version: 6.00 Build 0)  -->
<svg version="1.2" baseProfile="tiny" id="Layer_1" xmlns="http://www.w3.org/2000/svg" xmlns:xlink="http://www.w3.org/1999/xlink"
	 x="0px" y="0px" viewBox="0 0 93.1618805 119.9998779" xml:space="preserve">
<g id="XMLID_487_">
	<path id="XMLID_488_" fill="#FFFFFF" d="M-223.3130341-0.0000548h-0.1608429h-0.1608582
		c-32.9758911,0-59.8391418,27.024128-59.8391418,59.9999962c0,33.1367226,26.8632813,60.0000038,60,60.0000038
		s60-26.863266,60-59.9999962C-163.473877,27.0240726-190.3371582-0.0000548-223.3130341-0.0000548z M-242.6159821,9.973135
		c-4.9865875,5.790885-9.0080261,13.8337803-11.5817566,23.4852543c-4.3431854-1.6085796-8.3646088-3.6997299-11.74263-5.9517441
		C-259.9886169,19.624609-251.9457397,13.5120096-242.6159821,9.973135z M-269.6401062,32.8149567
		c4.0214539,2.7345848,8.6863403,4.9865913,13.833786,6.9168854c-1.1260223,5.3083115-1.7694244,11.0991974-1.9302826,17.0509415
		h-19.302948C-276.3961182,48.0964546-273.8224182,39.892704-269.6401062,32.8149567z M-277.0395508,63.2171021h19.302948
		c0.1608582,5.7908783,0.8042908,11.4209061,1.7694244,16.5683594c-5.1474457,1.9302979-9.9731903,4.182312-13.9946442,6.916893
		C-273.9832764,79.7854614-276.5569763,71.742569-277.0395508,63.2171021z M-266.262085,92.171524
		c3.3780212-2.4128723,7.3994751-4.3431625,11.9034882-6.1126022c2.5737152,9.8123245,6.7560272,18.0160751,11.7426147,23.9678268
		C-252.1065826,106.4878769-260.3103333,100.2144165-266.262085,92.171524z M-226.69104,113.2439041
		c-9.3297577-2.091156-17.3726501-13.5120621-21.5549622-29.1152725c6.5951691-1.7694397,13.9946442-2.8954468,21.5549622-3.2171631
		V113.2439041z M-226.69104,74.4771576c-8.0428925,0.3217163-15.924942,1.4477234-23.0026855,3.3780136
		c-0.9651337-4.6648865-1.4477234-9.651474-1.6085663-14.6380692h24.6112518V74.4771576z M-226.69104,56.7827835h-24.6112518
		c0.1608429-5.3083076,0.8042755-10.2949066,1.7694244-15.1206436c7.0777588,1.930294,14.7989349,3.0563011,22.8418274,3.2171593
		V56.7827835z M-226.69104,38.4449806c-7.560318-0.1608543-14.7989349-1.2868614-21.394104-3.0563011
		c4.182312-15.2815018,12.2252045-26.5415535,21.394104-28.6327057V38.4449806z M-220.2567291,6.7559767
		c9.1688995,2.0911512,17.2118073,13.3512087,21.394104,28.6327019c-6.5951691,1.7694359-13.8337708,2.8954391-21.3940887,3.0563011
		L-220.2567291,6.7559767z M-220.2567291,44.8792992c8.0428925-0.3217201,15.7640839-1.4477234,22.8418274-3.3780136
		c0.9651337,4.825737,1.6085663,9.9731903,1.7694244,15.1206436h-24.6112518V44.8792992z M-220.2567291,63.2171021h24.6112671
		c-0.1608582,5.1474533-0.6434326,9.9731903-1.6085815,14.6380692c-7.0777435-1.9302902-14.9597931-3.0562973-23.0026855-3.3780136
		V63.2171021z M-220.2567291,113.2439041V80.9114685c7.5603333,0.3217163,14.9597931,1.2868652,21.5549622,3.2171631
		C-202.884079,99.731842-210.9269714,110.99189-220.2567291,113.2439041z M-204.3317871,110.0267487
		c5.1474457-5.9517365,9.1688995-14.1555023,11.74263-23.9678268c4.5040283,1.6085739,8.3646088,3.6997299,11.9034882,6.1126022
		C-186.6374207,100.2144165-194.8411713,106.4878769-204.3317871,110.0267487z M-177.1468048,86.863205
		c-4.0214386-2.7345734-8.6863251-5.1474533-13.9946289-6.9168854c0.9651489-5.3083115,1.6085815-10.7774811,1.7694397-16.5683632
		h19.302948C-170.3907776,71.742569-172.9644928,79.7854614-177.1468048,86.863205z M-169.9082031,56.7827835h-19.302948
		c-0.1608429-5.9517441-0.8042755-11.7426224-1.9302826-17.2117958c5.1474457-1.930294,9.8123322-4.1823044,13.8337708-6.9168892
		C-173.125351,39.892704-170.5516357,48.0964546-169.9082031,56.7827835z M-192.5891724,33.2975349
		c-2.5737152-9.4906178-6.5951691-17.5335121-11.5817719-23.4852562c9.3297577,3.5388746,17.3726501,9.651473,23.3244019,17.5335121
		C-184.2245483,29.7586594-188.2460022,31.6889553-192.5891724,33.2975349z"/>
</g>
<path id="XMLID_498_" fill="#FFFFFF" d="M-183.4284515,267.0919495h-4.2017517v-47.6198425h3.0012512
	c2.6010895,0,4.802002-1.6006622,5.6023407-4.0016632s0.2000885-5.0020752-1.8007507-6.6027527l-47.0195923-38.2159119
	c-2.2009125-1.8007507-5.4022522-1.8007507-7.4030914,0l-47.2196808,38.4160004
	c-2.000824,1.6006622-2.6010742,4.2017517-1.8007507,6.6027527c0.800354,2.401001,3.0012512,4.0016632,5.602356,4.0016632h3.0012512
	v47.6198578h-4.2017517c-3.201355,0-6.0025024,2.6010742-6.0025024,6.0025024v10.0041504
	c0,3.2013245,2.6010742,6.0025024,6.0025024,6.0025024h96.6402588c3.2013245,0,6.0024872-2.6010742,6.0024872-6.0025024v-10.4043274
	C-177.4259491,269.6930237-180.0270233,267.0919495-183.4284515,267.0919495z M-231.6485443,177.8547668l41.2171783,33.6140137
	h-20.0083466h-9.6039886h-23.0095978h-9.6039886h-20.0083313L-231.6485443,177.8547668z M-195.4334564,219.4721069v47.6198425
	h-7.0029144v-47.6198425H-195.4334564z M-210.4397125,219.4721069v47.6198425h-9.6039886v-47.6198425H-210.4397125z
	 M-228.2471161,219.4721069v47.6198425h-7.0029297v-47.6198425H-228.2471161z M-243.053299,219.4721069v47.6198425h-9.6039886
	v-47.6198425H-243.053299z M-260.8607178,219.4721069v47.6198425h-7.0028992v-47.6198425H-260.8607178z M-185.4292908,281.2978821
	h-92.4385071v-6.2025757h2.000824h23.0095978h9.6040039h23.0095825h9.6040039h23.0095825h2.0008392v6.2025757H-185.4292908z
	 M-239.8519592,198.0632019c0-4.6019135,3.6015015-8.2034302,8.2034149-8.2034302s8.2034149,3.6015167,8.2034149,8.2034302
	s-3.6015015,8.2034149-8.2034149,8.2034149S-239.8519592,202.4650269-239.8519592,198.0632019z"/>
<g id="XMLID_508_">
	<path id="XMLID_511_" fill="#FFFFFF" d="M-355.9972839,31.9193687c1.1531982,0.95401,1.3144836,2.6628265,0.3591003,3.814682
		l-43.578186,52.633152c-0.5352783,0.6477509-1.3090515,0.9824677-2.0882568,0.9824677
		c-0.6084595,0-1.2209778-0.20327-1.7264099-0.6233597c-1.1532288-0.95401-1.3144836-2.6628189-0.3591309-3.814682
		l43.578186-52.6331558C-358.8606567,31.1266174-357.1504822,30.9640045-355.9972839,31.9193687z M-396.2134094,30.6875572
		c5.7484436,0,10.5821838,4.1236534,11.4928284,9.8070564c1.0177002,6.3447075-3.3146362,12.3330193-9.6593323,13.3507195
		c-0.6138611,0.0989265-1.2372437,0.1477089-1.8551636,0.1477089c-5.7484741,0-10.5835571-4.1250038-11.4942017-9.8084106
		c-0.4932556-3.0720711,0.2398682-6.1536331,2.0638733-8.6741714c1.8239746-2.5205383,4.5220337-4.1819248,7.5941162-4.6738358
		C-397.4560547,30.7363415-396.8313293,30.6875572-396.2134094,30.6875572z M-396.2134094,36.1080666
		c-0.3320007,0-0.6680603,0.0271034-0.9987183,0.0799522c-1.6424255,0.2628937-3.0842896,1.1518555-4.059967,2.5002098
		c-0.9770508,1.3483505-1.3686829,2.9961853-1.1044312,4.6399574c0.5393372,3.3674927,3.736084,5.7118607,7.1415405,5.1657448
		c3.3918762-0.5434074,5.709137-3.7482796,5.165741-7.1415215
		C-390.5584717,38.3142128-393.1413269,36.1080666-396.2134094,36.1080666z M-362.0574036,66.6648407
		c5.7497864,0,10.5835266,4.1236496,11.4941711,9.8070526c1.0177002,6.3419952-3.3146362,12.3316574-9.6593323,13.3507156
		c-0.6138611,0.0989227-1.2385864,0.1477127-1.8565369,0.1477127c-5.7484436,0-10.5821838-4.1250076-11.4928284-9.8084183
		c-0.4932556-3.0734253,0.2398682-6.1536331,2.0638733-8.6741714s4.5206909-4.1819229,7.5941162-4.6738358
		C-363.2987061,66.713623-362.6740112,66.6648407-362.0574036,66.6648407z M-362.0574036,72.08535
		c-0.330658,0-0.666748,0.0270996-0.9973755,0.0799484c-1.6437683,0.2628937-3.0856323,1.1518555-4.0613403,2.5002136
		c-0.9756775,1.3483505-1.3673096,2.9961853-1.1030579,4.6399612c0.487854,3.0395508,3.0707092,5.245697,6.141449,5.245697
		c0.3306274,0,0.6667175-0.027092,0.9973755-0.0799484c3.3918762-0.5447617,5.7104797-3.7482834,5.165741-7.1415253
		C-356.401123,74.2914963-358.9839783,72.08535-362.0574036,72.08535z M-379.1455688,0.6552204
		c-1.4960632,0-2.7102661,1.2141942-2.7102661,2.7102542s1.2142029,2.7102551,2.7102661,2.7102551
		c29.9144287,0,54.252533,24.338089,54.252533,54.2525291s-24.3381042,54.2538872-54.252533,54.2538872
		s-54.252533-24.338089-54.252533-54.2538834c0-20.7713928,11.9888-39.6767769,30.3494263-48.7087021l-2.0069275,5.856863
		c-0.4851379,1.4161072,0.2683105,2.9582424,1.6844177,3.4420223c0.2913513,0.1002789,0.5881348,0.147707,0.8781128,0.147707
		c1.1261292,0,2.1777039-0.7073746,2.5639038-1.8334885l3.992218-11.6486759
		c0.4851379-1.4161086-0.2683411-2.9582429-1.6844482-3.4420238L-409.27005,0.149757
		c-1.4201965-0.4919112-2.958252,0.2683152-3.4420471,1.6844237c-0.4851379,1.4161084,0.2683105,2.9582427,1.6844177,3.442024
		l5.0559998,1.7332082c-19.8973389,10.0360737-32.8482971,30.671957-32.8482971,53.3174973
		c0,32.9038582,26.7691956,59.6730385,59.6730347,59.6730385s59.6730347-26.7691803,59.6730347-59.6730385
		S-346.2417297,0.6552204-379.1455688,0.6552204z"/>
</g>
<path id="XMLID_523_" fill="#FFFFFF" d="M-39.2400017,66.4792709c-1.7897644,0-3.2399864,1.4502182-3.2399864,3.2399826v39.2932587
	c0,2.4844208-2.0230446,4.5074615-4.5087585,4.5074615h-69.4951096c-2.4857178,0-4.5087662-2.0217514-4.5087662-4.5074615
	V58.1382484c0-2.4844208,2.0230484-4.5074692,4.5087662-4.5074692h69.4951096c2.485714,0,4.50877,2.0217552,4.50877,4.5074692
	c0,1.7897682,1.450222,3.2399864,3.2399826,3.2399864c1.7897644,0,3.2399864-1.4502182,3.2399864-3.2399864
	c0-6.057476-4.9299622-10.9874382-10.988739-10.9874382h-7.7448616V27.0058746
	c0-14.890975-12.1136589-27.0059299-27.0033379-27.0059299s-27.003334,12.1149549-27.003334,27.0059299v20.1462288h-7.7448654
	c-6.0587692,0-10.9887314,4.928669-10.9887314,10.987442v50.8729668c0,6.0574722,4.9299622,10.9874344,10.9887314,10.9874344
	h69.4951172c6.0587769,0,10.988739-4.9286728,10.988739-10.9874344V69.7192535
	C-36.0000153,67.9294891-37.4502373,66.4792709-39.2400017,66.4792709z M-102.2590256,27.0058746
	c0-11.3179188,9.206749-20.525959,20.5233688-20.525959s20.523365,9.2080402,20.523365,20.525959v20.1462288h-41.0467339V27.0058746
	z M-81.7356567,101.2546844c1.7897644,0,3.2399826-1.4502182,3.2399826-3.2399826V86.8069382
	c4.1458893-1.4722519,7.1279678-5.4237366,7.1279678-10.0685806c0-5.8954773-4.7964706-10.6919556-10.6919479-10.6919556
	s-10.6919556,4.7964783-10.6919556,10.6919556c0,4.8833084,3.2957153,9.003273,7.7759628,10.2772293v10.9978104
	C-84.975647,99.8044662-83.5254288,101.2546844-81.7356567,101.2546844z M-86.271637,76.7396545
	c0-2.3224182,1.8895569-4.2119827,4.2119827-4.2119827c2.3224182,0,4.2119827,1.8895645,4.2119827,4.2119827
	c0,2.3224258-1.8895645,4.2119827-4.2119827,4.2119827C-84.3820801,80.9516373-86.271637,79.0620804-86.271637,76.7396545z"/>
<g id="XMLID_526_">
	<path id="XMLID_532_" fill="#FFFFFF" d="M-381.5428162,169.9565582c-1.4960327,0-2.7102661,1.2141113-2.7102661,2.7102051
		s1.2142334,2.7102051,2.7102661,2.7102051c29.9144287,0,54.2525635,24.3381348,54.2525635,54.2524414
		c0,29.914566-24.3381348,54.2539215-54.2525635,54.2539215s-54.2525024-24.3378906-54.2525024-54.2539215
		c0-20.7712402,11.9887695-39.6767578,30.3494263-48.7084961l-2.006958,5.8566895
		c-0.4851074,1.4162598,0.2683105,2.958252,1.6844482,3.4421387c0.2913208,0.1000977,0.5880737,0.1477051,0.8781128,0.1477051
		c1.1260986,0,2.1776733-0.7072754,2.5639038-1.8334961l3.9921875-11.6486816
		c0.4851074-1.4160156-0.2683105-2.958252-1.6844482-3.4421387l-11.6486816-3.9921875
		c-1.420166-0.4919434-2.9581909,0.2683105-3.4420166,1.6845703c-0.4851074,1.4160156,0.2683105,2.958252,1.6844482,3.4418945
		l5.0559692,1.7331543c-19.8973389,10.0361328-32.8482666,30.6721191-32.8482666,53.317627
		c0,32.9038239,26.769165,59.673111,59.6730347,59.673111c32.9038086,0,59.6730347-26.7692871,59.6730347-59.673111
		S-348.6389465,169.9565582-381.5428162,169.9565582z"/>
	<path id="XMLID_542_" fill="#FFFFFF" d="M-407.360199,231.8706207c4.026062-2.6694336,7.8873901-5.0522461,7.8873901-10.4753418
		c0-5.217041-3.6970825-8.626709-9.2838745-8.626709c-5.9157715,0-9.6539917,3.9440918-9.6539917,10.1054688v0.739502h4.5599976
		c0.0819092-3.3684082,0.7394409-6.8186035,4.970459-6.8186035c2.8757324,0,4.642395,1.8486328,4.642395,4.8474121
		c0,3.984375-3.4509277,5.791748-6.3266602,7.7226563c-4.8885498,3.286377-8.380188,5.8742676-8.5856323,12.4475098h19.6361084
		v-4.1491699h-14.0081177C-412.5361023,235.2802887-409.4553528,233.2268219-407.360199,231.8706207z"/>
	<path id="XMLID_545_" fill="#FFFFFF" d="M-381.9318542,241.8125153h4.5187988v-6.8195801h3.6563721v-3.9431152h-3.6563721
		v-18.2402344h-4.4364624l-12.3238525,17.5419922v4.6413574h12.2007446L-381.9318542,241.8125153z M-381.8907166,218.6023102
		v12.4475098h-8.4213257L-381.8907166,218.6023102z"/>
	<path id="XMLID_546_" fill="#FFFFFF" d="M-367.8002014,212.5634918v29.2490234h4.6419678v-11.3793945
		c0-3.5737305,1.3557129-6.4499512,5.1758423-6.4499512c3.4921265,0,4.1084595,2.1369629,4.1084595,4.9709473v12.8583984h4.7238159
		v-14.378418c0-4.8884277-2.793396-7.3530273-7.3122559-7.3530273c-2.9164429,0-5.1759033,1.1916504-6.6958618,3.4511719v-10.96875
		H-367.8002014z"/>
</g>
<g id="XMLID_527_">
	<path id="XMLID_533_" fill="#FFFFFF" d="M92.954361,35.1678543c-0.1272583-5.802248-0.2595825-11.8027363-0.2595825-18.4841328
		c0-1.3896475-0.9023438-2.6188955-2.2271729-3.0351553L47.5322418,0.1468568c-0.6210327-0.1958008-1.2879028-0.1958008-1.9089355,0
		L2.6942921,13.6485662c-1.326111,0.4162598-2.2271729,1.6455078-2.2271729,3.0351553
		c0,6.6813965-0.1310425,12.6818848-0.2595825,18.4853535c-0.4492798,20.442627-0.7738037,35.2102051,5.854187,48.635498
		c10.7857056,21.8666992,29.2696514,31.9194336,39.3286743,35.9650879c0.3804932,0.1525879,0.7852173,0.2302246,1.1873779,0.2302246
		s0.805603-0.0776367,1.1873779-0.2302246c10.059021-4.0432129,28.546814-14.0908203,39.3325195-35.9638672
		C93.7281647,70.3792801,93.4036407,55.6102371,92.954361,35.1678543z M81.393631,80.9920731
		c-9.4417725,19.1445313-25.390625,28.3876953-34.8145752,32.3837891
		c-9.4227295-3.9973145-25.3690166-13.2456055-34.8095093-32.3852539
		c-5.9394531-12.0302734-5.6289673-26.144043-5.1987915-45.6804199c0.1081543-4.9187031,0.2290649-10.4191914,0.2557983-16.2897968
		L46.577774,6.5179505l39.7600708,12.5024414c0.0267334,5.8706055,0.147644,11.369873,0.2557983,16.2885761
		C87.023819,54.8455887,87.3330841,68.9617996,81.393631,80.9920731z"/>
	<path id="XMLID_534_" fill="#FFFFFF" d="M64.3847809,42.5328445L40.773819,69.5167313L28.6060963,57.3490067
		c-1.4663086-1.4663086-3.8364258-1.4663086-5.3026123,0s-1.4661865,3.8361816,0,5.3024902l14.9999981,15
		c0.0296631,0.0297852,0.0650635,0.0495605,0.095459,0.078125c0.0318604,0.0297852,0.0551758,0.0654297,0.0882568,0.0942383
		c0.0754395,0.065918,0.1594238,0.1137695,0.2385254,0.1723633c0.0811768,0.0605469,0.15979,0.1240234,0.2446289,0.177002
		c0.123291,0.0773926,0.2514648,0.1391602,0.3806152,0.2004395c0.083252,0.0397949,0.1638184,0.0852051,0.2492676,0.1184082
		c0.1472168,0.0568848,0.2979736,0.0957031,0.4494629,0.1333008c0.0732422,0.0183105,0.1442871,0.045166,0.2185059,0.0588379
		c0.227417,0.0422363,0.4570313,0.065918,0.6865234,0.065918c0.2498779,0,0.4992676-0.0273438,0.7451172-0.0771484
		c0.0931396-0.0187988,0.1817627-0.0554199,0.2734375-0.0812988c0.1488037-0.0419922,0.2976074-0.0812988,0.4412842-0.1420898
		c0.1134033-0.0476074,0.2188721-0.1135254,0.3280029-0.1728516c0.112915-0.0615234,0.2265625-0.1186523,0.3339844-0.192627
		c0.1171875-0.0803223,0.2237549-0.1772461,0.3330078-0.2722168c0.064209-0.0559082,0.135376-0.0993652,0.1965332-0.1604004
		c0.0233154-0.0234375,0.0386963-0.0512695,0.0612793-0.0749512c0.036377-0.0380859,0.0797119-0.0651855,0.1148682-0.1049805
		l26.25-30c1.3612061-1.5600586,1.2037354-3.9262695-0.3563232-5.2912598
		C68.1197662,40.8153152,65.7535553,40.9688797,64.3847809,42.5328445z"/>
</g>
<g id="XMLID_554_">
	<g id="XMLID_555_">
		<path id="XMLID_559_" fill="#FFFFFF" d="M353.5068054,103.9843216H278.863739
			c-0.6610718,0-1.1889648,0.5508804-1.1889648,1.2210693v13.5827713c0,0.6702271,0.5278931,1.2117844,1.1889648,1.2117844
			h74.6430664c0.6747437,0,1.2026062-0.5415573,1.2026062-1.2117844v-13.5827713
			C354.7094116,104.535202,354.1815491,103.9843216,353.5068054,103.9843216z"/>
		<path id="XMLID_556_" fill="#FFFFFF" d="M281.2460938,75.6208725c0.6610413,0.2570267,11.7282715,4.5443726,12.3800049,4.801384
			c0.6518555,0.2616882,1.3082275-0.13311,1.5194397-0.7160416c0.206543-0.5738678,4.8382263-13.270546,5.3339233-14.6844559
			h31.4528503c0.5141602,1.4139099,5.0906982,14.0830612,5.3201904,14.6844559
			c0.2203674,0.6105576,0.9042969,0.9502029,1.514801,0.7160416c0.6105652-0.2294846,11.6364136-4.5168304,12.3893433-4.801384
			c0.7481995-0.2891998,0.8628845-1.087883,0.6930847-1.5745544c-0.638092-1.744339-21.8591003-59.8576508-22.7633667-62.3409996
			c-2.152832-5.8481259-4.7188721-11.7053728-12.8850403-11.7053728c-8.1846008,0-10.8377991,5.9444404-12.9124756,11.7053728
			c-1.065094,2.983592-21.9647217,60.1652641-22.7451172,62.3409996
			C280.3233643,74.6523209,280.6125488,75.3728714,281.2460938,75.6208725z M316.1278687,18.9763699h0.1376953
			l10.6679688,31.9255581h-21.4368591L316.1278687,18.9763699z"/>
	</g>
</g>
<g id="XMLID_549_">
	<path id="XMLID_553_" fill="#FFFFFF" d="M210.3895416,42.1800003c-1.5561523-1.3649902-3.9223633-1.2114258-5.2911377,0.3525391
		L181.487442,69.5164261l-12.1677246-12.1677246c-1.4663086-1.4663086-3.8364258-1.4663086-5.3026123,0
		s-1.4661865,3.8361816,0,5.3024902l15,15c0.0296631,0.0297852,0.0650635,0.0495605,0.095459,0.078125
		c0.0318604,0.0297852,0.0551758,0.0654297,0.0882568,0.0942383c0.0754395,0.065918,0.1594238,0.1137695,0.2385254,0.1723633
		c0.0811768,0.0605469,0.15979,0.1240234,0.2446289,0.177002c0.123291,0.0773926,0.2514648,0.1391602,0.3806152,0.2004395
		c0.083252,0.0397949,0.1638184,0.0852051,0.2492676,0.1184082c0.1472168,0.0568848,0.2979736,0.0957031,0.4494629,0.1333008
		c0.0732422,0.0183105,0.1442871,0.045166,0.2185059,0.0588379c0.227417,0.0422363,0.4570313,0.065918,0.6865234,0.065918
		c0.2498779,0,0.4992676-0.0273438,0.7451172-0.0771484c0.0931396-0.0187988,0.1817627-0.0554199,0.2734375-0.0812988
		c0.1488037-0.0419922,0.2976074-0.0812988,0.4412842-0.1420898c0.1134033-0.0476074,0.2188721-0.1135254,0.3280029-0.1728516
		c0.112915-0.0615234,0.2265625-0.1186523,0.3339844-0.192627c0.1171875-0.0803223,0.2237549-0.1772461,0.3330078-0.2722168
		c0.064209-0.0559082,0.135376-0.0993652,0.1965332-0.1604004c0.0233154-0.0234375,0.0386963-0.0512695,0.0612793-0.0749512
		c0.036377-0.0380859,0.0797119-0.0651855,0.1148682-0.1049805l26.25-30
		C212.1070709,45.9112015,211.9496002,43.5449905,210.3895416,42.1800003z"/>
	<path id="XMLID_550_" fill="#FFFFFF" d="M185.4183807,119.9999466c-4.9612579,0-9.4575043-2.7149963-11.8912506-7.125
		c-0.1237488-0.1687469-0.2324982-0.3525009-0.3300018-0.5437546c-0.7424927-1.4999924-1.9012451-3.378746-3.1949921-3.7987518
		c-1.0125122-0.3337479-2.5687561,0.0562515-4.6312561,1.1362534c-0.2024994,0.1049957-0.4087524,0.1912537-0.6187439,0.2549973
		c-4.5262604,2.0962524-9.7237549,1.5787506-13.7287598-1.4174957c-3.9674988-2.9625015-6.0299988-7.8262482-5.4787445-12.8212509
		c-0.0037537-0.2062531,0.0074921-0.4125061,0.0412445-0.6262512c0.7537537-4.8937531-0.2062531-6.2737503-4.8862457-7.03125
		c-0.2250061-0.0374985-0.4462433-0.09375-0.65625-0.1687546c-4.8300018-1.0312424-8.7075043-4.5599976-10.2225037-9.3524933
		c-1.5037537-4.7587509-0.3899994-9.9150009,2.8987579-13.6275024c0.1199951-0.1800003,0.2587433-0.3525009,0.4124908-0.5100021
		c3.3787537-3.4724998,3.3787537-5.2724991,0-8.7449989c-0.1575012-0.1612511-0.3000031-0.3337479-0.4199982-0.517498
		c-3.28125-3.7124977-4.3950043-8.8650017-2.8912506-13.6199989c1.5149994-4.7924995,5.4000092-8.3212509,10.2337494-9.3487511
		c0.2062531-0.0750008,0.4199982-0.1312485,0.6412506-0.164999c4.6800079-0.7649975,5.636261-2.1449986,4.886261-7.0387478
		c-0.0262604-0.210001-0.0412598-0.4200001-0.0375061-0.6337509c-0.5475006-4.9875011,1.5149994-9.8474998,5.4824982-12.8100014
		c4.0124969-2.999999,9.2249908-3.5137496,13.7512512-1.40625c0.2024994,0.0637503,0.4012451,0.1500006,0.5962524,0.2475004
		c2.0625,1.079999,3.6187439,1.4699993,4.6312408,1.1362495c1.2937622-0.4200001,2.4525146-2.2950001,3.1950073-3.7987499
		c0.0975037-0.1950002,0.2099915-0.3787498,0.3337555-0.5512495c2.4337463-4.40625,6.926239-7.1174998,11.8837433-7.1174998
		c4.9649963,0,9.46875,2.7225001,11.9024963,7.1475c0.1162567,0.1612501,0.2250061,0.3375001,0.3150024,0.5212502
		c0.7462463,1.5,1.9049988,3.3787498,3.2024994,3.7987499c1.0012512,0.3299999,2.5650024-0.0524998,4.6312561-1.1362495
		c0.1949921-0.1012497,0.3974915-0.1875,0.6037445-0.2512503c4.5262451-2.1074996,9.7237549-1.5862503,13.7399902,1.40625
		c3.9637604,2.9625006,6.0225067,7.8187513,5.4824982,12.8100004c0.0037537,0.210001-0.0112457,0.4237499-0.0449829,0.6375008
		c-0.7537537,4.8937492,0.2062378,6.2737503,4.8862457,7.0349998c0.2249908,0.0375023,0.4387512,0.0900002,0.6524963,0.1650009
		c4.8300018,1.0312462,8.7112427,4.5562477,10.2262421,9.3487473c1.5,4.7625046,0.3899994,9.9225006-2.9024963,13.6350021
		c-0.1199951,0.1762466-0.2550049,0.3449974-0.4087524,0.5024986c-3.375,3.472496-3.375,5.2724953,0,8.7449989
		c0.1537628,0.1612473,0.2924957,0.3299942,0.4162598,0.5099945c3.2849884,3.7125015,4.3987427,8.8687515,2.894989,13.6275101
		c-1.5112457,4.7924957-5.3962402,8.3249969-10.2337494,9.3524933c-0.2062531,0.0787506-0.4199982,0.1312485-0.6450043,0.1687546
		c-4.6799927,0.7574921-5.6362457,2.1374969-4.8824921,7.03125c0.0337524,0.2174988,0.0487518,0.4349976,0.0449982,0.6524963
		c0.5437469,4.9875031-1.5187531,9.840004-5.4824982,12.7950058c-4.0050049,3.003746-9.2025146,3.5174942-13.7400055,1.4137497
		c-0.2062531-0.0674973-0.4087524-0.1500015-0.6037445-0.2512512c-2.0700073-1.0837479-3.6412506-1.4662476-4.6312561-1.1362457
		c-1.2975006,0.4162521-2.4524994,2.2949982-3.2024994,3.7987518c-0.0899963,0.1875-0.1987457,0.3637543-0.3187408,0.5325012
		C194.8796387,117.2811966,190.3796234,119.9999466,185.4183807,119.9999466z M179.6321259,108.4349442
		c0.1162567,0.1650085,0.2212524,0.3375015,0.3112488,0.5212555c1.0725098,2.1862488,3.1725006,3.5437469,5.4750061,3.5437469
		s4.4024963-1.3574982,5.4787445-3.5437469c0.0862579-0.1800079,0.1912537-0.3487549,0.3037567-0.5100021
		c1.9837494-3.7874985,4.3837433-6.09375,7.3162537-7.0462494c2.9100037-0.9449997,6.1275024-0.5099945,9.8474884,1.3274994
		c0.1950073,0.0637512,0.3899994,0.1462479,0.5737457,0.2437515c2.0850067,1.0987473,4.5262604,0.9112549,6.3825073-0.472496
		c1.9125061-1.4287491,2.8574982-3.847496,2.4674988-6.3225021c-0.0337524-0.2099991-0.0487518-0.4162521-0.0449982-0.6225052
		c-1.0724945-8.3062439,2.4674988-13.2862473,10.5375061-14.8199921c0.1949921-0.0675049,0.3975067-0.1162567,0.6074982-0.1500092
		c2.3399963-0.375,4.2412567-2.0362473,4.9649963-4.3349991c0.7387543-2.340004,0.1312561-4.8862457-1.5862427-6.6412506
		c-0.1462555-0.1500015-0.2812653-0.3112488-0.3975067-0.4837494c-5.5987549-6.0599937-5.5950012-12.1987495,0.0075073-18.2587471
		c0.1125031-0.1687508,0.2437439-0.3262482,0.3899994-0.4762497c1.7174988-1.7550011,2.3249969-4.3012505,1.5862427-6.6450005
		c-0.7237549-2.298748-2.625-3.9599991-4.9612427-4.3312492c-0.217514-0.0337486-0.4237518-0.0862465-0.6225128-0.1537514
		c-8.0587463-1.5374985-11.5987396-6.5212517-10.5262451-14.8312492c0-0.2024994,0.0149994-0.4049988,0.0449982-0.6075001
		c0.3899994-2.4750004-0.5549927-4.897501-2.4674988-6.3262501c-1.8600006-1.3874989-4.3012543-1.57125-6.3825073-0.46875
		c-0.1874847,0.0974998-0.3787384,0.1800003-0.5737457,0.2437515c-3.7237396,1.829998-6.9524994,2.2687492-9.8474884,1.3274994
		c-2.936264-0.9450054-5.3362579-3.2587528-7.3237457-7.050004c-0.1087494-0.1575003-0.2100067-0.3224993-0.2962646-0.4987497
		c-1.0762482-2.1900005-3.176239-3.5475001-5.4787445-3.5475001s-4.4024963,1.3574996-5.4750061,3.5437493
		c-0.0899963,0.1837502-0.1987457,0.3600006-0.3149872,0.5287504c-1.9837646,3.7762499-4.3800049,6.0787487-7.3087616,7.03125
		c-2.8912506,0.9375-6.1237488,0.5062504-9.8549957-1.3349991c-0.1912537-0.0637512-0.3824921-0.1462498-0.5662537-0.2400017
		c-2.0812531-1.0987482-4.5262451-0.914999-6.3824921,0.46875c-1.9125061,1.428751-2.8612518,3.8549995-2.4712524,6.3262501
		c0.0299988,0.1987514,0.0449982,0.4012508,0.0449982,0.6037502c1.0724945,8.3099976-2.4674988,13.2975006-10.5337524,14.8350029
		c-0.1987457,0.0674973-0.4012451,0.1199989-0.6149902,0.1537514c-2.3362579,0.375-4.2375031,2.0324974-4.9650116,4.3349991
		c-0.738739,2.3400002-0.1312408,4.8862534,1.5900116,6.6412506c0.1499939,0.1537514,0.2849884,0.3149986,0.4049988,0.4912491
		c5.5874939,6.0562477,5.5874939,12.1875-0.0075073,18.2437515c-0.1162415,0.172493-0.2474976,0.3337479-0.3974915,0.4837418
		c-1.717514,1.7587509-2.3287506,4.3012543-1.5900116,6.6412506c0.7275085,2.3025055,2.6287537,3.9675064,4.96875,4.3387527
		c0.2137604,0.0337524,0.4199982,0.0824966,0.6187592,0.1537476c8.0625,1.5337524,11.6024933,6.5212555,10.5224915,14.8387527
		c0,0.1987534-0.0112457,0.3975067-0.0449982,0.5999985c-0.3899994,2.4674988,0.5587463,4.8937531,2.4712524,6.3225098
		c1.8600006,1.3874969,4.3012543,1.5749969,6.3862457,0.46875c0.1875-0.0975037,0.386261-0.1800079,0.5850067-0.2437592
		c3.7200012-1.8337479,6.9412537-2.2687454,9.8362427-1.3274994
		C175.2483826,102.3486938,177.6446228,104.6549454,179.6321259,108.4349442z"/>
</g>
</svg>
