<?xml version="1.0" encoding="utf-8"?>
<!-- Generator: Adobe Illustrator 19.0.0, SVG Export Plug-In . SVG Version: 6.00 Build 0)  -->
<svg version="1.2" baseProfile="tiny" id="Layer_1" xmlns="http://www.w3.org/2000/svg" xmlns:xlink="http://www.w3.org/1999/xlink"
	 x="0px" y="0px" viewBox="0 0 119.3460846 120" xml:space="preserve">
<g id="XMLID_487_">
	<path id="XMLID_488_" fill="#FFFFFF" d="M215.5069427,0.000002h-0.1608582h-0.1608582
		c-32.9758606,0-59.8391418,27.024128-59.8391418,59.9999962c0,33.1367264,26.8632813,60,60,60
		s60.0000153-26.863266,60.0000153-59.9999924C275.3460999,27.0241299,248.4828186,0.000002,215.5069427,0.000002z
		 M196.2039948,9.9731913c-4.9865875,5.7908859-9.0080414,13.8337812-11.5817719,23.4852562
		c-4.3431702-1.6085796-8.3646088-3.6997318-11.74263-5.9517441
		C178.8313446,19.6246662,186.8742371,13.5120668,196.2039948,9.9731913z M169.1798706,32.8150101
		c4.0214386,2.7345886,8.6863251,4.9865952,13.8337708,6.9168892c-1.1260071,5.3083115-1.7694244,11.0991974-1.9302826,17.0509415
		h-19.302948C162.4238434,48.0965118,164.9975586,39.8927612,169.1798706,32.8150101z M161.7804108,63.2171593h19.302948
		c0.1608582,5.7908821,0.8042908,11.4209099,1.7694397,16.5683632c-5.1474609,1.9302902-9.9731903,4.1823044-13.9946442,6.9168854
		C164.8367004,79.7855225,162.2629852,71.7426224,161.7804108,63.2171593z M172.5578918,92.1715775
		c3.378006-2.4128647,7.3994598-4.3431549,11.9034729-6.1126022c2.5737305,9.8123322,6.7560425,18.0160828,11.74263,23.9678268
		C186.7133789,106.4879379,178.5096283,100.2144775,172.5578918,92.1715775z M212.1289368,113.2439651
		c-9.3297577-2.0911636-17.3726654-13.5120697-21.5549622-29.1152802
		c6.5951691-1.7694321,13.9946289-2.8954391,21.5549622-3.2171555V113.2439651z M212.1289368,74.477211
		c-8.0429077,0.3217163-15.924942,1.4477234-23.0026855,3.3780136c-0.9651489-4.6648788-1.4477234-9.651474-1.6085815-14.6380653
		h24.6112671V74.477211z M212.1289368,56.7828407h-24.6112671c0.1608582-5.3083076,0.8042908-10.2949066,1.7694397-15.1206436
		c7.0777435,1.930294,14.7989197,3.0563011,22.8418274,3.2171593V56.7828407z M212.1289368,38.4450378
		c-7.5603333-0.1608543-14.7989349-1.2868614-21.394104-3.0563011c4.1822968-15.2815018,12.2251892-26.5415535,21.394104-28.6327057
		V38.4450378z M218.5632477,6.7560334c9.1688995,2.0911517,17.211792,13.3512077,21.394104,28.6327038
		c-6.5951691,1.7694321-13.8337708,2.8954391-21.394104,3.0563011V6.7560334z M218.5632477,44.8793564
		c8.0428925-0.3217201,15.7640686-1.4477272,22.8418121-3.3780136c0.9651489,4.825737,1.6085815,9.9731903,1.7694397,15.1206436
		h-24.6112518V44.8793564z M218.5632477,63.2171593h24.6112671c-0.1608582,5.1474495-0.6434326,9.9731865-1.6085815,14.6380653
		c-7.0777588-1.9302902-14.9597931-3.0562973-23.0026855-3.3780136V63.2171593z M218.5632477,113.2439651V80.9115295
		c7.560318,0.3217163,14.9597778,1.2868576,21.5549622,3.2171555
		C235.9358978,99.7318954,227.8930054,110.991951,218.5632477,113.2439651z M234.4881744,110.0268021
		c5.1474609-5.9517365,9.1688995-14.1554947,11.74263-23.9678268c4.5040283,1.6085815,8.3646088,3.6997375,11.9035034,6.1126022
		C252.1825562,100.2144775,243.9788055,106.4879379,234.4881744,110.0268021z M261.6731567,86.863266
		c-4.0214233-2.734581-8.6863251-5.1474533-13.9946289-6.916893c0.9651489-5.3083038,1.6085815-10.7774811,1.7694397-16.5683594
		h19.302948C268.4291992,71.7426224,265.8554688,79.7855225,261.6731567,86.863266z M268.9117737,56.7828407h-19.302948
		c-0.1608582-5.9517441-0.8042908-11.7426262-1.9302979-17.2117958c5.1474609-1.9302979,9.8123474-4.1823044,13.8337708-6.9168892
		C265.6946106,39.8927612,268.2683411,48.0965118,268.9117737,56.7828407z M246.2308044,33.2975922
		c-2.5737305-9.4906178-6.5951691-17.5335121-11.5817719-23.4852562c9.3297577,3.5388756,17.3726501,9.651474,23.3243866,17.5335102
		C254.5954132,29.7587147,250.5739746,31.6890106,246.2308044,33.2975922z"/>
</g>
<path id="XMLID_498_" fill="#FFFFFF" d="M255.3915253,267.0920105h-4.2017517V219.472168h3.0012512
	c2.6010895,0,4.8019867-1.6006622,5.6023407-4.0016632c0.8003235-2.401001,0.2000732-5.0020905-1.8007507-6.6027527
	l-47.0195923-38.2159271c-2.2009125-1.8007355-5.4022522-1.8007355-7.4030914,0l-47.2196808,38.4160156
	c-2.000824,1.6006622-2.6010742,4.2017517-1.8007507,6.6027527c0.8003387,2.401001,3.0012512,4.0016632,5.6023407,4.0016632
	h3.0012512v47.6198273h-4.2017517c-3.2013397,0-6.0025024,2.6011047-6.0025024,6.0025024v10.0041809
	c0,3.2013245,2.6010742,6.0025024,6.0025024,6.0025024h96.6402588c3.2013397,0,6.0025177-2.6011047,6.0025177-6.0025024v-10.4043274
	C261.3940125,269.6930847,258.7929382,267.0920105,255.3915253,267.0920105z M207.1714325,177.8548279l41.2171631,33.6140137
	h-20.0083313h-9.6040039h-23.0095825h-9.6040039h-20.0083313L207.1714325,177.8548279z M243.3865204,219.472168v47.6198425
	h-7.0029144V219.472168H243.3865204z M228.3802643,219.472168v47.6198425h-9.6040039V219.472168H228.3802643z
	 M210.5728455,219.472168v47.6198425h-7.0029144V219.472168H210.5728455z M195.7666779,219.472168v47.6198425h-9.6040039V219.472168
	H195.7666779z M177.959259,219.472168v47.6198425h-7.0029144V219.472168H177.959259z M253.390686,281.2979431h-92.4385223
	v-6.2025757h2.0008392h23.0095978h9.6039886h23.0095978h9.6040039h23.0095825h2.0008392v6.2025757H253.390686z
	 M198.9680176,198.0632477c0-4.6019135,3.6015015-8.2034149,8.2034149-8.2034149s8.2034149,3.6015015,8.2034149,8.2034149
	c0,4.6019287-3.6015015,8.2034149-8.2034149,8.2034149S198.9680176,202.4650879,198.9680176,198.0632477z"/>
<g id="XMLID_508_">
	<path id="XMLID_511_" fill="#FFFFFF" d="M82.8226852,31.919426c1.1532135,0.95401,1.314476,2.6628265,0.359108,3.814682
		L39.6035995,88.3672638c-0.5352745,0.6477432-1.3090515,0.98246-2.0882492,0.98246
		c-0.6084557,0-1.220974-0.20327-1.7264328-0.6233521c-1.1532135-0.9540176-1.3144722-2.6628265-0.359108-3.8146896
		l43.578186-52.6331558C79.9593048,31.1266747,81.6694717,30.9640598,82.8226852,31.919426z M42.6065636,30.6876144
		c5.7484512,0,10.5821877,4.1236496,11.492836,9.8070564c1.0177002,6.3447075-3.31464,12.3330193-9.6593475,13.3507195
		c-0.6138725,0.0989265-1.2372284,0.1477089-1.8551674,0.1477089c-5.748455,0-10.5835457-4.1250076-11.494194-9.8084106
		c-0.4932671-3.0720711,0.2398586-6.1536369,2.0638618-8.6741714c1.8240013-2.5205383,4.5220566-4.1819267,7.5941315-4.6738358
		C41.3639107,30.7363968,41.9886284,30.6876144,42.6065636,30.6876144z M42.6065636,36.1081238
		c-0.3320045,0-0.6680794,0.0271034-0.9987297,0.0799484c-1.6424141,0.2628975-3.0842705,1.1518593-4.0599594,2.5002136
		c-0.977047,1.3483505-1.3686752,2.9961853-1.1044273,4.6399574c0.539341,3.3674927,3.7360878,5.7118607,7.1415253,5.1657448
		c3.39188-0.5434074,5.7091522-3.7482796,5.1657448-7.1415215C48.2615128,38.31427,45.6786423,36.1081238,42.6065636,36.1081238z
		 M76.762558,66.6648941c5.7498016,0,10.5835419,4.1236496,11.494194,9.8070602
		c1.0177002,6.3419952-3.3146439,12.3316574-9.6593475,13.350708c-0.6138763,0.0989227-1.2385864,0.1477127-1.8565216,0.1477127
		c-5.7484512,0-10.5821991-4.1250076-11.492836-9.8084106c-0.4932632-3.0734329,0.2398529-6.1536331,2.063858-8.6741714
		c1.8239975-2.5205383,4.5206985-4.1819229,7.5941315-4.6738358C75.5212555,66.7136765,76.1459732,66.6648941,76.762558,66.6648941z
		 M76.762558,72.0854034c-0.3306503,0-0.6667252,0.0271072-0.9973755,0.0799484
		c-1.6437759,0.2629013-3.0856247,1.1518555-4.0613174,2.5002136s-1.3673248,2.9961853-1.1030731,4.6399612
		c0.4878464,3.0395584,3.0707169,5.2457047,6.1414337,5.2457047c0.3306503,0,0.6667252-0.0270996,0.9973755-0.0799484
		c3.3918839-0.5447617,5.7105026-3.7482834,5.165741-7.1415253C82.4188538,74.2915497,79.8359833,72.0854034,76.762558,72.0854034z
		 M59.6743965,0.6552772c-1.4960594,0-2.7102547,1.2141941-2.7102547,2.7102544s1.2141953,2.7102549,2.7102547,2.7102549
		c29.9144325,0,54.2525368,24.338089,54.2525368,54.2525291s-24.3381042,54.253891-54.2525368,54.253891
		S5.4218659,90.2441177,5.4218659,60.3283195c0-20.7713928,11.9888134-39.6767769,30.3494358-48.7087021l-2.0069427,5.8568611
		c-0.4851341,1.4161091,0.2683144,2.9582443,1.6844254,3.4420223c0.2913513,0.1002789,0.5881233,0.1477089,0.8781204,0.1477089
		c1.1261139,0,2.1776886-0.7073765,2.5639-1.8334885L42.883007,7.5840435
		c0.4851379-1.4161081-0.2683182-2.9582429-1.6844215-3.4420238L29.5499077,0.1498138
		c-1.4201756-0.4919112-2.9582443,0.2683152-3.4420261,1.6844236c-0.485136,1.4161084,0.2683144,2.9582427,1.6844234,3.442024
		l5.0559807,1.7332082C12.9509478,17.0455437-0.0000065,37.681427-0.0000065,60.3269653
		c0,32.9038544,26.7691879,59.6730423,59.6730385,59.6730423s59.6730461-26.7691879,59.6730461-59.6730423
		S92.5782471,0.6552772,59.6743965,0.6552772z"/>
</g>
<path id="XMLID_523_" fill="#FFFFFF" d="M399.5799561,66.4793243c-1.7897644,0-3.2399597,1.4502182-3.2399597,3.2399902v39.293251
	c0,2.4844208-2.0230713,4.5074615-4.5087891,4.5074615h-69.4950867c-2.4857178,0-4.5087891-2.0217438-4.5087891-4.5074615
	V58.1383057c0-2.4844208,2.0230713-4.5074692,4.5087891-4.5074692h69.4950867c2.4857178,0,4.5087891,2.0217552,4.5087891,4.5074692
	c0,1.7897682,1.4502258,3.2399864,3.2399902,3.2399864s3.2399902-1.4502182,3.2399902-3.2399864
	c0-6.057476-4.9299622-10.987442-10.9887695-10.987442h-7.7448425V27.0059299
	c0-14.890974-12.1136475-27.005928-27.0033264-27.005928s-27.0033569,12.114954-27.0033569,27.005928v20.1462307h-7.7448425
	c-6.0587769,0-10.988739,4.928669-10.988739,10.987442v50.872963c0,6.0574722,4.9299622,10.9874344,10.988739,10.9874344h69.4950867
	c6.0587769,0,10.988739-4.9286652,10.988739-10.9874344v-39.293251
	C402.8199463,67.9295425,401.3697205,66.4793243,399.5799561,66.4793243z M336.5609436,27.0059299
	c0-11.3179178,9.2067566-20.525959,20.5233765-20.525959s20.5233459,9.2080402,20.5233459,20.525959v20.1462307h-41.0467224
	V27.0059299z M357.0843201,101.2547455c1.7897644,0,3.2399902-1.4502258,3.2399902-3.2399902V86.8069916
	c4.145874-1.4722519,7.1279602-5.4237289,7.1279602-10.0685806c0-5.8954773-4.7964783-10.6919479-10.6919556-10.6919479
	s-10.6919556,4.7964706-10.6919556,10.6919479c0,4.8833084,3.2957153,9.0032806,7.7759705,10.2772369v10.9978027
	C353.8443298,99.8045197,355.2945557,101.2547455,357.0843201,101.2547455z M352.5483398,76.7397156
	c0-2.3224258,1.8895569-4.2119827,4.2119751-4.2119827s4.2119751,1.8895569,4.2119751,4.2119827
	c0,2.3224182-1.8895569,4.2119827-4.2119751,4.2119827S352.5483398,79.0621338,352.5483398,76.7397156z"/>
<g id="XMLID_526_">
	<path id="XMLID_532_" fill="#FFFFFF" d="M57.2771568,169.9566193c-1.4960327,0-2.7102661,1.2141113-2.7102661,2.7102051
		s1.2142334,2.7102051,2.7102661,2.7102051c29.9144325,0,54.2525673,24.3381348,54.2525673,54.2524414
		c0,29.914566-24.3381348,54.2539215-54.2525673,54.2539215S3.0246558,259.5455017,3.0246558,229.6294708
		c0-20.7712402,11.9887695-39.6767578,30.3494244-48.7084961l-2.0069561,5.8566895
		c-0.4851074,1.4162598,0.2683105,2.958252,1.6844463,3.4421387c0.2913208,0.1000977,0.5880737,0.1477051,0.8781128,0.1477051
		c1.1260986,0,2.1776733-0.7072754,2.5639038-1.8334961l3.9921875-11.6486816
		c0.4851074-1.4160156-0.2683105-2.958252-1.6844482-3.4421387L27.152647,169.451004
		c-1.420166-0.4919434-2.9581909,0.2683105-3.4420166,1.6845703c-0.4851074,1.4160156,0.2683105,2.958252,1.6844482,3.4418945
		l5.0559692,1.7331543c-19.8973389,10.0361328-32.8482666,30.6721191-32.8482666,53.317627
		c0,32.9038239,26.769165,59.673111,59.6730347,59.673111c32.9038124,0,59.6730385-26.7692871,59.6730385-59.673111
		S90.1810303,169.9566193,57.2771568,169.9566193z"/>
	<path id="XMLID_542_" fill="#FFFFFF" d="M31.4597759,231.8706818c4.0260601-2.6694336,7.8873882-5.0522461,7.8873882-10.4753418
		c0-5.217041-3.6970825-8.626709-9.2838726-8.626709c-5.9157715,0-9.6539917,3.9440918-9.6539917,10.1054688v0.739502h4.5599976
		c0.0819092-3.3684082,0.7394409-6.8186035,4.970459-6.8186035c2.8757305,0,4.6423931,1.8486328,4.6423931,4.8474121
		c0,3.984375-3.4509258,5.791748-6.3266582,7.7226563c-4.8885498,3.286377-8.380188,5.8742676-8.5856323,12.4475098h19.6361065
		v-4.1491699H25.2978497C26.2838726,235.2803497,29.3646221,233.2268829,31.4597759,231.8706818z"/>
	<path id="XMLID_545_" fill="#FFFFFF" d="M56.8881187,241.8125763h4.5187988v-6.8195801h3.6563759v-3.9431152h-3.6563759
		v-18.2402344h-4.4364624l-12.3238525,17.5419922v4.6413574h12.2007446L56.8881187,241.8125763z M56.9292564,218.6023712v12.4475098
		h-8.4213257L56.9292564,218.6023712z"/>
	<path id="XMLID_546_" fill="#FFFFFF" d="M71.0197754,212.5635529v29.2490234h4.6419678v-11.3793945
		c0-3.5737305,1.3557129-6.4499512,5.1758423-6.4499512c3.4921265,0,4.1084595,2.1369629,4.1084595,4.9709473v12.8583984h4.7238159
		v-14.378418c0-4.8884277-2.793396-7.3530273-7.3122559-7.3530273c-2.9164429,0-5.1759033,1.1916504-6.6958618,3.4511719v-10.96875
		H71.0197754z"/>
</g>
<g id="XMLID_527_">
	<path id="XMLID_533_" fill="#FFFFFF" d="M531.774353,35.1679115c-0.1272583-5.802248-0.2595825-11.8027363-0.2595825-18.4841328
		c0-1.3896484-0.9023438-2.6188965-2.2271729-3.0351563l-42.9353943-13.501709
		c-0.6210327-0.1958008-1.2879028-0.1958008-1.9089355,0l-42.9290161,13.501709
		c-1.3261108,0.4162598-2.2271729,1.6455078-2.2271729,3.0351563c0,6.6813965-0.1310425,12.6818848-0.2595825,18.4853535
		c-0.4492798,20.442627-0.7738037,35.2102013,5.854187,48.6354942
		c10.7857056,21.8666992,29.2696533,31.9194336,39.3286743,35.9650879c0.3804932,0.1525879,0.7852173,0.2302246,1.1873779,0.2302246
		s0.805603-0.0776367,1.1873779-0.2302246c10.059021-4.0432129,28.5468445-14.0908203,39.33255-35.9638672
		C532.5481567,70.3793335,532.2236328,55.6102943,531.774353,35.1679115z M520.213623,80.9921265
		c-9.441803,19.1445313-25.3906555,28.3876953-34.8146057,32.3837891
		c-9.4227295-3.9973145-25.3690186-13.2456055-34.8095093-32.3852539
		c-5.9394531-12.0302734-5.6289673-26.1440392-5.1987915-45.6804161c0.1081543-4.9187031,0.2290649-10.4191914,0.2557983-16.2897968
		l39.7512207-12.5024414l39.7601013,12.5024414c0.0267334,5.8706055,0.147644,11.369873,0.2557983,16.2885761
		C525.843811,54.8456459,526.1530762,68.961853,520.213623,80.9921265z"/>
	<path id="XMLID_534_" fill="#FFFFFF" d="M503.2047424,42.5329018l-23.6109619,26.9838829l-12.1677246-12.1677208
		c-1.4663086-1.4663086-3.8364258-1.4663086-5.3026123,0s-1.4661865,3.8361816,0,5.3024902l15,14.9999962
		c0.0296631,0.0297852,0.0650635,0.0495605,0.095459,0.078125c0.0318604,0.0297852,0.0551758,0.0654297,0.0882568,0.0942383
		c0.0754395,0.065918,0.1594238,0.1137695,0.2385254,0.1723633c0.0811768,0.0605469,0.15979,0.1240234,0.2446289,0.177002
		c0.123291,0.0773926,0.2514648,0.1391602,0.3806152,0.2004395c0.083252,0.0397949,0.1638184,0.0852051,0.2492676,0.1184082
		c0.1472168,0.0568848,0.2979736,0.0957031,0.4494629,0.1333008c0.0732422,0.0183105,0.1442871,0.045166,0.2185059,0.0588379
		c0.227417,0.0422363,0.4570313,0.065918,0.6865234,0.065918c0.2498779,0,0.4992676-0.0273438,0.7451172-0.0771484
		c0.0931396-0.0187988,0.1817627-0.0554199,0.2734375-0.0812988c0.1488037-0.0419922,0.2976074-0.0812988,0.4412842-0.1420898
		c0.1134033-0.0476074,0.2188721-0.1135254,0.3280029-0.1728516c0.112915-0.0615234,0.2265625-0.1186523,0.3339844-0.192627
		c0.1171875-0.0803223,0.2237549-0.1772461,0.3330078-0.2722168c0.064209-0.0559082,0.135376-0.0993652,0.1965332-0.1604004
		c0.0233154-0.0234375,0.0386963-0.0512695,0.0612793-0.0749512c0.036377-0.0380859,0.0797119-0.0651855,0.1148682-0.1049805
		l26.25-29.9999962c1.3612061-1.5600586,1.2037354-3.9262695-0.3563232-5.2912598
		C506.9397278,40.8153725,504.5735168,40.9689369,503.2047424,42.5329018z"/>
</g>
<g id="XMLID_554_">
	<g id="XMLID_555_">
		<path id="XMLID_559_" fill="#FFFFFF" d="M792.3267822,103.984375h-74.6430664
			c-0.6610718,0-1.1889648,0.5508881-1.1889648,1.2210693v13.5827713c0,0.6702271,0.5278931,1.2117844,1.1889648,1.2117844
			h74.6430664c0.6747437,0,1.2026367-0.5415573,1.2026367-1.2117844v-13.5827713
			C793.5294189,104.5352631,793.0015259,103.984375,792.3267822,103.984375z"/>
		<path id="XMLID_556_" fill="#FFFFFF" d="M720.06604,75.6209259c0.6610718,0.2570267,11.7282715,4.5443726,12.3800049,4.8013916
			c0.6519165,0.2616806,1.3082886-0.1331177,1.5194702-0.7160416c0.206543-0.5738678,4.8381958-13.2705536,5.3339233-14.6844635
			h31.4528198c0.5141602,1.4139099,5.0906982,14.0830612,5.3201904,14.6844635
			c0.2203979,0.6105499,0.9042969,0.9501953,1.5148315,0.7160416c0.6105347-0.2294846,11.6364136-4.5168304,12.3893433-4.8013916
			c0.7481689-0.2891998,0.862915-1.087883,0.6930542-1.5745468c-0.6380615-1.744339-21.8590698-59.8576546-22.7633667-62.3410034
			C765.753479,5.8572497,763.187439,0.000002,755.0213013,0.000002c-8.1846313,0-10.8377686,5.9444404-12.9124756,11.7053738
			c-1.0651245,2.983592-21.9647217,60.1652603-22.7451172,62.3410034
			C719.1433105,74.6523743,719.4324951,75.3729324,720.06604,75.6209259z M754.947876,18.9764252h0.1376343l10.6679688,31.92556
			h-21.4368286L754.947876,18.9764252z"/>
	</g>
</g>
<g id="XMLID_549_">
	<path id="XMLID_553_" fill="#FFFFFF" d="M649.2095337,42.1800537c-1.5561523-1.3649902-3.9223633-1.2114258-5.2911377,0.3525391
		l-23.6109619,26.9838867l-12.1677246-12.1677246c-1.4663086-1.4663086-3.8364258-1.4663086-5.3026123,0
		s-1.4661865,3.8361816,0,5.3024902l15,15c0.0296631,0.0297852,0.0650635,0.0495605,0.095459,0.078125
		c0.0318604,0.0297852,0.0551758,0.0654297,0.0882568,0.0942383c0.0754395,0.065918,0.1594238,0.1137695,0.2385254,0.1723633
		c0.0811768,0.0605469,0.15979,0.1240234,0.2446289,0.177002c0.123291,0.0773926,0.2514648,0.1391602,0.3806152,0.2004395
		c0.083252,0.0397949,0.1638184,0.0852051,0.2492676,0.1184082c0.1472168,0.0568848,0.2979736,0.0957031,0.4494629,0.1333008
		c0.0732422,0.0183105,0.1442871,0.045166,0.2185059,0.0588379c0.227417,0.0422363,0.4570313,0.065918,0.6865234,0.065918
		c0.2498779,0,0.4992676-0.0273438,0.7451172-0.0771484c0.0931396-0.0187988,0.1817627-0.0554199,0.2734375-0.0812988
		c0.1488037-0.0419922,0.2976074-0.0812988,0.4412842-0.1420898c0.1134033-0.0476074,0.2188721-0.1135254,0.3280029-0.1728516
		c0.112915-0.0615234,0.2265625-0.1186523,0.3339844-0.192627c0.1171875-0.0803223,0.2237549-0.1772461,0.3330078-0.2722168
		c0.064209-0.0559082,0.135376-0.0993652,0.1965332-0.1604004c0.0233154-0.0234375,0.0386963-0.0512695,0.0612793-0.0749512
		c0.036377-0.0380859,0.0797119-0.0651855,0.1148682-0.1049805l26.25-30
		C650.927063,45.9112549,650.7695923,43.5450439,649.2095337,42.1800537z"/>
	<path id="XMLID_550_" fill="#FFFFFF" d="M624.2383423,120c-4.9612427,0-9.4575195-2.7149963-11.8912354-7.125
		c-0.1237793-0.1687469-0.2324829-0.3524933-0.3300171-0.5437469c-0.7424927-1.5-1.9012451-3.378746-3.1950073-3.7987518
		c-1.0125122-0.3337555-2.5687256,0.0562439-4.6312256,1.1362457c-0.2025146,0.1050034-0.4087524,0.1912537-0.6187744,0.2550049
		c-4.5262451,2.0962524-9.7237549,1.5787506-13.7287598-1.4175034c-3.9674683-2.9625015-6.0299683-7.8262482-5.4786987-12.8212509
		c-0.0037842-0.2062531,0.0074463-0.4124985,0.0411987-0.6262512c0.7537842-4.8937454-0.2062378-6.2737503-4.8862305-7.03125
		c-0.2249756-0.0374985-0.446228-0.09375-0.65625-0.1687469c-4.8300171-1.03125-8.7075195-4.5599976-10.2224731-9.3525009
		c-1.5037842-4.7587433-0.3900146-9.9149933,2.8987427-13.6275024c0.1199951-0.1800003,0.258728-0.3525009,0.4124756-0.5099945
		c3.3787842-3.4725037,3.3787842-5.2725029,0-8.7450027c-0.1574707-0.1612511-0.2999878-0.3337479-0.4199829-0.517498
		c-3.28125-3.7124977-4.3950195-8.8650017-2.8912354-13.6199989c1.5149536-4.7924995,5.3999634-8.3212509,10.2337036-9.3487511
		c0.2062988-0.0750008,0.4200439-0.1312485,0.6412964-0.164999c4.6799927-0.7649975,5.6362305-2.1450005,4.8862305-7.0387497
		c-0.0262451-0.210001-0.0412598-0.4200001-0.0374756-0.633749c-0.5475464-4.9875011,1.5149536-9.8475008,5.4824829-12.8100014
		c4.0125122-3,9.2249756-3.5137501,13.7512207-1.40625c0.2025146,0.0637503,0.4012451,0.1499996,0.5962524,0.2474995
		c2.0625,1.0799999,3.6187744,1.4700003,4.6312866,1.1362505c1.2937622-0.4200001,2.4525146-2.2950001,3.1950073-3.7987504
		c0.0974731-0.1950002,0.2099609-0.3787498,0.3337402-0.5512495c2.4337158-4.40625,6.9262085-7.1174998,11.883728-7.1174998
		c4.9650269,0,9.46875,2.7224998,11.9025269,7.1475c0.1162109,0.1612501,0.2249756,0.3375001,0.3150024,0.5212502
		c0.7462158,1.5000005,1.9049683,3.3787503,3.2024536,3.7987504c1.0012817,0.3299999,2.5650024-0.0524998,4.6312866-1.1362505
		c0.1950073-0.1012497,0.3974609-0.187499,0.6037598-0.2512493c4.5262451-2.1075001,9.7237549-1.5862503,13.7399902,1.40625
		c3.9637451,2.9624996,6.0224609,7.8187494,5.4824829,12.8100004c0.0037231,0.210001-0.0112305,0.423748-0.0449829,0.6374989
		c-0.7537842,4.8937492,0.2062378,6.2737522,4.8862305,7.0350018c0.2249756,0.0375023,0.4387817,0.0900002,0.6525269,0.1650009
		c4.8299561,1.0312462,8.7112427,4.5562477,10.2261963,9.3487473c1.5,4.7625046,0.3900146,9.9225006-2.9024658,13.6349983
		c-0.1199951,0.1762505-0.2550049,0.3450012-0.4087524,0.5025024c-3.375,3.472496-3.375,5.2724953,0,8.7449951
		c0.1537476,0.1612473,0.2924805,0.3300018,0.4162598,0.5100021c3.2849731,3.7125015,4.3987427,8.8687515,2.8949585,13.6275024
		c-1.5112305,4.7924957-5.3962402,8.3249969-10.2337036,9.3525009c-0.2062988,0.078743-0.4200439,0.1312485-0.6450195,0.1687469
		c-4.6799927,0.7574997-5.6362305,2.1374969-4.8825073,7.03125c0.0337524,0.2174988,0.0487671,0.4349976,0.0449829,0.6524963
		c0.5437622,4.9875031-1.5187378,9.840004-5.4824829,12.7950058c-4.0050049,3.0037537-9.2025146,3.5175018-13.7399902,1.4137497
		c-0.2062378-0.0674973-0.4087524-0.1500015-0.6037598-0.2512436c-2.0700073-1.0837479-3.6412354-1.4662552-4.6312256-1.1362457
		c-1.2975464,0.4162445-2.4525146,2.2949982-3.2025146,3.7987518c-0.0900269,0.1874924-0.1987305,0.3637466-0.3187256,0.5324936
		C633.699585,117.28125,629.199585,120,624.2383423,120z M618.4520874,108.4350052
		c0.116272,0.1650009,0.2212524,0.3375015,0.3112793,0.5212479c1.0725098,2.1862488,3.1724854,3.5437469,5.4749756,3.5437469
		s4.4025269-1.3574982,5.4787598-3.5437469c0.0862427-0.1800003,0.1912231-0.3487549,0.303772-0.5100021
		c1.9837036-3.7874985,4.383728-6.09375,7.3162231-7.0462418c2.9100342-0.9450073,6.1275024-0.5100021,9.8474731,1.3274994
		c0.1950073,0.0637512,0.3900146,0.1462479,0.5737915,0.2437515c2.0849609,1.0987473,4.5262451,0.9112473,6.3825073-0.4725037
		c1.9124756-1.4287491,2.8574829-3.847496,2.4674683-6.3225021c-0.0337524-0.2099991-0.0487671-0.4162445-0.0449829-0.6224976
		c-1.0725098-8.3062515,2.4674683-13.2862473,10.5374756-14.8199997c0.1950073-0.0674973,0.397522-0.1162491,0.6075439-0.1500015
		c2.3399658-0.375,4.2412109-2.0362473,4.9649658-4.3349991c0.7387695-2.340004,0.1312866-4.8862534-1.5862427-6.6412506
		c-0.1462402-0.1500092-0.28125-0.3112564-0.397522-0.4837494c-5.5987549-6.0599976-5.5949707-12.1987534,0.0075073-18.2587509
		c0.1125488-0.1687508,0.2437744-0.3262482,0.3900146-0.4762497c1.7175293-1.7550011,2.3250122-4.3012505,1.5862427-6.6450005
		c-0.7237549-2.298748-2.625-3.9599991-4.9612427-4.3312492c-0.2174683-0.0337486-0.4237671-0.0862503-0.6224976-0.1537514
		c-8.0587769-1.5374985-11.5987549-6.5212517-10.5262451-14.8312492c0-0.2024994,0.0150146-0.4049988,0.0449829-0.6075001
		c0.3900146-2.4750004-0.5549927-4.897501-2.4674683-6.3262501c-1.8600464-1.3874989-4.3012695-1.57125-6.3825073-0.46875
		c-0.1875,0.0974998-0.3787842,0.1800003-0.5737915,0.2437496c-3.7236938,1.8299999-6.9524536,2.2687511-9.8474731,1.3275013
		c-2.9362793-0.9450054-5.3362427-3.2587538-7.3237305-7.050004c-0.1087646-0.1575003-0.210022-0.3225002-0.2962646-0.4987497
		c-1.0762329-2.1900005-3.1762695-3.5475006-5.4787598-3.5475006s-4.4024658,1.3575001-5.4749756,3.5437498
		c-0.0900269,0.1837502-0.1987915,0.3599997-0.3150024,0.5287504c-1.9837646,3.7762499-4.3800049,6.0787487-7.3087769,7.03125
		c-2.8912354,0.9375-6.1237183,0.5062504-9.8549805-1.3349991c-0.1912842-0.0637512-0.3825073-0.1462517-0.5662842-0.2400017
		c-2.0812378-1.0987492-4.5262451-0.914999-6.3824463,0.46875c-1.9125366,1.428751-2.8612671,3.8549995-2.4712524,6.3262501
		c0.0299683,0.1987514,0.0449829,0.4012508,0.0449829,0.6037502c1.0725098,8.3099976-2.4675293,13.2975006-10.5337524,14.8350029
		c-0.1987305,0.0674973-0.4012451,0.1199951-0.6149902,0.1537514c-2.3362427,0.375-4.2374878,2.0324974-4.9650269,4.3349991
		c-0.7387085,2.3400002-0.1312256,4.8862534,1.5900269,6.6412506c0.1499634,0.1537514,0.2849731,0.3149986,0.4049683,0.4912491
		c5.5875244,6.0562477,5.5875244,12.1875-0.0075073,18.2437477c-0.1162109,0.1725006-0.2474976,0.3337555-0.3974609,0.4837494
		c-1.7175293,1.7587509-2.3287354,4.3012466-1.5900269,6.6412506c0.7275391,2.3024979,2.6287842,3.9674988,4.96875,4.3387451
		c0.2137451,0.0337524,0.4200439,0.0824966,0.6187744,0.1537552c8.0625,1.5337524,11.602478,6.5212479,10.5224609,14.8387527
		c0,0.1987457-0.0112305,0.3974991-0.0449829,0.5999985c-0.3900146,2.4674988,0.5587769,4.8937531,2.4712524,6.3225021
		c1.8599854,1.3875046,4.3012695,1.5749969,6.3862305,0.46875c0.1875-0.097496,0.3862915-0.1800003,0.585022-0.2437515
		c3.7200317-1.8337555,6.9412842-2.2687454,9.8362427-1.3274994
		C614.0683594,102.3487473,616.4645996,104.6550064,618.4520874,108.4350052z"/>
</g>
</svg>
