<?xml version="1.0" encoding="utf-8"?>
<!-- Generator: Adobe Illustrator 19.0.0, SVG Export Plug-In . SVG Version: 6.00 Build 0)  -->
<svg version="1.2" baseProfile="tiny" id="Layer_1" xmlns="http://www.w3.org/2000/svg" xmlns:xlink="http://www.w3.org/1999/xlink"
	 x="0px" y="0px" viewBox="0 0 63.6074982 67.5155106" xml:space="preserve">
<path id="XMLID_267_" fill="#FFFFFF" d="M0.0927575,61.1063881c-0.6038073,3.5261574,1.8034427,6.4091225,5.3809209,6.4091225
	h52.6601067c3.5770111,0,5.9845619-2.8827057,5.3810463-6.4084435c-2.6121292-15.260025-16.862278-20.0136795-20.8323593-21.0690155
	l-0.7617226-7.0078583c0.9312439-1.4136791,1.6084976-2.9790993,2.001255-4.6257439
	c1.1772079-0.8101959,1.8696823-2.7075806,2.3890419-4.5634174c0.7617226-2.6937332,0.6924744-4.4526234-0.1869659-5.5398102
	c-0.164135-0.199316-0.3579903-0.3721542-0.5747566-0.5124321c0.0415459-0.1731186,0.0761719-0.3462391,0.1177177-0.5401325
	c0.8240509-4.9442797,0.346241-8.5797806-1.3849525-10.8095531c-0.661087-0.8683305-1.5720978-1.5135303-2.61063-1.8489113
	c-0.8884888-1.2265465-2.0439873-2.2352412-3.3792877-2.949949c-2.2312431-1.2945594-4.8167038-1.8451211-7.3817959-1.5719196
	c-1.0230713,0.0506637-2.034317,0.241729-3.0053463,0.5678306c-1.1345615,0.3883895-2.2091103,0.9338223-3.1923161,1.6203942
	c-1.1818352,0.7461271-2.2638741,1.6396801-3.2200165,2.6591089c-1.7436028,1.7065897-2.9783401,3.8643842-3.5662518,6.232286
	c-0.4641724,2.0070848-0.4641724,4.0936317,0,6.1007175c0.0323143,0.1754265,0.0669403,0.348547,0.1038723,0.5193558
	c-0.2053509,0.1363354-0.3896542,0.3019753-0.5470581,0.4916573c-0.900219,1.0733376-0.9625416,2.8391533-0.1938934,5.5398102
	c0.4847336,1.7519646,1.1772099,3.7185974,2.3751926,4.5564957c0.3912163,1.6873035,1.0756149,3.2928257,2.0220299,4.7434616
	l-0.7617245,6.9247627C16.9735126,41.0732918,2.7072628,45.8380203,0.0927575,61.1063881z M28.3897629,38.6115494
	c2.1912441,0.7870941,4.5881004,0.7870979,6.7793427,0c1.5791817-0.5964546,3.0243416-1.5002708,4.2518044-2.6591072
	l0.5401306,4.9858284l-3.891716,8.8498459l-1.080265-2.4444389l1.4265022-3.192318
	c0.2575798-0.5766792,0.0923767-1.2545738-0.401638-1.6480942l-3.3515816-2.645256
	c-0.5046654-0.4014168-1.2195988-0.4014168-1.7242661,0l-3.3446617,2.6521797
	c-0.4907169,0.3925819-0.6556053,1.0663528-0.4016342,1.6411705l1.4195747,3.1853905l-1.0802631,2.4375153l-3.9124889-8.8359947
	l0.5678291-4.8888817C25.4042931,37.1730423,26.832983,38.0439072,28.3897629,38.6115494z M31.3951092,46.7827721
	l-1.2326069-2.7699051l1.6411686-1.301857l1.6411686,1.3018532l-1.2326088,2.7699051
	c-0.1582222,0.3572006-0.1582222,0.7646103,0,1.1218109l2.3613472,5.3043709l-0.2146721,0.4916573
	c-0.6215096,1.3978348-2.2585144,2.0271645-3.6563454,1.4056549c-0.626339-0.2784843-1.1271706-0.7793159-1.4056549-1.4056549
	l-0.2631397-0.5055084l2.3474941-5.2905197c0.1646957-0.3572044,0.1697292-0.7675896,0.0138493-1.1287346V46.7827721z
	 M56.4049797,64.7456055H7.1853814c-2.6649404,0-4.6147938-2.5166092-3.9536064-5.0982246
	C6.3351312,47.5302887,17.8088741,43.6805916,21.4165268,42.766407l5.3251419,12.0490875
	c0.8727932,2.0151558,2.8660221,3.313076,5.0620022,3.2961884l0,0c2.195982,0.0168877,4.1892071-1.2810326,5.0620022-3.2961884
	L42.190815,42.766407c3.5584335,0.9493294,15.0257378,4.9051018,18.1647034,16.8692856
	C61.0330925,62.2182655,59.0749626,64.7456055,56.4049797,64.7456055z M19.962328,23.086235
	c-0.5539799-1.9597073-0.4362602-2.7283573-0.3670101-2.9568729h0.0415478
	c0.7615738,0.0711365,1.4366169-0.4885731,1.5077553-1.2501469c0.0194035-0.2077179-0.0083733-0.4171371-0.0812531-0.6126156
	c-0.1798382-0.487463-0.314291-0.99049-0.4016361-1.5026741c-0.3938236-1.6206331-0.4080448-3.3103237-0.0415497-4.937356
	c0.4744968-1.9013147,1.4696751-3.6326895,2.8737736-4.9996777c0.8223152-0.8685451,1.7533112-1.627306,2.7699051-2.2574725
	c0.7841663-0.5531006,1.6419353-0.9936399,2.5483131-1.30878c0.743063-0.2477179,1.5166359-0.3921802,2.2990208-0.4293356
	c2.0153809-0.2177179,4.0477562,0.2115552,5.8029518,1.225683c1.0774918,0.5573955,1.991478,1.3854694,2.6521835,2.4028926
	c0.2063599,0.4245229,0.6233215,0.7068954,1.0941124,0.7409492c0.6148758,0.1423774,1.150856,0.5170641,1.4957504,1.045639
	c0.8240509,1.1148863,1.6342468,3.5039301,0.8032761,8.5105324c-0.1014404,0.5217342-0.2402954,1.0354939-0.4154854,1.5372963
	c-0.2575417,0.7202263,0.1175346,1.5128651,0.8377647,1.7704067c0.1752701,0.0626736,0.3613701,0.0893745,0.5471878,0.0785046
	h0.0554008c0.0692444,0.2146683,0.1938934,0.9763927-0.367012,2.9499493c-0.6093788,2.1743736-1.0941124,2.825304-1.24646,2.9845734
	c-0.5569458,0.1247406-0.9803314,0.5783691-1.0664139,1.1425858c-0.4916573,3.1853905-3.1438408,7.3471737-7.0978813,8.7736759
	c-1.58675,0.5709763-3.3229046,0.5709763-4.9096565,0c-3.9678879-1.3849525-6.5508251-5.4774876-7.0563316-8.7875233
	c-0.0860825-0.5642166-0.5094681-1.0178452-1.0664139-1.1425858C21.0425892,25.9046135,20.5647812,25.2536831,19.962328,23.086235z"
	/>
</svg>
