<?xml version="1.0" encoding="utf-8"?>
<!-- Generator: Adobe Illustrator 19.0.0, SVG Export Plug-In . SVG Version: 6.00 Build 0)  -->
<svg version="1.2" baseProfile="tiny" id="Layer_1" xmlns="http://www.w3.org/2000/svg" xmlns:xlink="http://www.w3.org/1999/xlink"
	 x="0px" y="0px" viewBox="0 0 112.5129166 120" xml:space="preserve">
<g id="XMLID_487_">
	<path id="XMLID_488_" fill="#FFFFFF" d="M-352.4749146,0.0000063h-0.1608582h-0.1608582
		c-32.9758606,0-59.8391418,27.024128-59.8391418,59.9999962c0,33.1367226,26.8632813,60.0000038,60,60.0000038
		s60-26.863266,60-59.9999962C-292.6357727,27.0241337-319.4990234,0.0000063-352.4749146,0.0000063z M-371.7778625,9.973196
		c-4.9865723,5.790885-9.0080261,13.8337803-11.5817566,23.4852543c-4.3431702-1.6085796-8.364624-3.6997299-11.7426453-5.9517441
		C-389.1505127,19.62467-381.107605,13.5120707-371.7778625,9.973196z M-398.8019714,32.8150177
		c4.0214539,2.7345848,8.6863098,4.9865913,13.8337708,6.9168854c-1.1260071,5.3083115-1.7694397,11.0991974-1.9302979,17.0509415
		h-19.302948C-405.5580139,48.0965157-402.9842834,39.892765-398.8019714,32.8150177z M-406.2014465,63.2171631h19.302948
		c0.1608582,5.7908783,0.8042908,11.4209061,1.7694397,16.5683594c-5.1474609,1.9302979-9.973175,4.182312-13.9946289,6.916893
		C-403.1451416,79.7855225-405.7188721,71.74263-406.2014465,63.2171631z M-395.4239502,92.1715851
		c3.3779907-2.4128723,7.3994446-4.3431625,11.9034729-6.1126022c2.5737305,9.8123245,6.7560425,18.0160751,11.7426147,23.9678268
		C-381.2684631,106.4879379-389.472229,100.2144775-395.4239502,92.1715851z M-355.8529053,113.2439651
		c-9.3297729-2.091156-17.3726807-13.5120621-21.5549622-29.1152725c6.5951538-1.7694397,13.9946289-2.8954468,21.5549622-3.2171631
		V113.2439651z M-355.8529053,74.4772186c-8.0429077,0.3217163-15.9249573,1.4477234-23.0026855,3.3780136
		c-0.9651489-4.6648865-1.4477234-9.651474-1.6085815-14.6380692h24.6112671V74.4772186z M-355.8529053,56.7828445h-24.6112671
		c0.1608582-5.3083076,0.8042908-10.2949066,1.7694397-15.1206436c7.0777283,1.930294,14.7989197,3.0563011,22.8418274,3.2171593
		V56.7828445z M-355.8529053,38.4450417c-7.5603333-0.1608543-14.7989502-1.2868614-21.394104-3.0563011
		c4.1822815-15.2815018,12.2251892-26.5415535,21.394104-28.6327057V38.4450417z M-349.4186096,6.7560377
		c9.1689148,2.0911512,17.211792,13.3512087,21.394104,28.6327019c-6.5951538,1.7694359-13.8337708,2.8954391-21.394104,3.0563011
		V6.7560377z M-349.4186096,44.8793602c8.0429077-0.3217201,15.7640686-1.4477234,22.8418274-3.3780136
		c0.9651489,4.825737,1.6085815,9.9731903,1.7694397,15.1206436h-24.6112671V44.8793602z M-349.4186096,63.2171631h24.6112671
		c-0.1608582,5.1474533-0.6434326,9.9731903-1.6085815,14.6380692c-7.0777588-1.9302902-14.9597778-3.0562973-23.0026855-3.3780136
		V63.2171631z M-349.4186096,113.2439651V80.9115295c7.5603333,0.3217163,14.9597778,1.2868652,21.5549622,3.2171631
		C-332.0459595,99.7319031-340.0888367,110.991951-349.4186096,113.2439651z M-333.4936829,110.0268097
		c5.1474609-5.9517365,9.1689148-14.1555023,11.7426453-23.9678268c4.5040283,1.6085739,8.3645935,3.6997299,11.9035034,6.1126022
		C-315.7992859,100.2144775-324.0030518,106.4879379-333.4936829,110.0268097z M-306.3086853,86.863266
		c-4.0214539-2.7345734-8.6863098-5.1474533-13.9946289-6.9168854c0.9651489-5.3083115,1.6085815-10.7774811,1.7694397-16.5683632
		h19.302948C-299.5526428,71.74263-302.1263733,79.7855225-306.3086853,86.863266z M-299.0700684,56.7828445h-19.302948
		c-0.1608582-5.9517441-0.8042908-11.7426224-1.9302979-17.2117958c5.1474609-1.930294,9.8123169-4.1823044,13.8337708-6.9168892
		C-302.2872314,39.892765-299.713501,48.0965157-299.0700684,56.7828445z M-321.7510376,33.297596
		c-2.5737305-9.4906178-6.5951843-17.5335121-11.5817871-23.4852562c9.3297729,3.5388746,17.3726501,9.651473,23.3244019,17.5335121
		C-313.3864441,29.7587204-317.4078674,31.6890163-321.7510376,33.297596z"/>
</g>
<path id="XMLID_498_" fill="#FFFFFF" d="M-312.590332,267.0920105h-4.2017517V219.472168h3.0012512
	c2.6011047,0,4.802002-1.6006622,5.602356-4.0016632c0.8003235-2.401001,0.2000732-5.0020752-1.8007507-6.6027527
	l-47.0195923-38.2159119c-2.2009277-1.8007507-5.4022522-1.8007507-7.4031067,0l-47.2196655,38.4160004
	c-2.000824,1.6006622-2.6010742,4.2017517-1.8007507,6.6027527s3.0012512,4.0016632,5.6023254,4.0016632h3.0012512v47.6198578
	h-4.2017517c-3.2013245,0-6.0025024,2.6010742-6.0025024,6.0025024v10.0041504c0,3.2013245,2.6011047,6.0025024,6.0025024,6.0025024
	h96.6402588c3.201355,0,6.0025024-2.6010742,6.0025024-6.0025024v-10.4043274
	C-306.5878296,269.6930847-309.1889038,267.0920105-312.590332,267.0920105z M-360.8104248,177.8548279l41.2171631,33.6140137
	h-20.0083313h-9.6040039h-23.0095825h-9.6040039h-20.0083313L-360.8104248,177.8548279z M-324.5953369,219.472168v47.6198425
	h-7.0028992V219.472168H-324.5953369z M-339.601593,219.472168v47.6198425h-9.6040039V219.472168H-339.601593z
	 M-357.4089966,219.472168v47.6198425h-7.0029297V219.472168H-357.4089966z M-372.2151794,219.472168v47.6198425h-9.6040039
	V219.472168H-372.2151794z M-390.022583,219.472168v47.6198425h-7.0029297V219.472168H-390.022583z M-314.591156,281.2979431
	h-92.4385071v-6.2025757h2.000824h23.0095825h9.6040039h23.0095825h9.6040039h23.0095825h2.0008545v6.2025757H-314.591156z
	 M-369.0138245,198.0632629c0-4.6019135,3.6015015-8.2034302,8.2033997-8.2034302
	c4.6019287,0,8.2034302,3.6015167,8.2034302,8.2034302s-3.6015015,8.2034149-8.2034302,8.2034149
	C-365.412323,206.2666779-369.0138245,202.4650879-369.0138245,198.0632629z"/>
<g id="XMLID_508_">
	<path id="XMLID_511_" fill="#FFFFFF" d="M-485.1591492,31.9194298c1.1531982,0.95401,1.3144531,2.6628265,0.3591003,3.814682
		l-43.578186,52.633152c-0.5352783,0.6477509-1.309082,0.9824677-2.0882568,0.9824677
		c-0.6084595,0-1.2210083-0.20327-1.7264404-0.6233597c-1.1531982-0.95401-1.3144531-2.6628189-0.3591309-3.814682
		l43.5782166-52.6331558C-488.0225525,31.1266785-486.3123779,30.9640656-485.1591492,31.9194298z M-525.3753052,30.6876183
		c5.7484741,0,10.5822144,4.1236534,11.4928589,9.8070564c1.0177002,6.3447075-3.3146362,12.3330193-9.6593628,13.3507195
		c-0.6138306,0.0989265-1.2372437,0.1477089-1.8551636,0.1477089c-5.7484741,0-10.5835571-4.1250038-11.4942017-9.8084106
		c-0.4932251-3.0720711,0.2398682-6.1536331,2.0639038-8.6741714c1.8239746-2.5205383,4.5220337-4.1819248,7.5941162-4.6738358
		C-526.6179199,30.7364025-525.9932251,30.6876183-525.3753052,30.6876183z M-525.3753052,36.1081276
		c-0.3319702,0-0.6680298,0.0271034-0.9987183,0.0799522c-1.642395,0.2628937-3.0842896,1.1518555-4.0599365,2.5002098
		c-0.9770508,1.3483505-1.3687134,2.9961853-1.1044312,4.6399574c0.5393066,3.3674927,3.736084,5.7118607,7.1415405,5.1657448
		c3.3918457-0.5434074,5.7091064-3.7482796,5.1657104-7.1415215
		C-519.7203369,38.3142738-522.3032227,36.1081276-525.3753052,36.1081276z M-491.2192993,66.6649017
		c5.7498169,0,10.5835571,4.1236496,11.4942017,9.8070526c1.0177002,6.3419952-3.3146362,12.3316574-9.6593323,13.3507156
		c-0.6138916,0.0989227-1.2386169,0.1477127-1.8565369,0.1477127c-5.7484436,0-10.5821838-4.1250076-11.4928284-9.8084183
		c-0.4932861-3.0734253,0.2398376-6.1536331,2.0638428-8.6741714s4.5207214-4.1819229,7.5941467-4.6738358
		C-492.4606018,66.7136841-491.8358765,66.6649017-491.2192993,66.6649017z M-491.2192993,72.0854111
		c-0.330658,0-0.6667175,0.0270996-0.9973755,0.0799484c-1.6437683,0.2628937-3.0856323,1.1518555-4.0613098,2.5002136
		c-0.975708,1.3483505-1.3673096,2.9961853-1.1030884,4.6399612c0.487854,3.0395508,3.0707397,5.245697,6.141449,5.245697
		c0.330658,0,0.6667175-0.027092,0.9973755-0.0799484c3.3918762-0.5447617,5.7105103-3.7482834,5.165741-7.1415253
		C-485.5629883,74.2915573-488.145874,72.0854111-491.2192993,72.0854111z M-508.3074646,0.6552814
		c-1.4960632,0-2.7102356,1.2141942-2.7102356,2.7102542s1.2141724,2.7102551,2.7102356,2.7102551
		c29.9144592,0,54.2525635,24.338089,54.2525635,54.2525291s-24.3381042,54.2538872-54.2525635,54.2538872
		c-29.9143982,0-54.252533-24.338089-54.252533-54.2538834c0-20.7713928,11.9888306-39.6767769,30.3494263-48.7087021
		l-2.006897,5.856863c-0.4851685,1.4161072,0.2683105,2.9582424,1.6843872,3.4420223
		c0.2913818,0.1002789,0.5881348,0.147707,0.8781128,0.147707c1.1261597,0,2.1777344-0.7073746,2.5639038-1.8334885
		l3.9922485-11.6486759c0.4851074-1.4161086-0.2683716-2.9582429-1.6844482-3.4420238l-11.6486816-3.9922061
		c-1.420166-0.4919112-2.958252,0.2683152-3.4420166,1.6844237c-0.4851685,1.4161084,0.2683105,2.9582427,1.6844482,3.442024
		l5.0559692,1.7332082c-19.8973389,10.0360737-32.8483276,30.671957-32.8483276,53.3174973
		c0,32.9038582,26.7692261,59.6730385,59.6730652,59.6730385s59.6730347-26.7691803,59.6730347-59.6730385
		S-475.403595,0.6552814-508.3074646,0.6552814z"/>
</g>
<path id="XMLID_523_" fill="#FFFFFF" d="M-168.401886,66.479332c-1.7897644,0-3.239975,1.4502182-3.239975,3.2399826v39.2932587
	c0,2.4844208-2.023056,4.5074615-4.5087585,4.5074615h-69.4951172c-2.4857178,0-4.5087585-2.0217514-4.5087585-4.5074615V58.1383095
	c0-2.4844208,2.0230408-4.5074692,4.5087585-4.5074692h69.4951172c2.4857025,0,4.5087585,2.0217552,4.5087585,4.5074692
	c0,1.7897682,1.4502258,3.2399864,3.2399902,3.2399864s3.2399902-1.4502182,3.2399902-3.2399864
	c0-6.057476-4.9299622-10.9874382-10.988739-10.9874382h-7.744873V27.0059357
	c0-14.890975-12.1136475-27.0059299-27.0033264-27.0059299s-27.0033417,12.1149549-27.0033417,27.0059299v20.1462288h-7.7448578
	c-6.0587769,0-10.9887543,4.928669-10.9887543,10.987442v50.8729668c0,6.0574722,4.9299774,10.9874344,10.9887543,10.9874344
	h69.4951019c6.0587769,0,10.988739-4.9286728,10.988739-10.9874344V69.7193146
	C-165.1618958,67.9295502-166.6121216,66.479332-168.401886,66.479332z M-231.4208984,27.0059357
	c0-11.3179188,9.2067413-20.525959,20.5233612-20.525959s20.5233612,9.2080402,20.5233612,20.525959v20.1462288h-41.0467224
	V27.0059357z M-210.8975372,101.2547455c1.7897644,0,3.2399902-1.4502182,3.2399902-3.2399826V86.8069992
	c4.1458893-1.4722519,7.1279602-5.4237366,7.1279602-10.0685806c0-5.8954773-4.796463-10.6919556-10.6919556-10.6919556
	c-5.8954773,0-10.6919403,4.7964783-10.6919403,10.6919556c0,4.8833084,3.2957001,9.003273,7.7759552,10.2772293v10.9978104
	C-214.1375275,99.8045273-212.6873016,101.2547455-210.8975372,101.2547455z M-215.4335175,76.7397156
	c0-2.3224182,1.8895569-4.2119827,4.2119751-4.2119827c2.3224335,0,4.2119904,1.8895645,4.2119904,4.2119827
	c0,2.3224258-1.8895569,4.2119827-4.2119904,4.2119827C-213.5439606,80.9516983-215.4335175,79.0621414-215.4335175,76.7397156z"/>
<g id="XMLID_526_">
	<path id="XMLID_532_" fill="#FFFFFF" d="M-510.7046814,169.9566193c-1.4960632,0-2.7102966,1.2141113-2.7102966,2.7102051
		s1.2142334,2.7102051,2.7102966,2.7102051c29.9144287,0,54.2525635,24.3381348,54.2525635,54.2524414
		c0,29.914566-24.3381348,54.2539215-54.2525635,54.2539215c-29.9144592,0-54.252533-24.3378906-54.252533-54.2539215
		c0-20.7712402,11.9887695-39.6767578,30.3494263-48.7084961l-2.006958,5.8566895
		c-0.4851074,1.4162598,0.2683105,2.958252,1.6844482,3.4421387c0.2913208,0.1000977,0.5880737,0.1477051,0.8781128,0.1477051
		c1.1260986,0,2.1776733-0.7072754,2.5639038-1.8334961l3.9921875-11.6486816
		c0.4851074-1.4160156-0.2683105-2.958252-1.6844482-3.4421387l-11.6486816-3.9921875
		c-1.420166-0.4919434-2.9581909,0.2683105-3.4420166,1.6845703c-0.4851074,1.4160156,0.2683105,2.958252,1.6844482,3.4418945
		l5.0559692,1.7331543c-19.8973389,10.0361328-32.8482666,30.6721191-32.8482666,53.317627
		c0,32.9038239,26.769165,59.673111,59.6730652,59.673111c32.9038086,0,59.6730347-26.7692871,59.6730347-59.673111
		S-477.8008118,169.9566193-510.7046814,169.9566193z"/>
	<path id="XMLID_542_" fill="#FFFFFF" d="M-536.5220947,231.8706818c4.026062-2.6694336,7.8873901-5.0522461,7.8873901-10.4753418
		c0-5.217041-3.6970825-8.626709-9.2838745-8.626709c-5.9157715,0-9.6539917,3.9440918-9.6539917,10.1054688v0.739502h4.5599976
		c0.0819092-3.3684082,0.7394409-6.8186035,4.970459-6.8186035c2.8757324,0,4.642395,1.8486328,4.642395,4.8474121
		c0,3.984375-3.4509277,5.791748-6.3266602,7.7226563c-4.8885498,3.286377-8.380188,5.8742676-8.5856323,12.4475098h19.6361084
		v-4.1491699h-14.0081177C-541.697998,235.2803497-538.6172485,233.2268829-536.5220947,231.8706818z"/>
	<path id="XMLID_545_" fill="#FFFFFF" d="M-511.0937195,241.8125763h4.5187988v-6.8195801h3.6563721v-3.9431152h-3.6563721
		v-18.2402344h-4.4364624l-12.3238831,17.5419922v4.6413574h12.2007751L-511.0937195,241.8125763z M-511.0525818,218.6023712
		v12.4475098h-8.4213562L-511.0525818,218.6023712z"/>
	<path id="XMLID_546_" fill="#FFFFFF" d="M-496.9620667,212.5635529v29.2490234h4.6419678v-11.3793945
		c0-3.5737305,1.3557129-6.4499512,5.1758423-6.4499512c3.4921265,0,4.1084595,2.1369629,4.1084595,4.9709473v12.8583984h4.7238159
		v-14.378418c0-4.8884277-2.793396-7.3530273-7.3122559-7.3530273c-2.9164429,0-5.1759033,1.1916504-6.6958618,3.4511719v-10.96875
		H-496.9620667z"/>
</g>
<g id="XMLID_527_">
	<path id="XMLID_533_" fill="#FFFFFF" d="M-36.2075157,35.1679153c-0.1272583-5.802248-0.2595825-11.8027363-0.2595825-18.4841328
		c0-1.3896475-0.9023438-2.6188955-2.2271729-3.0351553l-42.93536-13.501709c-0.6210327-0.1958008-1.2879028-0.1958008-1.9089355,0
		l-42.9290161,13.501709c-1.3261108,0.4162598-2.2271805,1.6455078-2.2271805,3.0351553
		c0,6.6813965-0.1310425,12.6818848-0.2595825,18.4853535c-0.4492798,20.442627-0.7738037,35.2102051,5.8541946,48.635498
		c10.7857056,21.8666992,29.2696533,31.9194336,39.3286743,35.9650879c0.3804932,0.1525879,0.7852173,0.2302246,1.1873779,0.2302246
		s0.805603-0.0776367,1.1873779-0.2302246c10.059021-4.0432129,28.5468102-14.0908203,39.3325157-35.9638672
		C-35.433712,70.3793411-35.7582359,55.6102982-36.2075157,35.1679153z M-47.7682457,80.9921341
		c-9.4417725,19.1445313-25.3906212,28.3876953-34.8145714,32.3837891
		c-9.4227295-3.9973145-25.3690186-13.2456055-34.8095093-32.3852539
		c-5.9394531-12.0302734-5.6289673-26.144043-5.1987915-45.6804199c0.1081543-4.9187031,0.2290649-10.4191914,0.2557983-16.2897968
		l39.7512207-12.5024414l39.760067,12.5024414c0.0267334,5.8706055,0.147644,11.369873,0.2557983,16.2885761
		C-42.1380577,54.8456497-41.8287926,68.9618607-47.7682457,80.9921341z"/>
	<path id="XMLID_534_" fill="#FFFFFF" d="M-64.777092,42.5329056l-23.6109619,26.9838867l-12.1677246-12.1677246
		c-1.4663086-1.4663086-3.8364258-1.4663086-5.3026123,0s-1.4661865,3.8361816,0,5.3024902l15,15
		c0.0296631,0.0297852,0.0650635,0.0495605,0.095459,0.078125c0.0318604,0.0297852,0.0551758,0.0654297,0.0882568,0.0942383
		c0.0754395,0.065918,0.1594238,0.1137695,0.2385254,0.1723633c0.0811768,0.0605469,0.15979,0.1240234,0.2446289,0.177002
		c0.123291,0.0773926,0.2514648,0.1391602,0.3806152,0.2004395c0.083252,0.0397949,0.1638184,0.0852051,0.2492676,0.1184082
		c0.1472168,0.0568848,0.2979736,0.0957031,0.4494629,0.1333008c0.0732422,0.0183105,0.1442871,0.045166,0.2185059,0.0588379
		c0.227417,0.0422363,0.4570313,0.065918,0.6865234,0.065918c0.2498779,0,0.4992676-0.0273438,0.7451172-0.0771484
		c0.0931396-0.0187988,0.1817627-0.0554199,0.2734375-0.0812988c0.1488037-0.0419922,0.2976074-0.0812988,0.4412842-0.1420898
		c0.1134033-0.0476074,0.2188721-0.1135254,0.3280029-0.1728516c0.112915-0.0615234,0.2265625-0.1186523,0.3339844-0.192627
		c0.1171875-0.0803223,0.2237549-0.1772461,0.3330078-0.2722168c0.064209-0.0559082,0.135376-0.0993652,0.1965332-0.1604004
		c0.0233154-0.0234375,0.0386963-0.0512695,0.0612793-0.0749512c0.036377-0.0380859,0.0797119-0.0651855,0.1148682-0.1049805
		l26.2499962-30c1.3612061-1.5600586,1.2037354-3.9262695-0.3563232-5.2912598
		C-61.0421104,40.8153763-63.4083214,40.9689407-64.777092,42.5329056z"/>
</g>
<g id="XMLID_554_">
	<g id="XMLID_555_">
		<path id="XMLID_559_" fill="#FFFFFF" d="M224.3449249,103.9843826h-74.6430817
			c-0.6610565,0-1.1889343,0.5508804-1.1889343,1.2210693v13.5827713c0,0.6702271,0.5278778,1.2117844,1.1889343,1.2117844
			h74.6430817c0.6747437,0,1.2026215-0.5415573,1.2026215-1.2117844V105.205452
			C225.5475464,104.5352631,225.0196686,103.9843826,224.3449249,103.9843826z"/>
		<path id="XMLID_556_" fill="#FFFFFF" d="M152.0842133,75.6209335c0.6610565,0.2570267,11.7282867,4.5443726,12.3799896,4.801384
			c0.651886,0.2616882,1.3082581-0.13311,1.519455-0.7160416c0.206543-0.5738678,4.8382111-13.270546,5.3339233-14.6844559
			h31.4528656c0.5141296,1.4139099,5.0906982,14.0830612,5.3201752,14.6844559
			c0.2203674,0.6105576,0.9042816,0.9502029,1.514801,0.7160416c0.6105652-0.2294846,11.6364136-4.5168304,12.389328-4.801384
			c0.7481995-0.2891998,0.862915-1.087883,0.6930847-1.5745544c-0.6380768-1.744339-21.8590698-59.8576508-22.7633667-62.3409996
			c-2.1528168-5.8481259-4.7188721-11.7053728-12.8850098-11.7053728c-8.1846161,0-10.8377991,5.9444404-12.9124756,11.7053728
			c-1.0651093,2.983592-21.9647369,60.1652641-22.7451477,62.3409996
			C151.1614685,74.6523819,151.4506683,75.3729324,152.0842133,75.6209335z M186.9660034,18.9764309h0.1376801
			l10.6679688,31.9255581h-21.4368591L186.9660034,18.9764309z"/>
	</g>
</g>
<g id="XMLID_549_">
	<path id="XMLID_553_" fill="#FFFFFF" d="M81.2276611,42.1800613c-1.5561523-1.3649902-3.9223633-1.2114258-5.2911377,0.3525391
		L52.3255615,69.5164871L40.1578369,57.3487625c-1.4663086-1.4663086-3.8364258-1.4663086-5.3026123,0
		s-1.4661865,3.8361816,0,5.3024902l15,15c0.0296631,0.0297852,0.0650635,0.0495605,0.095459,0.078125
		c0.0318604,0.0297852,0.0551758,0.0654297,0.0882568,0.0942383c0.0754395,0.065918,0.1594238,0.1137695,0.2385254,0.1723633
		c0.0811768,0.0605469,0.15979,0.1240234,0.2446289,0.177002c0.123291,0.0773926,0.2514648,0.1391602,0.3806152,0.2004395
		c0.083252,0.0397949,0.1638184,0.0852051,0.2492676,0.1184082c0.1472168,0.0568848,0.2979736,0.0957031,0.4494629,0.1333008
		c0.0732422,0.0183105,0.1442871,0.045166,0.2185059,0.0588379c0.227417,0.0422363,0.4570313,0.065918,0.6865234,0.065918
		c0.2498779,0,0.4992676-0.0273438,0.7451172-0.0771484c0.0931396-0.0187988,0.1817627-0.0554199,0.2734375-0.0812988
		c0.1488037-0.0419922,0.2976074-0.0812988,0.4412842-0.1420898c0.1134033-0.0476074,0.2188721-0.1135254,0.3280029-0.1728516
		c0.112915-0.0615234,0.2265625-0.1186523,0.3339844-0.192627c0.1171875-0.0803223,0.2237549-0.1772461,0.3330078-0.2722168
		c0.064209-0.0559082,0.135376-0.0993652,0.1965332-0.1604004c0.0233154-0.0234375,0.0386963-0.0512695,0.0612793-0.0749512
		c0.036377-0.0380859,0.0797119-0.0651855,0.1148682-0.1049805l26.25-30
		C82.9451904,45.9112625,82.7877197,43.5450516,81.2276611,42.1800613z"/>
	<path id="XMLID_550_" fill="#FFFFFF" d="M56.2565002,120.0000076c-4.9612503,0-9.4575005-2.7149963-11.8912468-7.125
		c-0.1237488-0.1687469-0.232502-0.3525009-0.3300018-0.5437546c-0.7425003-1.4999924-1.9012489-3.378746-3.1949997-3.7987518
		c-1.0125046-0.3337479-2.5687523,0.0562515-4.6312485,1.1362534c-0.2024994,0.1049957-0.4087524,0.1912537-0.6187515,0.2549973
		c-4.5262489,2.0962524-9.7237492,1.5787506-13.7287502-1.4174957c-3.9675007-2.9625015-6.0299997-7.8262482-5.4787502-12.8212509
		c-0.0037498-0.2062531,0.0074997-0.4125061,0.0412502-0.6262512c0.7537518-4.8937531-0.2062492-6.2737503-4.8862495-7.03125
		c-0.2249994-0.0374985-0.44625-0.09375-0.65625-0.1687546c-4.8299994-1.0312424-8.7075005-4.5599976-10.2224998-9.3524933
		c-1.5037501-4.7587509-0.3899999-9.9150009,2.8987501-13.6275024c0.1199996-0.1800003,0.25875-0.3525009,0.4124997-0.5100021
		c3.3787501-3.4724998,3.3787501-5.2724991,0-8.7449989c-0.1575003-0.1612511-0.3000002-0.3337479-0.4200001-0.517498
		c-3.28125-3.7124977-4.395-8.8650017-2.8912501-13.6199989c1.5150001-4.7924995,5.4000006-8.3212509,10.2337513-9.3487511
		c0.2062502-0.0750008,0.4200001-0.1312485,0.6412497-0.164999c4.6800003-0.7649975,5.6362514-2.1449986,4.8862495-7.0387478
		c-0.0262508-0.210001-0.0412502-0.4200001-0.0375004-0.6337509c-0.5474997-4.9875011,1.5149994-9.8474998,5.4825001-12.8100014
		c4.0125008-2.999999,9.2249985-3.5137496,13.7512493-1.40625c0.2024994,0.0637503,0.4012527,0.1500006,0.5962524,0.2475004
		c2.0625,1.079999,3.6187515,1.4699993,4.6312485,1.1362495c1.2937508-0.4200001,2.4525032-2.2950001,3.1949997-3.7987499
		c0.0975037-0.1950002,0.2099991-0.3787498,0.3337517-0.5512495c2.4337463-4.40625,6.9262505-7.1174998,11.8837471-7.1174998
		c4.9650002,0,9.46875,2.7225001,11.9024963,7.1475c0.1162567,0.1612501,0.2249985,0.3375001,0.3150024,0.5212502
		c0.7462463,1.5,1.9049988,3.3787498,3.2024994,3.7987499c1.0012512,0.3299999,2.5650024-0.0524998,4.6312561-1.1362495
		c0.1949997-0.1012497,0.3974991-0.1875,0.6037445-0.2512503c4.5262527-2.1074996,9.7237549-1.5862503,13.7399979,1.40625
		c3.9637451,2.9625006,6.0225067,7.8187513,5.4824982,12.8100004c0.003746,0.210001-0.0112457,0.4237499-0.0449982,0.6375008
		c-0.753746,4.8937492,0.2062531,6.2737503,4.8862534,7.0349998c0.2249985,0.0375023,0.4387512,0.0900002,0.6524963,0.1650009
		c4.8300018,1.0312462,8.7112503,4.5562477,10.2262497,9.3487473c1.5,4.7625046,0.3899994,9.9225006-2.902504,13.6350021
		c-0.1199951,0.1762466-0.2550049,0.3449974-0.4087448,0.5024986c-3.375,3.472496-3.375,5.2724953,0,8.7449989
		c0.1537476,0.1612473,0.2924957,0.3299942,0.4162521,0.5099945c3.284996,3.7125015,4.3987503,8.8687515,2.8949966,13.6275101
		c-1.5112534,4.7924957-5.3962479,8.3249969-10.2337494,9.3524933c-0.2062531,0.0787506-0.4199982,0.1312485-0.6450043,0.1687546
		c-4.6800003,0.7574921-5.6362534,2.1374969-4.8824997,7.03125c0.0337524,0.2174988,0.0487518,0.4349976,0.0449982,0.6524963
		c0.5437469,4.9875031-1.5187531,9.840004-5.4825058,12.7950058c-4.0049973,3.003746-9.2024994,3.5174942-13.7399979,1.4137497
		c-0.2062454-0.0674973-0.4087448-0.1500015-0.6037445-0.2512512c-2.0699997-1.0837479-3.6412506-1.4662476-4.6312561-1.1362457
		c-1.2975006,0.4162521-2.4524918,2.2949982-3.2024994,3.7987518c-0.0899963,0.1875-0.1987457,0.3637543-0.3187408,0.5325012
		C65.7177505,117.2812576,61.2177505,120.0000076,56.2565002,120.0000076z M50.4702492,108.4350052
		c0.1162529,0.1650085,0.2212524,0.3375015,0.3112526,0.5212555c1.0724983,2.1862488,3.1724968,3.5437469,5.4749985,3.5437469
		s4.4025002-1.3574982,5.4787521-3.5437469c0.0862541-0.1800079,0.1912537-0.3487549,0.3037491-0.5100021
		c1.9837494-3.7874985,4.3837509-6.09375,7.316246-7.0462494c2.9100037-0.9449997,6.1275101-0.5099945,9.8475037,1.3274994
		c0.1949997,0.0637512,0.3899994,0.1462479,0.5737457,0.2437515c2.0849991,1.0987473,4.5262527,0.9112549,6.3824997-0.472496
		c1.9124985-1.4287491,2.8574982-3.847496,2.4675064-6.3225021c-0.0337524-0.2099991-0.0487518-0.4162521-0.0449982-0.6225052
		c-1.0724945-8.3062439,2.4674988-13.2862473,10.5374985-14.8199921c0.1949997-0.0675049,0.3974991-0.1162567,0.6074982-0.1500092
		c2.340004-0.375,4.2412567-2.0362473,4.965004-4.3349991c0.7387466-2.340004,0.1312485-4.8862457-1.5862579-6.6412506
		c-0.1462479-0.1500015-0.28125-0.3112488-0.3974991-0.4837494c-5.5987473-6.0599937-5.5950012-12.1987495,0.0074997-18.2587471
		c0.1125031-0.1687508,0.2437515-0.3262482,0.3899994-0.4762497c1.7175064-1.7550011,2.3250046-4.3012505,1.5862579-6.6450005
		c-0.7237549-2.298748-2.6250076-3.9599991-4.9612503-4.3312492c-0.2175064-0.0337486-0.4237595-0.0862465-0.6225052-0.1537514
		c-8.0587463-1.5374985-11.5987473-6.5212517-10.5262451-14.8312492c0-0.2024994,0.0149994-0.4049988,0.0449982-0.6075001
		c0.3899994-2.4750004-0.5550079-4.897501-2.4675064-6.3262501c-1.8600006-1.3874989-4.3012466-1.57125-6.3824997-0.46875
		c-0.1874924,0.0974998-0.378746,0.1800003-0.5737457,0.2437515c-3.7237549,1.829998-6.9524994,2.2687492-9.8475037,1.3274994
		c-2.9362488-0.9450054-5.3362503-3.2587528-7.3237419-7.050004c-0.1087494-0.1575003-0.2099991-0.3224993-0.2962532-0.4987497
		c-1.076252-2.1900005-3.1762505-3.5475001-5.4787521-3.5475001s-4.4025002,1.3574996-5.4749985,3.5437493
		c-0.0900002,0.1837502-0.1987534,0.3600006-0.3149986,0.5287504c-1.9837532,3.7762499-4.3800011,6.0787487-7.308754,7.03125
		c-2.8912468,0.9375-6.1237488,0.5062504-9.8549995-1.3349991c-0.1912498-0.0637512-0.3824959-0.1462498-0.5662498-0.2400017
		c-2.0812473-1.0987482-4.5262489-0.914999-6.3824978,0.46875c-1.9125023,1.428751-2.8612499,3.8549995-2.4712505,6.3262501
		c0.0299988,0.1987514,0.0450001,0.4012508,0.0450001,0.6037502c1.0725002,8.3099976-2.4674988,13.2975006-10.5337496,14.8350029
		c-0.1987505,0.0674973-0.4012499,0.1199989-0.6150007,0.1537514c-2.3362503,0.375-4.2375002,2.0324974-4.9649992,4.3349991
		c-0.73875,2.3400002-0.1312504,4.8862534,1.5900002,6.6412506c0.1499996,0.1537514,0.2849998,0.3149986,0.4049997,0.4912491
		c5.5874996,6.0562477,5.5874996,12.1875-0.0074997,18.2437515c-0.11625,0.172493-0.2475004,0.3337479-0.3975,0.4837418
		c-1.7174997,1.7587509-2.3287501,4.3012543-1.5900002,6.6412506c0.7275,2.3025055,2.6287498,3.9675064,4.968751,4.3387527
		c0.2137508,0.0337524,0.4200001,0.0824966,0.6187496,0.1537476c8.0625,1.5337524,11.602499,6.5212555,10.5224991,14.8387527
		c0,0.1987534-0.0112495,0.3975067-0.0450001,0.5999985c-0.3899994,2.4674988,0.5587502,4.8937531,2.4712524,6.3225098
		c1.8600006,1.3874969,4.3012505,1.5749969,6.3862495,0.46875c0.1875-0.0975037,0.3862495-0.1800079,0.5849991-0.2437592
		c3.7200012-1.8337479,6.9412498-2.2687454,9.8362503-1.3274994
		C46.0865021,102.3487549,48.4827499,104.6550064,50.4702492,108.4350052z"/>
</g>
</svg>
