<?xml version="1.0" encoding="utf-8"?>
<!-- Generator: Adobe Illustrator 19.0.0, SVG Export Plug-In . SVG Version: 6.00 Build 0)  -->
<svg version="1.2" baseProfile="tiny" id="Layer_1" xmlns="http://www.w3.org/2000/svg" xmlns:xlink="http://www.w3.org/1999/xlink"
	 x="0px" y="0px" viewBox="0 0 119.3460693 120.0001602" xml:space="preserve">
<g id="XMLID_487_">
	<path id="XMLID_488_" fill="#FFFFFF" d="M217.9041595-169.301178h-0.1608582h-0.1608582
		c-32.9758759,0-59.8391418,27.0241241-59.8391418,60c0,33.1367188,26.863266,60,60,60s60.0000153-26.863266,60.0000153-60
		C277.7433167-142.2770538,250.8800201-169.301178,217.9041595-169.301178z M198.6012115-159.3279877
		c-4.9866028,5.7908783-9.0080414,13.833786-11.5817719,23.48526c-4.3431702-1.6085815-8.3646088-3.6997375-11.74263-5.9517517
		C181.2285614-149.6765137,189.2714539-155.7891083,198.6012115-159.3279877z M171.5770874-136.4861755
		c4.0214386,2.7345886,8.6863251,4.9866028,13.8337708,6.9169006c-1.1260071,5.3083038-1.7694397,11.0991898-1.9302979,17.0509338
		h-19.302948C164.8210449-121.2046661,167.3947754-129.4084167,171.5770874-136.4861755z M164.1776123-106.0840225h19.3029633
		c0.1608582,5.7908783,0.8042755,11.4209061,1.7694244,16.5683594c-5.1474457,1.9302979-9.973175,4.182312-13.9946289,6.916893
		C167.2339172-89.5156631,164.6601868-97.5585556,164.1776123-106.0840225z M174.9550934-77.1296005
		c3.3780212-2.4128723,7.3994751-4.3431625,11.9034882-6.1126022c2.5737305,9.8123245,6.7560272,18.0160751,11.74263,23.9678268
		C189.1105957-62.8132439,180.9068451-69.0867081,174.9550934-77.1296005z M214.5261383-56.0572166
		c-9.3297577-2.0911598-17.3726501-13.5120659-21.5549622-29.1152763
		c6.5951691-1.7694397,13.9946442-2.8954468,21.5549622-3.2171631V-56.0572166z M214.5261383-94.823967
		c-8.0428925,0.3217163-15.9249268,1.4477234-23.0026703,3.3780136c-0.9651489-4.6648865-1.4477234-9.651474-1.6085815-14.6380692
		h24.6112518V-94.823967z M214.5261383-112.5183411h-24.6112518c0.1608582-5.3083115,0.8042908-10.2949066,1.7694397-15.1206436
		c7.0777435,1.9302979,14.7989197,3.0563049,22.8418121,3.2171555V-112.5183411z M214.5261383-130.8561401
		c-7.560318-0.1608582-14.7989197-1.2868652-21.3940887-3.0563049
		c4.1822968-15.2814941,12.2251892-26.5415497,21.3940887-28.6327057V-130.8561401z M220.9604645-162.5451508
		c9.1688995,2.091156,17.211792,13.3512115,21.394104,28.6327057c-6.5951691,1.7694397-13.833786,2.8954468-21.394104,3.0563049
		V-162.5451508z M220.9604645-124.4218292c8.0428925-0.3217163,15.7640686-1.4477234,22.8418121-3.3780136
		c0.9651489,4.825737,1.6085815,9.9731903,1.7694397,15.1206512h-24.6112518V-124.4218292z M220.9604645-106.0840225h24.6112518
		c-0.1608429,5.1474533-0.6434326,9.9731903-1.6085663,14.6380692c-7.0777588-1.9302902-14.9597931-3.0562973-23.0026855-3.3780136
		V-106.0840225z M220.9604645-56.0572166v-32.3324394c7.560318,0.3217163,14.9597778,1.2868652,21.5549622,3.2171631
		C238.3331146-69.5692825,230.2902222-58.3092308,220.9604645-56.0572166z M236.8853912-59.2743759
		c5.1474457-5.9517365,9.1688995-14.1555023,11.74263-23.9678268c4.5040283,1.6085739,8.364624,3.6997299,11.9035034,6.1126022
		C254.5797577-69.0867081,246.3760071-62.8132439,236.8853912-59.2743759z M264.0703735-82.4379196
		c-4.0214539-2.7345734-8.6863251-5.1474533-13.9946289-6.9168854c0.9651489-5.3083115,1.6085815-10.7774811,1.7694397-16.5683594
		h19.302948C270.826416-97.5585556,268.2526855-89.5156631,264.0703735-82.4379196z M271.3089905-112.5183411h-19.302948
		c-0.1608582-5.9517441-0.8042908-11.7426224-1.9302979-17.211792c5.1474457-1.9302979,9.8123474-4.182312,13.8337708-6.9168854
		C268.0918274-129.4084167,270.6655579-121.2046661,271.3089905-112.5183411z M248.628006-136.0035858
		c-2.5737152-9.4906158-6.5951691-17.5335083-11.5817566-23.48526c9.3297424,3.5388794,17.3726501,9.651474,23.3243866,17.5335083
		C256.9926453-139.5424652,252.9711761-137.6121674,248.628006-136.0035858z"/>
</g>
<path id="XMLID_498_" fill="#FFFFFF" d="M257.7887268,97.7908401h-4.2017365V50.17099h3.001236
	c2.6011047,0,4.802002-1.600666,5.602356-4.001667c0.8003235-2.4010048,0.2000732-5.0020866-1.8007507-6.6027527
	L213.370224,1.3506507c-2.2009125-1.8007497-5.4022522-1.8007497-7.4030762,0l-47.2196808,38.416008
	c-2.0008392,1.600666-2.6010895,4.2017479-1.8007507,6.6027489c0.8003387,2.4010048,3.0012512,4.0016708,5.6023407,4.0016708
	h3.0012512V97.990921h-4.2017517c-3.2013397,0-6.0025024,2.6010895-6.0025024,6.0024948v10.0041733
	c0,3.2013321,2.6010742,6.0025024,6.0025024,6.0025024H257.9888c3.201355,0,6.0025024-2.6010895,6.0025024-6.0025024v-10.4043274
	C263.7912292,100.3919144,261.190155,97.7908401,257.7887268,97.7908401z M209.5686493,8.5536489l41.2171631,33.6140022h-20.0083313
	h-9.6040039h-23.0095825h-9.6040039h-20.0083466L209.5686493,8.5536489z M245.7837372,50.17099v47.6198349h-7.0029297V50.17099
	H245.7837372z M230.7774811,50.17099v47.6198349h-9.6040039V50.17099H230.7774811z M212.9700623,50.17099v47.6198349h-7.0029144
	V50.17099H212.9700623z M198.1638947,50.17099v47.6198349h-9.6040039V50.17099H198.1638947z M180.3564758,50.17099v47.6198349
	h-7.0029144V50.17099H180.3564758z M255.7879028,111.9967499h-92.4385223v-6.2025757h2.0008392h23.0095825h9.6040039h23.0095978
	h9.6039886h23.0095978h2.000824v6.2025757H255.7879028z M201.3652344,28.7620735
	c0-4.6019154,3.6014862-8.2034187,8.2034149-8.2034187c4.6019135,0,8.2034149,3.6015034,8.2034149,8.2034187
	s-3.6015015,8.2034149-8.2034149,8.2034149C204.9667206,36.9654884,201.3652344,33.1639023,201.3652344,28.7620735z"/>
<g id="XMLID_508_">
	<path id="XMLID_511_" fill="#FFFFFF" d="M85.219902-137.3817596c1.1532059,0.95401,1.3144684,2.6628265,0.359108,3.814682
		L42.0008125-80.9339218c-0.5352745,0.6477509-1.3090515,0.9824677-2.0882492,0.9824677
		c-0.6084557,0-1.220974-0.20327-1.7264328-0.6233597c-1.1532135-0.95401-1.3144722-2.6628189-0.359108-3.814682
		l43.5781898-52.6331635C82.356514-138.1744995,84.0666885-138.3371277,85.219902-137.3817596z M45.0037766-138.6135712
		c5.7484512,0,10.5821877,4.1236572,11.492836,9.8070679c1.0177002,6.344696-3.31464,12.3330078-9.6593475,13.350708
		c-0.6138725,0.0989304-1.2372284,0.1477127-1.8551712,0.1477127c-5.7484512,0-10.5835419-4.1250076-11.4941902-9.8084106
		c-0.4932671-3.0720749,0.2398567-6.1536331,2.0638618-8.6741714c1.8240013-2.5205383,4.5220566-4.1819305,7.5941315-4.6738281
		C43.7611237-138.5647888,44.3858414-138.6135712,45.0037766-138.6135712z M45.0037766-133.1930542
		c-0.3320045,0-0.6680794,0.0270996-0.9987297,0.0799408c-1.6424179,0.2629089-3.0842705,1.1518555-4.0599594,2.5002136
		c-0.977047,1.3483582-1.3686752,2.9961929-1.1044273,4.6399612c0.539341,3.3674927,3.7360878,5.7118607,7.1415253,5.1657486
		c3.39188-0.5434113,5.7091522-3.7482834,5.1657448-7.1415253C50.6587257-130.986908,48.0758514-133.1930542,45.0037766-133.1930542
		z M79.1597672-102.6362839c5.7498016,0,10.5835419,4.1236496,11.494194,9.8070526
		c1.0177002,6.3420029-3.3146362,12.3316574-9.6593475,13.3507156c-0.6138687,0.0989227-1.2385864,0.1477127-1.8565216,0.1477127
		c-5.7484512,0-10.5821915-4.1250076-11.492836-9.8084183c-0.4932632-3.0734253,0.2398529-6.1536331,2.063858-8.6741714
		s4.5207062-4.1819229,7.5941391-4.6738358C77.9184723-102.5875015,78.5431824-102.6362839,79.1597672-102.6362839z
		 M79.1597672-97.2157745c-0.3306503,0-0.6667252,0.0270996-0.9973755,0.0799484
		c-1.6437683,0.2628937-3.0856247,1.1518555-4.0613174,2.5002136c-0.9756927,1.3483505-1.3673248,2.9961853-1.1030731,4.6399612
		c0.4878464,3.0395584,3.0707169,5.245697,6.1414413,5.245697c0.3306503,0,0.6667252-0.027092,0.9973755-0.0799484
		c3.3918839-0.5447617,5.7105026-3.7482834,5.165741-7.1415176C84.8160629-95.0096283,82.2331924-97.2157745,79.1597672-97.2157745z
		 M62.0716095-168.6459045c-1.4960594,0-2.7102547,1.2141876-2.7102547,2.7102509s1.2141953,2.7102661,2.7102547,2.7102661
		c29.9144363,0,54.252533,24.338089,54.252533,54.2525177s-24.3380966,54.2538948-54.252533,54.2538948
		s-54.252533-24.3380928-54.252533-54.2538872c0-20.7713852,11.9888134-39.6767807,30.3494358-48.7087021l-2.0069427,5.8568573
		c-0.4851341,1.4161072,0.2683144,2.958252,1.6844254,3.4420319c0.2913513,0.1002655,0.5881233,0.1477051,0.8781204,0.1477051
		c1.1261139,0,2.1776886-0.7073822,2.5639-1.8334961l3.9922028-11.6486664
		c0.4851379-1.4161072-0.2683182-2.958252-1.6844215-3.4420319l-11.6486797-3.9922028
		c-1.4201736-0.4919128-2.9582443,0.2683105-3.4420242,1.6844177c-0.485136,1.4161072,0.2683144,2.958252,1.6844234,3.4420319
		l5.0559807,1.7332001c-19.8973389,10.036087-32.8482933,30.6719666-32.8482933,53.3175049
		c0,32.9038544,26.7691879,59.6730385,59.6730385,59.6730385s59.6730499-26.7691841,59.6730499-59.6730385
		S94.9754562-168.6459045,62.0716095-168.6459045z"/>
</g>
<path id="XMLID_523_" fill="#FFFFFF" d="M401.9771729-102.8218536c-1.7897644,0-3.2399902,1.4502182-3.2399902,3.2399826v39.2932549
	c0,2.4844208-2.0230408,4.5074654-4.5087585,4.5074654h-69.4950867c-2.4857178,0-4.5087891-2.0217476-4.5087891-4.5074654
	v-50.8742561c0-2.4844208,2.0230713-4.5074692,4.5087891-4.5074692h69.4950867c2.4857178,0,4.5087891,2.0217514,4.5087891,4.5074692
	c0,1.7897644,1.4502258,3.2399826,3.2399902,3.2399826s3.2399597-1.4502182,3.2399597-3.2399826
	c0-6.0574799-4.9299622-10.987442-10.988739-10.987442h-7.7448425v-20.1449432
	c0-14.8909607-12.113678-27.0059204-27.0033569-27.0059204c-14.8896484,0-27.0033264,12.1149597-27.0033264,27.0059204v20.1462402
	h-7.744873c-6.0587463,0-10.9887085,4.9286652-10.9887085,10.9874344v50.8729668
	c0,6.0574722,4.9299622,10.9874382,10.9887085,10.9874382h69.4951172c6.0587769,0,10.988739-4.928669,10.988739-10.9874382
	V-99.581871C405.2171631-101.3716354,403.7669373-102.8218536,401.9771729-102.8218536z M338.9581604-142.2952576
	c0-11.3179169,9.2067566-20.5259552,20.5233765-20.5259552s20.5233459,9.2080383,20.5233459,20.5259552v20.1462402h-41.0467224
	V-142.2952576z M359.4815369-68.0464401c1.7897644,0,3.2399597-1.4502182,3.2399597-3.2399826v-11.2077637
	c4.1459045-1.4722519,7.1279907-5.4237366,7.1279907-10.0685806c0-5.8954773-4.7964783-10.6919556-10.6919556-10.6919556
	s-10.6919556,4.7964783-10.6919556,10.6919556c0,4.8833084,3.2957153,9.003273,7.7759705,10.2772293v10.9978104
	C356.2415466-69.4966583,357.6917419-68.0464401,359.4815369-68.0464401z M354.9455566-92.56147
	c0-2.3224182,1.8895569-4.2119751,4.2119751-4.2119751s4.2119751,1.8895569,4.2119751,4.2119751
	c0,2.3224258-1.8895569,4.2119827-4.2119751,4.2119827S354.9455566-90.2390442,354.9455566-92.56147z"/>
<g id="XMLID_526_">
	<path id="XMLID_532_" fill="#FFFFFF" d="M59.6743698,0.6554407c-1.4960327,0-2.7102661,1.2141113-2.7102661,2.7102051
		s1.2142334,2.7102051,2.7102661,2.7102051c29.9144287,0,54.2525635,24.3381348,54.2525635,54.2524414
		c0,29.9145508-24.3381348,54.2539063-54.2525635,54.2539063S5.4218683,90.2443085,5.4218683,60.3282928
		c0-20.7712402,11.9887705-39.6767578,30.3494263-48.7084961l-2.006958,5.8566904
		c-0.4851074,1.4162598,0.2683105,2.958252,1.6844482,3.4421387c0.2913208,0.1000977,0.5880737,0.1477051,0.8781128,0.1477051
		c1.1260986,0,2.1776733-0.7072754,2.5639038-1.8334961L42.882988,7.5841517
		c0.4851074-1.4160156-0.2683105-2.958252-1.6844482-3.4421387L29.54986,0.1498255
		c-1.420166-0.4919434-2.9581909,0.2683105-3.4420166,1.6845703c-0.4851074,1.4160157,0.2683105,2.958252,1.6844482,3.4418945
		l5.0559673,1.7331543C12.9509211,17.045578-0.0000065,37.6815643-0.0000065,60.3270721
		c0,32.9038086,26.769165,59.6730957,59.6730347,59.6730957c32.9038086,0,59.6730347-26.7692871,59.6730347-59.6730957
		S92.5782394,0.6554407,59.6743698,0.6554407z"/>
	<path id="XMLID_542_" fill="#FFFFFF" d="M33.856987,62.5695038c4.026062-2.6694336,7.8873901-5.0522461,7.8873901-10.4753418
		c0-5.217041-3.6970825-8.626709-9.2838745-8.626709c-5.9157696,0-9.6539898,3.9440918-9.6539898,10.1054688v0.739502h4.5599976
		c0.0819092-3.3684082,0.7394409-6.8186035,4.9704571-6.8186035c2.8757324,0,4.642395,1.8486328,4.642395,4.8474121
		c0,3.984375-3.4509277,5.791748-6.3266582,7.7226563c-4.8885498,3.286377-8.380188,5.8742676-8.5856323,12.4475098h19.6361065
		v-4.1491699H27.6950626C28.6810856,65.9791718,31.7618351,63.925705,33.856987,62.5695038z"/>
	<path id="XMLID_545_" fill="#FFFFFF" d="M59.2853317,72.5113983h4.5187988v-6.8195801h3.6563721V61.748703h-3.6563721V43.5084686
		h-4.4364624L47.0438156,61.0504608v4.6413574h12.2007446L59.2853317,72.5113983z M59.3264694,49.3011932V61.748703h-8.4213257
		L59.3264694,49.3011932z"/>
	<path id="XMLID_546_" fill="#FFFFFF" d="M73.4169846,43.2623749v29.2490234h4.6419678V61.1320038
		c0-3.5737305,1.3557129-6.4499512,5.1758423-6.4499512c3.4921265,0,4.1084595,2.1369629,4.1084595,4.9709473v12.8583984H92.06707
		v-14.378418c0-4.8884277-2.793396-7.3530273-7.3122559-7.3530273c-2.9164429,0-5.1759033,1.1916504-6.6958618,3.4511719v-10.96875
		H73.4169846z"/>
</g>
<g id="XMLID_527_">
	<path id="XMLID_533_" fill="#FFFFFF" d="M534.1715698-134.1332703c-0.1272583-5.8022461-0.2595825-11.8027344-0.2595825-18.4841309
		c0-1.3896484-0.9023438-2.6188965-2.2271729-3.0351563l-42.9353943-13.501709
		c-0.6210327-0.1958008-1.2879028-0.1958008-1.9089355,0l-42.9290161,13.501709
		c-1.3261108,0.4162598-2.2271729,1.6455078-2.2271729,3.0351563c0,6.6813965-0.1310425,12.6818848-0.2595825,18.4853516
		c-0.4492798,20.442627-0.7738037,35.2102051,5.854187,48.635498
		c10.7857056,21.8666992,29.2696533,31.9194336,39.3286743,35.9650879c0.3804932,0.1525879,0.7852173,0.2302246,1.1873779,0.2302246
		s0.805603-0.0776367,1.1873779-0.2302246c10.059021-4.0432129,28.5468445-14.0908203,39.33255-35.9638672
		C534.9453735-98.9218445,534.6208496-113.6908875,534.1715698-134.1332703z M522.6108398-88.3090515
		c-9.4417725,19.1445313-25.3906555,28.3876953-34.8146057,32.3837891
		c-9.4227295-3.9973145-25.3690186-13.2456055-34.8095093-32.3852539
		c-5.9394531-12.0302734-5.6289673-26.144043-5.1987915-45.6804199c0.1081543-4.9187012,0.2290649-10.4191895,0.2557983-16.2897949
		l39.7512207-12.5024414l39.7601013,12.5024414c0.0267334,5.8706055,0.147644,11.369873,0.2557983,16.2885742
		C528.2410278-114.4555359,528.550293-100.339325,522.6108398-88.3090515z"/>
	<path id="XMLID_534_" fill="#FFFFFF" d="M505.6019592-126.76828l-23.6109619,26.9838867l-12.1677246-12.1677246
		c-1.4663086-1.4663086-3.8364258-1.4663086-5.3026123,0s-1.4661865,3.8361816,0,5.3024902l15,15
		c0.0296631,0.0297852,0.0650635,0.0495605,0.095459,0.078125c0.0318604,0.0297852,0.0551758,0.0654297,0.0882568,0.0942383
		c0.0754395,0.065918,0.1594238,0.1137695,0.2385254,0.1723633c0.0811768,0.0605469,0.15979,0.1240234,0.2446289,0.177002
		c0.123291,0.0773926,0.2514648,0.1391602,0.3806152,0.2004395c0.083252,0.0397949,0.1638184,0.0852051,0.2492676,0.1184082
		c0.1472168,0.0568848,0.2979736,0.0957031,0.4494629,0.1333008c0.0732422,0.0183105,0.1442871,0.045166,0.2185059,0.0588379
		c0.227417,0.0422363,0.4570313,0.065918,0.6865234,0.065918c0.2498779,0,0.4992676-0.0273438,0.7451172-0.0771484
		c0.0931396-0.0187988,0.1817627-0.0554199,0.2734375-0.0812988c0.1488037-0.0419922,0.2976074-0.0812988,0.4412842-0.1420898
		c0.1134033-0.0476074,0.2188721-0.1135254,0.3280029-0.1728516c0.112915-0.0615234,0.2265625-0.1186523,0.3339844-0.192627
		c0.1171875-0.0803223,0.2237549-0.1772461,0.3330078-0.2722168c0.064209-0.0559082,0.135376-0.0993652,0.1965332-0.1604004
		c0.0233154-0.0234375,0.0386963-0.0512695,0.0612793-0.0749512c0.036377-0.0380859,0.0797119-0.0651855,0.1148682-0.1049805
		l26.25-30c1.3612366-1.5600586,1.2037659-3.9262695-0.3563232-5.2912598
		C509.3369446-128.4858093,506.9707336-128.3322449,505.6019592-126.76828z"/>
</g>
<g id="XMLID_554_">
	<g id="XMLID_555_">
		<path id="XMLID_559_" fill="#FFFFFF" d="M794.723999-65.316803h-74.6430664c-0.6610718,0-1.1889648,0.5508804-1.1889648,1.2210693
			v13.5827713c0,0.6702271,0.5278931,1.2117844,1.1889648,1.2117844h74.6430664
			c0.6747437,0,1.2026367-0.5415573,1.2026367-1.2117844v-13.5827713
			C795.9266357-64.7659225,795.3987427-65.316803,794.723999-65.316803z"/>
		<path id="XMLID_556_" fill="#FFFFFF" d="M722.4632568-93.6802521c0.6610718,0.2570267,11.7282715,4.5443726,12.3800049,4.801384
			c0.6519165,0.2616882,1.3082886-0.13311,1.5194702-0.7160416c0.206543-0.5738678,4.8381958-13.270546,5.3339233-14.6844559
			h31.4528198c0.5141602,1.4139099,5.0906982,14.0830612,5.3201904,14.6844559
			c0.2203979,0.6105576,0.9042969,0.9502029,1.5148315,0.7160416c0.6105347-0.2294846,11.6364136-4.5168304,12.3893433-4.801384
			c0.7481689-0.2891998,0.862915-1.087883,0.6930542-1.5745544c-0.6380615-1.744339-21.8590698-59.8576508-22.7633667-62.3410034
			c-2.152832-5.848114-4.7188721-11.705368-12.8850098-11.705368c-8.1846313,0-10.8377686,5.9444427-12.9124756,11.705368
			c-1.0651245,2.9835968-21.9647217,60.1652679-22.7451172,62.3410034
			C721.5405273-94.6488037,721.8297119-93.9282532,722.4632568-93.6802521z M757.3450317-150.3247528h0.1376953l10.6679688,31.92556
			h-21.4368286L757.3450317-150.3247528z"/>
	</g>
</g>
<g id="XMLID_549_">
	<path id="XMLID_553_" fill="#FFFFFF" d="M651.6067505-127.1211243c-1.5561523-1.3649902-3.9223633-1.2114258-5.2911377,0.3525391
		l-23.6109619,26.9838867l-12.1677246-12.1677246c-1.4663086-1.4663086-3.8364258-1.4663086-5.3026123,0
		s-1.4661865,3.8361816,0,5.3024902l15,15c0.0296631,0.0297852,0.0650635,0.0495605,0.095459,0.078125
		c0.0318604,0.0297852,0.0551758,0.0654297,0.0882568,0.0942383c0.0754395,0.065918,0.1594238,0.1137695,0.2385254,0.1723633
		c0.0811768,0.0605469,0.15979,0.1240234,0.2446289,0.177002c0.123291,0.0773926,0.2514648,0.1391602,0.3806152,0.2004395
		c0.083252,0.0397949,0.1638184,0.0852051,0.2492676,0.1184082c0.1472168,0.0568848,0.2979736,0.0957031,0.4494629,0.1333008
		c0.0732422,0.0183105,0.1442871,0.045166,0.2185059,0.0588379c0.227417,0.0422363,0.4570313,0.065918,0.6865234,0.065918
		c0.2498779,0,0.4992676-0.0273438,0.7451172-0.0771484c0.0931396-0.0187988,0.1817627-0.0554199,0.2734375-0.0812988
		c0.1488037-0.0419922,0.2976074-0.0812988,0.4412842-0.1420898c0.1134033-0.0476074,0.2188721-0.1135254,0.3280029-0.1728516
		c0.112915-0.0615234,0.2265625-0.1186523,0.3339844-0.192627c0.1171875-0.0803223,0.2237549-0.1772461,0.3330078-0.2722168
		c0.064209-0.0559082,0.135376-0.0993652,0.1965332-0.1604004c0.0233154-0.0234375,0.0386963-0.0512695,0.0612793-0.0749512
		c0.036377-0.0380859,0.0797119-0.0651855,0.1148682-0.1049805l26.25-30
		C653.3242798-123.3899231,653.1668091-125.756134,651.6067505-127.1211243z"/>
	<path id="XMLID_550_" fill="#FFFFFF" d="M626.6355591-49.301178c-4.9612427,0-9.4575195-2.7149963-11.8912354-7.125
		c-0.1237793-0.1687508-0.2324829-0.3525009-0.3300171-0.5437508c-0.7424927-1.5-1.9012451-3.378746-3.1950073-3.7987518
		c-1.0125122-0.3337517-2.5687256,0.0562477-4.6312256,1.1362457c-0.2025146,0.1049995-0.4087524,0.1912537-0.6187744,0.2550049
		c-4.5262451,2.0962486-9.7237549,1.5787468-13.7287598-1.4174995c-3.9674683-2.9625053-6.0299683-7.8262482-5.4786987-12.8212509
		c-0.0037842-0.2062531,0.0074463-0.4125061,0.0411987-0.6262512c0.7537842-4.8937531-0.2062378-6.2737503-4.8862305-7.03125
		c-0.2249756-0.0374985-0.446228-0.09375-0.65625-0.1687546c-4.8300171-1.0312424-8.7075195-4.5599976-10.2224731-9.3524933
		c-1.5037842-4.7587509-0.3900146-9.9150009,2.8987427-13.6275024c0.1199951-0.1800003,0.258728-0.3525009,0.4124756-0.5100021
		c3.3787842-3.4725037,3.3787842-5.2724991,0-8.7449951c-0.1574707-0.1612549-0.2999878-0.3337555-0.4199829-0.5175018
		c-3.28125-3.7125015-4.3950195-8.8649979-2.8912354-13.6200027c1.5149536-4.7925034,5.3999634-8.3212509,10.2337036-9.3487473
		c0.2062988-0.0749969,0.4200439-0.1312561,0.6412964-0.1649933c4.6799927-0.7649994,5.6362305-2.1450043,4.8862305-7.0387573
		c-0.0262451-0.2099915-0.0412598-0.4199982-0.0374756-0.6337433c-0.5475464-4.9875031,1.5149536-9.8475037,5.4824829-12.8099976
		c4.0125122-3,9.2249756-3.5137634,13.7512207-1.40625c0.2025146,0.063736,0.4012451,0.1499939,0.5962524,0.2474976
		c2.0625,1.0800018,3.6187744,1.4700012,4.6312866,1.1362457c1.2937012-0.4199982,2.4524536-2.2949982,3.1950073-3.7987518
		c0.0974731-0.1949921,0.2099609-0.3787537,0.3337402-0.5512543c2.4337158-4.40625,6.9262085-7.1174927,11.883728-7.1174927
		c4.9650269,0,9.46875,2.7225037,11.9025269,7.1475067c0.1162109,0.1612396,0.2249756,0.3374939,0.3150024,0.5212402
		c0.7462158,1.5,1.9049683,3.3787537,3.2024536,3.7987518c1.0012817,0.3300018,2.5650024-0.0525055,4.6312866-1.1362457
		c0.1950073-0.1012573,0.3974609-0.1875,0.6037598-0.2512512c4.5262451-2.1074982,9.7236938-1.5862579,13.7399902,1.40625
		c3.9637451,2.9624939,6.0224609,7.8187408,5.4824829,12.8099976c0.0037231,0.2100067-0.0112305,0.4237518-0.0449829,0.6374969
		c-0.7537842,4.8937531,0.2062378,6.2737579,4.8862305,7.0350037c0.2249756,0.0375061,0.4387817,0.0899963,0.6525269,0.1649933
		c4.8299561,1.03125,8.7112427,4.5562592,10.2261963,9.3487549c1.5,4.7625046,0.3900146,9.9225006-2.9024658,13.6350021
		c-0.1199951,0.1762466-0.2550049,0.3450012-0.4087524,0.5024948c-3.375,3.4725037-3.375,5.2724991,0,8.7450027
		c0.1537476,0.1612473,0.2924805,0.3299942,0.4162598,0.5099945c3.2849731,3.7125015,4.3987427,8.8687515,2.8949585,13.6275101
		c-1.5112305,4.7924957-5.3962402,8.3249969-10.2337036,9.3524933c-0.2062988,0.0787506-0.4200439,0.1312485-0.6450195,0.1687546
		c-4.6799927,0.7574921-5.6362305,2.1374969-4.8825073,7.03125c0.0337524,0.2174988,0.0487671,0.4349976,0.0449829,0.6524963
		c0.5437622,4.9875031-1.5187378,9.8400002-5.4824829,12.795002c-4.0050049,3.0037537-9.2025146,3.517498-13.7399902,1.4137535
		c-0.2062378-0.0674973-0.4087524-0.1500053-0.6037598-0.2512474c-2.0700073-1.0837479-3.6412354-1.4662552-4.6312256-1.1362495
		c-1.2975464,0.4162521-2.4525146,2.2949982-3.2025146,3.7987518c-0.0900269,0.1874962-0.1987305,0.3637505-0.3187866,0.5325012
		C636.0968018-52.0199318,631.5968018-49.301178,626.6355591-49.301178z M620.8493042-60.8661766
		c0.116272,0.1650009,0.2212524,0.3374977,0.3112793,0.5212479c1.0725098,2.1862526,3.1724854,3.5437508,5.4749756,3.5437508
		s4.4025269-1.3574982,5.4787598-3.5437508c0.0862427-0.1800003,0.1912231-0.3487511,0.303772-0.5099983
		c1.9837036-3.7874985,4.383728-6.09375,7.3162231-7.0462494c2.9099731-0.9449997,6.1275024-0.5099945,9.8474731,1.3274994
		c0.1950073,0.0637512,0.3900146,0.1462479,0.5737915,0.2437515c2.0849609,1.0987473,4.5262451,0.9112549,6.3825073-0.472496
		c1.9124756-1.4287491,2.8574829-3.847496,2.4674683-6.3225021c-0.0337524-0.2099991-0.0487671-0.4162521-0.0449829-0.6225052
		c-1.0725098-8.3062439,2.4674683-13.2862473,10.5374756-14.8199921c0.1950073-0.0675049,0.397522-0.1162567,0.6075439-0.1500092
		c2.3399658-0.375,4.2412109-2.0362473,4.9649658-4.3349991c0.7387695-2.340004,0.1312866-4.8862457-1.5862427-6.6412506
		c-0.1462402-0.1500015-0.28125-0.3112488-0.397522-0.4837494c-5.5987549-6.0599976-5.5949707-12.1987457,0.0075073-18.2587433
		c0.1124878-0.1687546,0.2437744-0.3262558,0.3900146-0.4762497c1.7175293-1.7550049,2.3250122-4.3012543,1.5862427-6.6450043
		c-0.7237549-2.2987518-2.625-3.9599991-4.9612427-4.3312454c-0.2175293-0.0337524-0.4237671-0.0862579-0.6224976-0.1537476
		c-8.0587769-1.5375061-11.5987549-6.5212555-10.5262451-14.8312531c0-0.2024994,0.0150146-0.4049988,0.0449829-0.6074982
		c0.3900146-2.4750061-0.5549927-4.8975067-2.4674683-6.3262482c-1.8600464-1.3875122-4.3012695-1.5712585-6.3825073-0.46875
		c-0.1875,0.0974884-0.3787842,0.1799927-0.5737915,0.2437439c-3.7237549,1.8300018-6.9524536,2.2687531-9.8474731,1.3274994
		c-2.9362793-0.9450073-5.3362427-3.2587585-7.3237305-7.0500031c-0.1087646-0.1575012-0.210022-0.3224945-0.2962646-0.4987488
		c-1.0762329-2.1900024-3.1762695-3.5475006-5.4787598-3.5475006s-4.4024658,1.3574982-5.4749756,3.5437469
		c-0.0900269,0.1837463-0.1987915,0.3600006-0.3150024,0.5287476c-1.9837646,3.7762604-4.3800049,6.0787506-7.3087769,7.03125
		c-2.8912354,0.9375-6.1237183,0.5062561-9.8549805-1.3349915c-0.1912842-0.0637512-0.3825073-0.1462555-0.5662842-0.2400055
		c-2.0812378-1.0987549-4.5262451-0.9149933-6.3825073,0.46875c-1.9124756,1.4287567-2.8612061,3.8549957-2.4711914,6.3262482
		c0.0299683,0.198761,0.0449829,0.4012604,0.0449829,0.6037598c1.0725098,8.3099976-2.4675293,13.2975006-10.5337524,14.8349915
		c-0.1987305,0.0675049-0.4012451,0.1199951-0.6149902,0.1537476c-2.3362427,0.3750153-4.2375488,2.0325089-4.9650269,4.3350067
		c-0.7387695,2.3399963-0.1312256,4.8862534,1.5900269,6.6412506c0.1499634,0.1537476,0.2849731,0.3149948,0.4049683,0.4912491
		c5.5875244,6.0562515,5.5875244,12.1875-0.0075073,18.2437515c-0.1162109,0.172493-0.2474976,0.3337479-0.3974609,0.4837418
		c-1.7175293,1.7587509-2.3287964,4.3012543-1.5900269,6.6412506c0.7275391,2.3025055,2.6287842,3.9675064,4.96875,4.3387527
		c0.2137451,0.0337524,0.4199829,0.0824966,0.6187744,0.1537476c8.0625,1.5337524,11.602478,6.5212555,10.5224609,14.8387527
		c0,0.1987534-0.0112305,0.3975067-0.0449829,0.5999985c-0.3900146,2.4674988,0.5587769,4.8937531,2.4712524,6.3225098
		c1.8599854,1.3874969,4.3012695,1.5749969,6.3862305,0.46875c0.1875-0.0975037,0.3862915-0.1800079,0.585022-0.2437592
		c3.7200317-1.8337479,6.9412231-2.2687454,9.8362427-1.3274994
		C616.4655762-66.9524307,618.8618164-64.6461792,620.8493042-60.8661766z"/>
</g>
</svg>
